<?xml version="1.0" encoding="UTF-8"?>
<!--Generator: Apple Native CoreSVG 341-->
<!DOCTYPE svg
PUBLIC "-//W3C//DTD SVG 1.1//EN"
       "http://www.w3.org/Graphics/SVG/1.1/DTD/svg11.dtd">
<svg version="1.1" xmlns="http://www.w3.org/2000/svg" xmlns:xlink="http://www.w3.org/1999/xlink" viewBox="0 0 57.8857 56.2889">
 <g>
<path d="M39.3555 55.5248L46.582 43.0248C46.9971 42.2924 46.7773 41.4623 46.0693 41.0473C45.3857 40.6078 44.5068 40.8276 44.0674 41.5844L36.8896 54.0356C36.4746 54.768 36.6943 55.6225 37.4023 56.0619C38.1104 56.477 38.9404 56.2572 39.3555 55.5248Z" fill="#00c0e8"/>
  <path d="M33.6914 48.5668L36.8652 43.0492C37.3047 42.3168 37.0605 41.4623 36.3281 41.0229C35.5957 40.6078 34.7656 40.8276 34.3262 41.5844L31.1279 47.1508C30.7129 47.8344 30.9082 48.6889 31.665 49.1283C32.3975 49.5434 33.2764 49.2748 33.6914 48.5668Z" fill="#00c0e8"/>
  <path d="M19.9463 55.5492L27.1484 43.0492C27.5635 42.3168 27.3682 41.4867 26.6602 41.0717C25.9521 40.6322 25.0488 40.852 24.6338 41.6088L17.4805 54.06C17.0654 54.7924 17.2607 55.6469 17.9932 56.0863C18.7012 56.5014 19.5312 56.2572 19.9463 55.5492Z" fill="#00c0e8"/>
  <path d="M14.2578 48.5912L17.4316 43.0736C17.8955 42.3412 17.6514 41.4867 16.9189 41.0473C16.1865 40.6322 15.3564 40.852 14.8926 41.6088L11.6943 47.1752C11.2793 47.8588 11.499 48.7133 12.2559 49.1528C12.9639 49.5678 13.8428 49.2992 14.2578 48.5912Z" fill="#00c0e8"/>
  <path d="M13.623 37.1654L43.9209 37.1654C51.9287 37.1654 57.8857 31.0863 57.8857 23.5668C57.8857 15.7787 51.5381 10.0903 43.2617 10.0903C40.21 4.05998 34.5459 0.178142 27.4902 0.178142C18.3105 0.178142 10.7422 7.38029 9.93652 16.4379C5.51758 17.7319 2.14844 21.5649 2.14844 26.7162C2.14844 32.5024 6.34766 37.1654 13.623 37.1654Z" fill="white"/>
 </g>
</svg>
