<?xml version="1.0" encoding="UTF-8"?>
<!--Generator: Apple Native CoreSVG 341-->
<!DOCTYPE svg
PUBLIC "-//W3C//DTD SVG 1.1//EN"
       "http://www.w3.org/Graphics/SVG/1.1/DTD/svg11.dtd">
<svg version="1.1" xmlns="http://www.w3.org/2000/svg" xmlns:xlink="http://www.w3.org/1999/xlink" viewBox="0 0 57.8857 61.2887">
 <g>
<path d="M47.1924 58.4886C47.9248 58.8792 48.8037 58.6351 49.2188 57.927L52.3926 52.4095C52.832 51.677 52.5879 50.8226 51.8799 50.3831C51.123 49.9436 50.293 50.1878 49.8535 50.9446L46.6553 56.4866C46.2402 57.1946 46.4355 58.0491 47.1924 58.4886Z" fill="#00c0e8"/>
  <path d="M42.4561 51.6526C43.1885 52.0677 44.0674 51.8235 44.4824 51.0911L47.6562 45.5979C48.0957 44.8411 47.8516 43.9866 47.1436 43.5472C46.3867 43.1321 45.5566 43.3763 45.1172 44.1087L41.9189 49.6751C41.5039 50.3831 41.6992 51.2376 42.4561 51.6526Z" fill="#00c0e8"/>
  <path d="M35.8887 48.7229L30.3467 48.7229L30.2979 49.8216L33.2764 44.1087C33.5693 43.5716 33.3496 43.1565 32.8125 43.1565L27.5146 43.1565C26.8066 43.1565 26.5625 43.4007 26.3428 43.9134L23.0225 51.4817C22.7539 52.0921 23.0225 52.4583 23.6572 52.4583L28.1738 52.4583L28.4912 51.0179L24.5605 60.5638C24.4385 60.8811 24.5117 61.1497 24.7314 61.2474C24.9512 61.345 25.2197 61.2718 25.4883 61.0032L36.2793 49.9436C36.792 49.4065 36.5967 48.7229 35.8887 48.7229Z" fill="white"/>
  <path d="M13.2568 58.4886C13.9893 58.8792 14.8682 58.6351 15.2832 57.927L18.457 52.4095C18.8965 51.677 18.6523 50.8226 17.9199 50.3831C17.1875 49.9436 16.3574 50.1878 15.918 50.9446L12.6953 56.4866C12.3047 57.1946 12.5 58.0491 13.2568 58.4886Z" fill="#00c0e8"/>
  <path d="M8.52051 51.6526C9.25293 52.0677 10.1318 51.8235 10.5469 51.0911L13.7207 45.5979C14.1602 44.8411 13.916 43.9866 13.1836 43.5472C12.4512 43.1321 11.6211 43.3763 11.1816 44.1087L7.9834 49.6751C7.56836 50.3831 7.76367 51.2376 8.52051 51.6526Z" fill="#00c0e8"/>
  <path d="M13.623 39.6653L43.9209 39.6653C51.9287 39.6653 57.8857 33.5862 57.8857 26.0667C57.8857 18.2786 51.5381 12.5901 43.2617 12.5901C40.21 6.55985 34.5459 2.67802 27.4902 2.67802C18.3105 2.67802 10.7422 9.88017 9.93652 18.9378C5.51758 20.2317 2.14844 24.0647 2.14844 29.2161C2.14844 35.0022 6.34766 39.6653 13.623 39.6653Z" fill="white"/>
 </g>
</svg>
