<?xml version="1.0" encoding="UTF-8"?>
<!--Generator: Apple Native CoreSVG 341-->
<!DOCTYPE svg
PUBLIC "-//W3C//DTD SVG 1.1//EN"
       "http://www.w3.org/Graphics/SVG/1.1/DTD/svg11.dtd">
<svg version="1.1" xmlns="http://www.w3.org/2000/svg" xmlns:xlink="http://www.w3.org/1999/xlink" viewBox="0 0 57.8857 64.0381">
 <g>
<path d="M37.8418 60.4004C38.2812 60.4004 38.5986 59.9854 38.5742 59.5215L38.4033 57.2021L40.3564 58.5205C40.6982 58.7646 41.2354 58.667 41.4795 58.3008C41.7236 57.9346 41.5771 57.373 41.1133 57.1533L39.0137 56.1279L41.1377 55.0781C41.5771 54.8584 41.6992 54.3213 41.5039 53.9551C41.2842 53.5645 40.6982 53.4912 40.3564 53.7354L38.4033 55.0781L38.5986 52.7344C38.6475 52.2461 38.2812 51.8555 37.8418 51.8555C37.3291 51.8555 37.0117 52.2461 37.0361 52.7344L37.207 55.0781L35.2295 53.7354C34.8877 53.4912 34.375 53.54 34.1309 53.9551C33.9111 54.3213 34.0088 54.8584 34.4727 55.0781L36.5723 56.1279L34.4727 57.1533C34.0088 57.373 33.8867 57.9102 34.1064 58.3008C34.3262 58.6914 34.8877 58.7646 35.2295 58.5205L37.207 57.2266L37.0605 59.5215C37.0361 59.9854 37.3291 60.4004 37.8418 60.4004Z" fill="white"/>
  <path d="M23.9014 64.0381C24.3652 64.0381 24.6582 63.623 24.6338 63.1836L24.4873 60.8643L26.416 62.1582C26.7822 62.4023 27.3193 62.3047 27.5635 61.9385C27.8076 61.5723 27.6611 61.0107 27.1973 60.791L25.0977 59.79L27.2217 58.7402C27.6611 58.5205 27.7832 57.9834 27.5879 57.5928C27.3682 57.2021 26.7822 57.1289 26.416 57.373L24.4873 58.7402L24.6582 56.3721C24.707 55.9082 24.3652 55.5176 23.9014 55.5176C23.3887 55.5176 23.0957 55.9082 23.1201 56.3721L23.2666 58.7402L21.3135 57.373C20.9473 57.1289 20.4346 57.1777 20.1904 57.5928C19.9707 57.9834 20.0684 58.4961 20.5322 58.7402L22.6562 59.79L20.5322 60.8154C20.0684 61.0352 19.9463 61.5479 20.166 61.9385C20.3857 62.3535 20.9473 62.4268 21.3135 62.1826L23.2666 60.8643L23.1445 63.1836C23.1201 63.623 23.3887 64.0381 23.9014 64.0381Z" fill="white"/>
  <path d="M12.2559 60.3027C12.6953 60.3027 13.0127 59.8877 12.9883 59.4482L12.8174 57.1045L14.7705 58.4229C15.1123 58.667 15.6738 58.5693 15.8936 58.2031C16.1377 57.8369 15.9912 57.2754 15.5273 57.0557L13.4277 56.0303L15.5518 54.9805C15.9912 54.7607 16.1133 54.248 15.918 53.8574C15.7227 53.4668 15.1123 53.3936 14.7705 53.6377L12.8174 54.9805L13.0127 52.6367C13.0615 52.1729 12.6953 51.7822 12.2559 51.7822C11.7432 51.7822 11.4258 52.1729 11.4502 52.6367L11.6211 54.9805L9.64355 53.6377C9.30176 53.3936 8.78906 53.4424 8.54492 53.8574C8.3252 54.248 8.42285 54.7607 8.88672 54.9805L10.9863 56.0303L8.88672 57.0557C8.42285 57.2754 8.30078 57.8125 8.52051 58.2031C8.74023 58.6182 9.30176 58.6914 9.64355 58.4473L11.6211 57.1289L11.4746 59.4482C11.4502 59.8877 11.7432 60.3027 12.2559 60.3027Z" fill="white"/>
  <path d="M42.3584 49.9268L43.9941 47.0459C44.4336 46.3135 44.2139 45.4346 43.4814 44.9951C42.749 44.5801 41.8945 44.8486 41.4551 45.5566L39.7949 48.5107C39.4043 49.1943 39.5752 50.0488 40.332 50.4883C41.0645 50.9033 41.9434 50.6348 42.3584 49.9268Z" fill="#00c0e8"/>
  <path d="M27.417 53.5645L31.2256 46.9727C31.6406 46.2158 31.4209 45.3613 30.7129 44.9463C29.9561 44.5068 29.1016 44.751 28.6865 45.5078L24.8535 52.1484C24.4385 52.8564 24.6582 53.7109 25.415 54.126C26.123 54.541 27.0264 54.2969 27.417 53.5645Z" fill="#00c0e8"/>
  <path d="M16.7725 49.8291L18.4082 46.9482C18.8477 46.2158 18.6279 45.3369 17.8955 44.8975C17.1631 44.4824 16.3086 44.751 15.8691 45.459L14.209 48.4131C13.8184 49.0967 13.9893 49.9512 14.7461 50.3906C15.4785 50.8057 16.3574 50.5615 16.7725 49.8291Z" fill="#00c0e8"/>
  <path d="M13.623 41.04L43.9209 41.04C51.9287 41.04 57.8857 34.9609 57.8857 27.4414C57.8857 19.6533 51.5381 13.9648 43.2617 13.9648C40.21 7.93457 34.5459 4.05273 27.4902 4.05273C18.3105 4.05273 10.7422 11.2549 9.93652 20.3125C5.51758 21.6064 2.14844 25.4395 2.14844 30.5908C2.14844 36.377 6.34766 41.04 13.623 41.04Z" fill="white"/>
 </g>
</svg>
