<?xml version="1.0" encoding="UTF-8"?>
<!--Generator: Apple Native CoreSVG 341-->
<!DOCTYPE svg
PUBLIC "-//W3C//DTD SVG 1.1//EN"
       "http://www.w3.org/Graphics/SVG/1.1/DTD/svg11.dtd">
<svg version="1.1" xmlns="http://www.w3.org/2000/svg" xmlns:xlink="http://www.w3.org/1999/xlink" viewBox="0 0 75.2441 52.7588">
 <g>
  <rect height="52.7588" opacity="0" width="75.2441" x="0" y="0"/>
  <path d="M64.1113 37.3779L67.8955 41.1377C68.6768 41.9189 68.6768 43.2129 67.8955 43.9697C67.1143 44.751 65.8203 44.7998 65.0635 43.9941L61.2549 40.2344C60.4736 39.4531 60.4736 38.1592 61.2549 37.3779C62.0361 36.6211 63.3301 36.6211 64.1113 37.3779ZM62.0361 26.0742C62.0361 30.4261 59.6875 34.2747 56.2056 36.3989C55.522 29.296 49.8185 23.9487 42.334 23.1934C41.5533 21.9609 40.6592 20.8368 39.6609 19.8419C41.7806 16.3339 45.6306 13.9648 49.9756 13.9648C56.5674 13.9648 62.0361 19.458 62.0361 26.0742ZM75.2441 26.0742C75.2441 27.1973 74.3408 28.1006 73.2422 28.1006L67.9443 28.1006C66.8701 28.1006 65.918 27.1973 65.918 26.0742C65.918 25 66.8701 24.0479 67.9443 24.0479L73.2422 24.0479C74.3408 24.0479 75.2441 25 75.2441 26.0742ZM67.8955 8.17871C68.6768 8.95996 68.6768 10.2783 67.8955 11.0596L64.1357 14.7949C63.3301 15.6006 62.0361 15.5762 61.2549 14.7949C60.4736 14.0137 60.4736 12.7197 61.2549 11.9629L65.0635 8.17871C65.8203 7.39746 67.1143 7.39746 67.8955 8.17871ZM34.9365 8.17871L38.6963 11.9629C39.4531 12.6953 39.4531 14.0381 38.6719 14.7949C37.8906 15.5762 36.5967 15.5762 35.8154 14.7949L32.0801 11.0352C31.2988 10.2783 31.3232 8.95996 32.1045 8.17871C32.8857 7.39746 34.1797 7.42188 34.9365 8.17871ZM52.002 2.75879L52.002 8.08105C52.002 9.15527 51.0742 10.083 49.9756 10.083C48.877 10.083 47.9492 9.15527 47.9492 8.08105L47.9492 2.75879C47.9492 1.68457 48.877 0.732422 49.9756 0.732422C51.0742 0.732422 52.002 1.68457 52.002 2.75879Z" fill="#ffcc00"/>
  <path d="M14.6729 49.9023L41.0889 49.9023C48.0469 49.9023 53.4424 44.6289 53.4424 37.8418C53.4424 31.1035 47.9492 26.001 40.6494 25.9521C37.8418 20.6055 32.7881 17.334 26.7578 17.334C18.7988 17.334 12.0605 23.5107 11.3037 31.543C7.25098 32.7637 4.49219 36.2305 4.49219 40.625C4.49219 46.0449 8.56934 49.9023 14.6729 49.9023Z" fill="white"/>
 </g>
</svg>
