<?xml version="1.0" encoding="UTF-8"?>
<!--Generator: Apple Native CoreSVG 341-->
<!DOCTYPE svg
PUBLIC "-//W3C//DTD SVG 1.1//EN"
       "http://www.w3.org/Graphics/SVG/1.1/DTD/svg11.dtd">
<svg version="1.1" xmlns="http://www.w3.org/2000/svg" xmlns:xlink="http://www.w3.org/1999/xlink" viewBox="0 0 67.7979 61.4629">
 <g>
  <rect height="61.4629" opacity="0" width="67.7979" x="0" y="0"/>
  <path d="M43.0664 53.1314C43.7988 53.5708 44.043 54.4253 43.6035 55.1577L40.4297 60.6753C40.0146 61.4077 39.1357 61.6519 38.4033 61.2368C37.6465 60.7974 37.4512 59.9429 37.8662 59.2593L41.0645 53.6929C41.5039 52.9605 42.334 52.7163 43.0664 53.1314Z" fill="#00c0e8"/>
  <path d="M35.4492 46.271C36.1572 46.6861 36.4014 47.5405 35.9619 48.2974L32.7881 53.7905C32.373 54.523 31.4941 54.7671 30.7617 54.3765C30.0049 53.937 29.8096 53.0825 30.2246 52.3745L33.4229 46.8325C33.8623 46.0757 34.6924 45.8316 35.4492 46.271Z" fill="#00c0e8"/>
  <path d="M23.6572 53.1558C24.3896 53.5952 24.6338 54.4497 24.1699 55.1821L20.9961 60.6997C20.5811 61.4321 19.7021 61.6763 18.9941 61.2612C18.2373 60.8218 18.0176 59.9673 18.4326 59.2837L21.6309 53.7173C22.0947 52.9849 22.9248 52.7407 23.6572 53.1558Z" fill="#00c0e8"/>
  <path d="M16.0156 46.2954C16.748 46.7105 16.9922 47.565 16.5527 48.3218L13.3545 53.815C12.9395 54.5474 12.0605 54.7915 11.3525 54.4009C10.5957 53.9614 10.376 53.107 10.791 52.3989L13.9893 46.857C14.4531 46.1001 15.2832 45.856 16.0156 46.2954Z" fill="#00c0e8"/>
  <path d="M52.2705 2.10598C52.2705 3.39992 50.5371 5.76808 50.5371 8.99074C50.5371 14.606 54.1504 18.0484 60.2051 18.0484C63.6475 18.0484 65.4053 16.4859 66.6016 16.4859C67.3828 16.4859 67.7979 17.1939 67.7979 18.146C67.7979 21.8012 63.8914 28.4065 55.8045 29.5112C55.5038 21.9166 49.6557 16.1699 41.8457 15.3628C41.1181 14.2209 40.2985 13.1773 39.3941 12.2465C40.7559 5.60122 46.4108 1.05582 50.7812 0.885272C51.7334 0.860858 52.2705 1.34914 52.2705 2.10598Z" fill="white"/>
  <path d="M14.0869 42.145L40.5273 42.145C47.4365 42.145 52.8076 36.9204 52.8076 30.1577C52.8076 23.4195 47.3389 18.3413 40.0391 18.2925C37.1826 12.8482 32.1045 9.67433 26.1963 9.67433C18.2617 9.67433 11.5234 15.8511 10.791 23.8589C6.64062 25.104 3.97949 28.6196 3.97949 32.9165C3.97949 38.3853 8.10547 42.145 14.0869 42.145Z" fill="white"/>
 </g>
</svg>
