<?xml version="1.0" encoding="UTF-8"?>
<!--Generator: Apple Native CoreSVG 341-->
<!DOCTYPE svg
PUBLIC "-//W3C//DTD SVG 1.1//EN"
       "http://www.w3.org/Graphics/SVG/1.1/DTD/svg11.dtd">
<svg version="1.1" xmlns="http://www.w3.org/2000/svg" xmlns:xlink="http://www.w3.org/1999/xlink" viewBox="0 0 57.8857 61.2887">
 <g>
<path d="M35.8887 48.7229L30.3467 48.7229L30.2979 49.8216L33.2764 44.1087C33.5693 43.5716 33.3496 43.1565 32.8125 43.1565L27.5146 43.1565C26.8066 43.1565 26.5625 43.4007 26.3428 43.9134L23.0225 51.4817C22.7539 52.0921 23.0225 52.4583 23.6572 52.4583L28.1738 52.4583L28.4912 51.0179L24.5605 60.5638C24.4385 60.8811 24.5117 61.1497 24.7314 61.2474C24.9512 61.345 25.2197 61.2718 25.4883 61.0032L36.2793 49.9436C36.792 49.4065 36.5967 48.7229 35.8887 48.7229Z" fill="white"/>
  <path d="M13.623 39.6653L43.9209 39.6653C51.9287 39.6653 57.8857 33.5862 57.8857 26.0667C57.8857 18.2786 51.5381 12.5901 43.2617 12.5901C40.21 6.55985 34.5459 2.67802 27.4902 2.67802C18.3105 2.67802 10.7422 9.88017 9.93652 18.9378C5.51758 20.2317 2.14844 24.0647 2.14844 29.2161C2.14844 35.0022 6.34766 39.6653 13.623 39.6653Z" fill="white"/>
 </g>
</svg>
