<?xml version="1.0" encoding="UTF-8"?>
<!--Generator: Apple Native CoreSVG 341-->
<!DOCTYPE svg
PUBLIC "-//W3C//DTD SVG 1.1//EN"
       "http://www.w3.org/Graphics/SVG/1.1/DTD/svg11.dtd">
<svg version="1.1" xmlns="http://www.w3.org/2000/svg" xmlns:xlink="http://www.w3.org/1999/xlink" viewBox="0 0 75.2441 68.7744">
 <g>
  <rect height="68.7744" opacity="0" width="75.2441" x="0" y="0"/>
  <path d="M44.1895 60.1807C44.9219 60.5957 45.166 61.4746 44.7266 62.207L41.5283 67.7246C41.1377 68.4326 40.2344 68.6768 39.5264 68.2861C38.7695 67.8467 38.5498 66.9922 38.9648 66.2842L42.1631 60.7422C42.627 59.9854 43.457 59.7412 44.1895 60.1807Z" fill="#00c0e8"/>
  <path d="M36.5479 53.2959C37.2803 53.7354 37.5244 54.5898 37.085 55.3467L33.9111 60.8398C33.4961 61.5723 32.6172 61.8164 31.8848 61.4014C31.1279 60.9863 30.9326 60.1074 31.3477 59.4238L34.5459 53.8574C34.9854 53.125 35.8154 52.8809 36.5479 53.2959Z" fill="#00c0e8"/>
  <path d="M24.7803 60.2051C25.4883 60.6201 25.7324 61.499 25.293 62.2314L22.1191 67.749C21.7041 68.457 20.8252 68.7012 20.0928 68.3105C19.3604 67.8711 19.1406 67.0166 19.5557 66.3086L22.7539 60.7666C23.1934 60.0098 24.0234 59.7656 24.7803 60.2051Z" fill="#00c0e8"/>
  <path d="M17.1387 53.3203C17.8711 53.7598 18.0908 54.6143 17.6514 55.3711L14.4775 60.8643C14.0625 61.5967 13.1836 61.8408 12.4512 61.4258C11.7188 61.0107 11.499 60.1318 11.9141 59.4482L15.1123 53.8818C15.5518 53.1494 16.3818 52.9053 17.1387 53.3203Z" fill="#00c0e8"/>
  <path d="M64.1113 36.6455L67.8955 40.4053C68.6768 41.1865 68.6768 42.4805 67.8955 43.2373C67.1143 44.0186 65.8203 44.043 65.0635 43.2617L61.2549 39.502C60.4736 38.7207 60.4736 37.4268 61.2549 36.6455C62.0361 35.8887 63.3301 35.8887 64.1113 36.6455ZM62.0361 25.3418C62.0361 29.6777 59.6874 33.5313 56.2054 35.6609C55.5213 28.5386 49.818 23.1933 42.334 22.4609C41.5522 21.2268 40.6567 20.1013 39.6569 19.1054C41.7757 15.5939 45.6279 13.2324 49.9756 13.2324C56.5674 13.2324 62.0361 18.7012 62.0361 25.3418ZM75.2441 25.3418C75.2441 26.4648 74.3408 27.3682 73.2422 27.3682L67.9443 27.3682C66.8701 27.3682 65.918 26.4648 65.918 25.3418C65.918 24.2432 66.8701 23.3154 67.9443 23.3154L73.2422 23.3154C74.3408 23.3154 75.2441 24.2432 75.2441 25.3418ZM67.8955 7.44629C68.6768 8.22754 68.6768 9.5459 67.8955 10.3271L64.1357 14.0625C63.3301 14.8682 62.0361 14.8437 61.2549 14.0625C60.4736 13.2812 60.4736 11.9873 61.2549 11.2305L65.0635 7.44629C65.8203 6.64062 67.1143 6.66504 67.8955 7.44629ZM34.9365 7.44629L38.6963 11.2305C39.4531 11.9629 39.4531 13.3057 38.6719 14.0625C37.8906 14.8437 36.5967 14.8437 35.8154 14.0625L32.0801 10.3027C31.2988 9.5459 31.3232 8.22754 32.1045 7.44629C32.8857 6.66504 34.1797 6.66504 34.9365 7.44629ZM52.002 2.02637L52.002 7.32422C52.002 8.42285 51.0742 9.32617 49.9756 9.32617C48.877 9.32617 47.9492 8.42285 47.9492 7.32422L47.9492 2.02637C47.9492 0.952148 48.877-7.10543e-15 49.9756-7.10543e-15C51.0742-7.10543e-15 52.002 0.952148 52.002 2.02637Z" fill="#ffcc00"/>
  <path d="M14.6729 49.1699L41.0889 49.1699C48.0469 49.1699 53.4424 43.8965 53.4424 37.1094C53.4424 30.3711 47.9492 25.2686 40.6494 25.2197C37.8418 19.873 32.7881 16.6016 26.7578 16.6016C18.7988 16.6016 12.0605 22.7783 11.3037 30.8105C7.25098 32.0312 4.49219 35.498 4.49219 39.8926C4.49219 45.3125 8.56934 49.1699 14.6729 49.1699Z" fill="white"/>
 </g>
</svg>
