<?xml version="1.0" encoding="UTF-8"?>
<!--Generator: Apple Native CoreSVG 341-->
<!DOCTYPE svg
PUBLIC "-//W3C//DTD SVG 1.1//EN"
       "http://www.w3.org/Graphics/SVG/1.1/DTD/svg11.dtd">
<svg version="1.1" xmlns="http://www.w3.org/2000/svg" xmlns:xlink="http://www.w3.org/1999/xlink" viewBox="0 0 57.8857 57.6416">
 <g>
<path d="M42.3584 46.7285L43.9941 43.8477C44.4336 43.1152 44.2139 42.2363 43.4814 41.7969C42.749 41.3818 41.8945 41.6504 41.4551 42.3584L39.7949 45.3125C39.4043 45.9961 39.5752 46.8506 40.332 47.29C41.0645 47.7051 41.9434 47.4365 42.3584 46.7285ZM38.0371 54.0039C39.4775 54.0039 40.6738 52.7832 40.6738 51.3184C40.6738 49.9023 39.4775 48.6816 38.0371 48.6816C36.5723 48.6816 35.376 49.9023 35.376 51.3184C35.376 52.7832 36.5723 54.0039 38.0371 54.0039Z" fill="white"/>
  <path d="M27.417 50.3662L31.2256 43.7744C31.6406 43.0176 31.4209 42.1631 30.7129 41.748C29.9561 41.3086 29.1016 41.5527 28.6865 42.3096L24.8535 48.9502C24.4385 49.6582 24.6582 50.5127 25.415 50.9277C26.123 51.3428 27.0264 51.0986 27.417 50.3662ZM23.0957 57.6416C24.5361 57.6416 25.7568 56.4209 25.7568 54.9561C25.7568 53.54 24.5605 52.3438 23.0957 52.3438C21.6553 52.3438 20.459 53.54 20.459 54.9561C20.459 56.4209 21.6553 57.6416 23.0957 57.6416Z" fill="white"/>
  <path d="M16.7725 46.6309L18.4082 43.75C18.8477 43.0176 18.6279 42.1387 17.8955 41.6992C17.1631 41.2842 16.3086 41.5527 15.8691 42.2607L14.209 45.2148C13.8184 45.8984 13.9893 46.7529 14.7461 47.1924C15.4785 47.6074 16.3574 47.3633 16.7725 46.6309ZM12.4512 53.9062C13.8916 53.9062 15.0879 52.6855 15.0879 51.2207C15.0879 49.8047 13.8916 48.6084 12.4512 48.6084C10.9863 48.6084 9.79004 49.8047 9.79004 51.2207C9.79004 52.6855 10.9863 53.9062 12.4512 53.9062Z" fill="white"/>
  <path d="M13.623 37.8418L43.9209 37.8418C51.9287 37.8418 57.8857 31.7627 57.8857 24.2432C57.8857 16.4551 51.5381 10.7666 43.2617 10.7666C40.21 4.73633 34.5459 0.854492 27.4902 0.854492C18.3105 0.854492 10.7422 8.05664 9.93652 17.1143C5.51758 18.4082 2.14844 22.2412 2.14844 27.3926C2.14844 33.1787 6.34766 37.8418 13.623 37.8418Z" fill="white"/>
 </g>
</svg>
