<?xml version="1.0" encoding="UTF-8"?>
<!--Generator: Apple Native CoreSVG 341-->
<!DOCTYPE svg
PUBLIC "-//W3C//DTD SVG 1.1//EN"
       "http://www.w3.org/Graphics/SVG/1.1/DTD/svg11.dtd">
<svg version="1.1" xmlns="http://www.w3.org/2000/svg" xmlns:xlink="http://www.w3.org/1999/xlink" viewBox="0 0 57.8857 60.7666">
 <g>
<path d="M36.7676 60.7666C37.207 60.7666 37.5244 60.3271 37.5 59.8877L37.3291 57.5684L39.2822 58.8867C39.624 59.1064 40.1855 59.0088 40.4297 58.6426C40.6494 58.2764 40.5273 57.7148 40.0391 57.4951L37.9395 56.4941L40.0635 55.4443C40.5273 55.2246 40.625 54.6875 40.4541 54.3213C40.2344 53.9307 39.624 53.8574 39.2822 54.0771L37.3291 55.4443L37.5244 53.0762C37.5732 52.6123 37.207 52.2217 36.7676 52.2217C36.2549 52.2217 35.9619 52.6123 35.9863 53.0762L36.1328 55.4443L34.1553 54.0771C33.8135 53.8574 33.3008 53.9062 33.0566 54.3213C32.8369 54.6875 32.9346 55.2002 33.3984 55.4443L35.498 56.4941L33.3984 57.5195C32.9346 57.7393 32.8125 58.252 33.0322 58.6426C33.252 59.0576 33.8135 59.1309 34.1553 58.8867L36.1328 57.5684L36.0107 59.8877C35.9863 60.3271 36.2549 60.7666 36.7676 60.7666Z" fill="white"/>
  <path d="M23.2422 60.7666C23.6816 60.7666 23.999 60.3271 23.9746 59.8877L23.8281 57.5684L25.7568 58.8867C26.0986 59.1064 26.6602 59.0088 26.9043 58.6426C27.124 58.2764 27.002 57.7148 26.5137 57.4951L24.4141 56.4941L26.5381 55.4443C27.002 55.2246 27.0996 54.6875 26.9287 54.3213C26.709 53.9307 26.0986 53.8574 25.7568 54.0771L23.8281 55.4443L23.999 53.0762C24.0479 52.6123 23.6816 52.2217 23.2422 52.2217C22.7295 52.2217 22.4365 52.6123 22.4609 53.0762L22.6074 55.4443L20.6299 54.0771C20.2881 53.8574 19.7754 53.9062 19.5312 54.3213C19.3115 54.6875 19.4092 55.2002 19.873 55.4443L21.9727 56.4941L19.873 57.5195C19.4092 57.7393 19.2871 58.252 19.5068 58.6426C19.7266 59.0576 20.2881 59.1309 20.6299 58.8867L22.6074 57.5684L22.4854 59.8877C22.4609 60.3271 22.7295 60.7666 23.2422 60.7666Z" fill="white"/>
  <path d="M9.7168 60.7666C10.1562 60.7666 10.4736 60.3271 10.4492 59.8877L10.3027 57.5684L12.2314 58.8867C12.5977 59.1064 13.1348 59.0088 13.3789 58.6426C13.5986 58.2764 13.4766 57.7148 12.9883 57.4951L10.9131 56.4941L13.0127 55.4443C13.4766 55.2246 13.5742 54.6875 13.4033 54.3213C13.1836 53.9307 12.5977 53.8574 12.2314 54.0771L10.3027 55.4443L10.4736 53.0762C10.5225 52.6123 10.1562 52.2217 9.7168 52.2217C9.2041 52.2217 8.91113 52.6123 8.93555 53.0762L9.08203 55.4443L7.12891 54.0771C6.7627 53.8574 6.25 53.9062 6.00586 54.3213C5.78613 54.6875 5.88379 55.2002 6.34766 55.4443L8.44727 56.4941L6.34766 57.5195C5.88379 57.7393 5.76172 58.252 5.98145 58.6426C6.20117 59.0576 6.7627 59.1309 7.12891 58.8867L9.08203 57.5684L8.95996 59.8877C8.93555 60.3271 9.2041 60.7666 9.7168 60.7666Z" fill="white"/>
  <path d="M42.0654 51.5869C42.5049 51.5869 42.8223 51.1719 42.7979 50.7324L42.627 48.3887L44.5801 49.707C44.9219 49.9512 45.4834 49.8535 45.7275 49.4873C45.9473 49.1211 45.8252 48.5596 45.3369 48.3398L43.2373 47.3145L45.3613 46.2646C45.8252 46.0449 45.9229 45.5322 45.752 45.1416C45.5322 44.751 44.9219 44.6777 44.5801 44.9219L42.627 46.2646L42.8223 43.9209C42.8711 43.457 42.5049 43.0664 42.0654 43.0664C41.5527 43.0664 41.2598 43.457 41.2842 43.9209L41.4307 46.2646L39.4531 44.9219C39.1113 44.6777 38.5986 44.7266 38.3545 45.1416C38.1348 45.5322 38.2324 46.0449 38.6963 46.2646L40.7959 47.3145L38.6963 48.3398C38.2324 48.5596 38.1104 49.0967 38.3301 49.4873C38.5498 49.8779 39.1113 49.9512 39.4531 49.7314L41.4307 48.4131L41.3086 50.7324C41.2842 51.1719 41.5527 51.5869 42.0654 51.5869Z" fill="white"/>
  <path d="M28.54 51.5869C28.9795 51.5869 29.2969 51.1719 29.2725 50.7324L29.126 48.3887L31.0547 49.707C31.3965 49.9512 31.958 49.8535 32.2021 49.4873C32.4219 49.1211 32.2998 48.5596 31.8115 48.3398L29.7119 47.3145L31.8359 46.2646C32.2998 46.0449 32.3975 45.5322 32.2266 45.1416C32.0068 44.751 31.3965 44.6777 31.0547 44.9219L29.126 46.2646L29.2969 43.9209C29.3457 43.457 28.9795 43.0664 28.54 43.0664C28.0273 43.0664 27.7344 43.457 27.7588 43.9209L27.9053 46.2646L25.9277 44.9219C25.5859 44.6777 25.0732 44.7266 24.8291 45.1416C24.6094 45.5322 24.707 46.0449 25.1709 46.2646L27.2705 47.3145L25.1709 48.3398C24.707 48.5596 24.585 49.0967 24.8047 49.4873C25.0244 49.8779 25.5859 49.9512 25.9277 49.7314L27.9053 48.4131L27.7832 50.7324C27.7588 51.1719 28.0273 51.5869 28.54 51.5869Z" fill="white"/>
  <path d="M15.0146 51.5869C15.4541 51.5869 15.7715 51.1719 15.7471 50.7324L15.6006 48.3887L17.5293 49.707C17.8711 49.9512 18.4326 49.8535 18.6768 49.4873C18.8965 49.1211 18.7744 48.5596 18.2861 48.3398L16.2109 47.3145L18.3105 46.2646C18.7744 46.0449 18.8721 45.5322 18.7012 45.1416C18.4814 44.751 17.8711 44.6777 17.5293 44.9219L15.6006 46.2646L15.7715 43.9209C15.8203 43.457 15.4541 43.0664 15.0146 43.0664C14.502 43.0664 14.209 43.457 14.2334 43.9209L14.3799 46.2646L12.4268 44.9219C12.0605 44.6777 11.5479 44.7266 11.3037 45.1416C11.084 45.5322 11.1816 46.0449 11.6455 46.2646L13.7451 47.3145L11.6455 48.3398C11.1816 48.5596 11.0596 49.0967 11.2793 49.4873C11.499 49.8779 12.0605 49.9512 12.4268 49.7314L14.3799 48.4131L14.2578 50.7324C14.2334 51.1719 14.502 51.5869 15.0146 51.5869Z" fill="white"/>
  <path d="M13.623 39.4043L43.9209 39.4043C51.9287 39.4043 57.8857 33.3252 57.8857 25.8057C57.8857 18.0176 51.5381 12.3291 43.2617 12.3291C40.21 6.29883 34.5459 2.41699 27.4902 2.41699C18.3105 2.41699 10.7422 9.61914 9.93652 18.6768C5.51758 19.9707 2.14844 23.8037 2.14844 28.9551C2.14844 34.7412 6.34766 39.4043 13.623 39.4043Z" fill="white"/>
 </g>
</svg>
