<?xml version="1.0" encoding="UTF-8"?>
<!--Generator: Apple Native CoreSVG 341-->
<!DOCTYPE svg
PUBLIC "-//W3C//DTD SVG 1.1//EN"
       "http://www.w3.org/Graphics/SVG/1.1/DTD/svg11.dtd">
<svg version="1.1" xmlns="http://www.w3.org/2000/svg" xmlns:xlink="http://www.w3.org/1999/xlink" viewBox="0 0 67.4316 45.874">
 <g>
  <rect height="45.874" opacity="0" width="67.4316" x="0" y="0"/>
  <path d="M51.3184 2.80762C51.3184 4.10156 49.6094 6.44531 49.6094 9.69238C49.6094 15.2832 53.1982 18.75 59.2529 18.75C62.6953 18.75 64.4775 17.1875 65.6738 17.1875C66.4551 17.1875 66.8701 17.8711 66.8701 18.8232C66.8701 22.5005 62.964 29.1074 54.8777 30.2127C54.5863 22.6295 48.7119 16.8724 40.918 16.0645C40.1908 14.9182 39.3718 13.8722 38.468 12.9404C39.8317 6.29394 45.4815 1.73299 49.8291 1.5625C50.8057 1.53809 51.3184 2.05078 51.3184 2.80762Z" fill="white"/>
  <path d="M13.1592 42.8467L39.5752 42.8467C46.5088 42.8467 51.8799 37.5977 51.8799 30.835C51.8799 24.1211 46.4111 19.043 39.1113 18.9941C36.2549 13.5254 31.1523 10.3516 25.2686 10.3516C17.3096 10.3516 10.5957 16.5283 9.83887 24.5605C5.68848 25.8057 3.02734 29.3213 3.02734 33.6182C3.02734 39.0869 7.15332 42.8467 13.1592 42.8467Z" fill="white"/>
 </g>
</svg>
