<?xml version="1.0" encoding="UTF-8"?>
<!--Generator: Apple Native CoreSVG 341-->
<!DOCTYPE svg
PUBLIC "-//W3C//DTD SVG 1.1//EN"
       "http://www.w3.org/Graphics/SVG/1.1/DTD/svg11.dtd">
<svg version="1.1" xmlns="http://www.w3.org/2000/svg" xmlns:xlink="http://www.w3.org/1999/xlink" viewBox="0 0 67.1875 64.2672">
 <g>
  <rect height="64.2672" opacity="0" width="67.1875" x="0" y="0"/>
  <path d="M31.2744 48.137L29.0453 52.3606L33.8867 52.3606C34.5947 52.3606 34.7656 53.0198 34.2529 53.5325L23.9258 63.9817C23.7061 64.2503 23.4375 64.3235 23.2178 64.2259C22.9736 64.1282 22.9004 63.8841 23.0469 63.5423L26.1834 55.9983L22.0947 55.9983C21.4844 55.9983 21.2158 55.6321 21.46 55.0462L24.585 47.9417C24.8047 47.4534 25.0244 47.2093 25.708 47.2093L30.8105 47.2093C31.3477 47.2093 31.5674 47.5999 31.2744 48.137Z" fill="white"/>
  <path d="M51.6357 3.43485C51.6357 4.7288 49.9268 7.07255 49.9268 10.3196C49.9268 15.9104 53.54 19.3772 59.5947 19.3772C63.0127 19.3772 64.7949 17.8147 65.9912 17.8147C66.7725 17.8147 67.1875 18.4983 67.1875 19.4505C67.1875 23.1277 63.2814 29.7346 55.1952 30.8399C54.9049 23.2568 49.0531 17.4996 41.2354 16.6917C40.5082 15.5454 39.6892 14.4994 38.7854 13.5676C40.149 6.92118 45.7989 2.36023 50.1465 2.18974C51.123 2.16532 51.6357 2.67802 51.6357 3.43485Z" fill="white"/>
  <path d="M13.4766 43.4739L39.8926 43.4739C46.8262 43.4739 52.1973 38.2249 52.1973 31.4622C52.1973 24.7483 46.7285 19.6702 39.4287 19.6214C36.5723 14.1526 31.4941 11.0032 25.5859 11.0032C17.6514 11.0032 10.9131 17.1556 10.1807 25.1878C6.00586 26.4329 3.34473 29.9485 3.34473 34.2454C3.34473 39.7142 7.4707 43.4739 13.4766 43.4739Z" fill="white"/>
 </g>
</svg>
