<?xml version="1.0" encoding="UTF-8"?>
<!--Generator: Apple Native CoreSVG 341-->
<!DOCTYPE svg
PUBLIC "-//W3C//DTD SVG 1.1//EN"
       "http://www.w3.org/Graphics/SVG/1.1/DTD/svg11.dtd">
<svg version="1.1" xmlns="http://www.w3.org/2000/svg" xmlns:xlink="http://www.w3.org/1999/xlink" viewBox="0 0 57.8857 56.2889">
 <g>
<path d="M38.3545 55.5492L45.5811 43.0492C45.9961 42.3168 45.7764 41.4379 45.0439 41.0717C44.3359 40.6811 43.4814 40.852 43.0664 41.6088L35.8887 54.06C35.4492 54.7924 35.6689 55.6469 36.377 56.0863C37.0605 56.5014 37.9639 56.2572 38.3545 55.5492Z" fill="#00c0e8"/>
  <path d="M28.7109 55.5248L35.8643 43.0981C36.3037 42.3168 36.084 41.4867 35.3516 41.0717C34.5947 40.6322 33.7646 40.852 33.3252 41.6332L26.1475 54.1088C25.7568 54.7924 25.9277 55.6469 26.6846 56.0863C27.417 56.5014 28.2959 56.2572 28.7109 55.5248Z" fill="#00c0e8"/>
  <path d="M18.9941 55.5248L26.1475 43.0981C26.5869 42.3168 26.3672 41.4867 25.6348 41.0717C24.8779 40.6322 24.0479 40.852 23.6084 41.6332L16.4307 54.1088C16.04 54.7924 16.2109 55.6469 16.9678 56.0863C17.7002 56.5014 18.5791 56.2572 18.9941 55.5248Z" fill="#00c0e8"/>
  <path d="M9.25293 55.5248L16.4307 43.0981C16.8701 42.3168 16.626 41.4867 15.8936 41.0717C15.1611 40.6322 14.3311 40.852 13.8916 41.6332L6.68945 54.1088C6.29883 54.7924 6.49414 55.6469 7.22656 56.0863C7.95898 56.5014 8.83789 56.2572 9.25293 55.5248Z" fill="#00c0e8"/>
  <path d="M13.623 37.1654L43.9209 37.1654C51.9287 37.1654 57.8857 31.0863 57.8857 23.5668C57.8857 15.7787 51.5381 10.0903 43.2617 10.0903C40.21 4.05998 34.5459 0.178142 27.4902 0.178142C18.3105 0.178142 10.7422 7.38029 9.93652 16.4379C5.51758 17.7319 2.14844 21.5649 2.14844 26.7162C2.14844 32.5024 6.34766 37.1654 13.623 37.1654Z" fill="white"/>
 </g>
</svg>
