<?xml version="1.0" encoding="UTF-8"?>
<!--Generator: Apple Native CoreSVG 341-->
<!DOCTYPE svg
PUBLIC "-//W3C//DTD SVG 1.1//EN"
       "http://www.w3.org/Graphics/SVG/1.1/DTD/svg11.dtd">
<svg version="1.1" xmlns="http://www.w3.org/2000/svg" xmlns:xlink="http://www.w3.org/1999/xlink" viewBox="0 0 75.2441 71.1031">
 <g>
  <rect height="71.1031" opacity="0" width="75.2441" x="0" y="0"/>
  <path d="M32.4951 54.9729L30.266 59.1966L35.1074 59.1966C35.8154 59.1966 35.9863 59.8558 35.4736 60.3684L25.1465 70.8177C24.9268 71.0862 24.6582 71.1595 24.4385 71.0618C24.1943 70.9642 24.1211 70.72 24.2676 70.3782L27.4041 62.8343L23.3154 62.8343C22.7051 62.8343 22.4365 62.4681 22.6807 61.8821L25.8057 54.7776C26.0254 54.2893 26.2451 54.0452 26.9287 54.0452L32.0312 54.0452C32.5684 54.0452 32.7881 54.4358 32.4951 54.9729Z" fill="white"/>
  <path d="M64.1357 37.8099L67.8711 41.5696C68.6523 42.3509 68.6523 43.6448 67.8711 44.4261C67.0898 45.2073 65.8203 45.2073 65.0391 44.4261L61.2549 40.6419C60.4736 39.8606 60.498 38.5911 61.2549 37.8099C62.0117 37.0286 63.3301 37.0042 64.1357 37.8099ZM62.1338 26.5306C62.1338 30.8771 59.8456 34.6876 56.4002 36.8125C55.7143 29.649 50.0089 24.2812 42.4805 23.5032C41.6834 22.2467 40.7759 21.1107 39.7685 20.112C41.8988 16.6905 45.6958 14.4212 50.0244 14.4212C56.7139 14.4212 62.1338 19.8411 62.1338 26.5306ZM75.2441 26.5306C75.2441 27.6536 74.3408 28.5569 73.2422 28.5569L67.9443 28.5569C66.8701 28.5569 65.918 27.6536 65.918 26.5306C65.918 25.4075 66.8701 24.5042 67.9443 24.5042L73.2422 24.5042C74.3408 24.5042 75.2441 25.4075 75.2441 26.5306ZM67.8711 8.65946C68.6523 9.44071 68.6523 10.7347 67.8711 11.5159L64.1357 15.2513C63.3301 16.0569 62.0117 16.0325 61.2549 15.2513C60.498 14.47 60.4736 13.2005 61.2549 12.4192L65.0391 8.65946C65.8203 7.8538 67.0898 7.87821 67.8711 8.65946ZM34.9365 8.63505L38.6963 12.4192C39.4775 13.2005 39.4531 14.47 38.6963 15.2513C37.9395 16.0325 36.6211 16.0569 35.8154 15.2513L32.1045 11.5159C31.2988 10.7102 31.3232 9.4163 32.1045 8.63505C32.8857 7.8538 34.1553 7.8538 34.9365 8.63505ZM52.002 3.23954L52.002 8.51298C52.002 9.61161 51.0986 10.5393 49.9756 10.5393C48.8525 10.5393 47.9492 9.61161 47.9492 8.51298L47.9492 3.23954C47.9492 2.14091 48.8525 1.21318 49.9756 1.21318C51.0986 1.21318 52.002 2.14091 52.002 3.23954Z" fill="#ffcc00"/>
  <path d="M14.7461 50.2854L41.1621 50.2854C48.0713 50.2854 53.4424 45.0364 53.4424 38.2737C53.4424 31.5599 47.9736 26.4817 40.6738 26.4329C37.8174 20.9642 32.7393 17.8147 26.8311 17.8147C18.8965 17.8147 12.1582 23.9671 11.4258 31.9993C7.27539 33.2444 4.61426 36.7601 4.61426 41.0569C4.61426 46.5257 8.74023 50.2854 14.7461 50.2854Z" fill="white"/>
 </g>
</svg>
