<?xml version="1.0" encoding="UTF-8"?>
<!--Generator: Apple Native CoreSVG 341-->
<!DOCTYPE svg
PUBLIC "-//W3C//DTD SVG 1.1//EN"
       "http://www.w3.org/Graphics/SVG/1.1/DTD/svg11.dtd">
<svg version="1.1" xmlns="http://www.w3.org/2000/svg" xmlns:xlink="http://www.w3.org/1999/xlink" viewBox="0 0 55.2246 50.5615">
 <g>
  <rect height="50.5615" opacity="0" width="55.2246" x="0" y="0"/>
  <path d="M54.8828 24.6826C50.239 24.6826 46.2768 27.534 44.6163 31.5692C43.9128 30.711 43.0741 29.9595 42.1231 29.337C44.4645 24.6683 49.2848 21.4844 54.8828 21.4844Z" fill="#cb30e0"/>
  <path d="M54.8828 19.3359C48.5034 19.3359 42.9672 22.9858 40.2494 28.3128C39.287 27.8721 38.2413 27.5534 37.1324 27.3709C40.2535 20.7089 47.0015 16.1377 54.8828 16.1377Z" fill="#00c0e8"/>
  <path d="M54.8828 13.9893C45.9415 13.9893 38.2666 19.4055 34.9201 27.1202C34.3164 26.012 33.6097 24.9965 32.8088 24.0923C36.983 16.1708 45.281 10.791 54.8828 10.791Z" fill="#baeb00"/>
  <path d="M54.8828 8.66699C44.7294 8.66699 35.8753 14.2561 31.233 22.5231C30.4163 21.8095 29.5287 21.1956 28.583 20.6884C33.7925 11.5762 43.6059 5.46875 54.8828 5.46875Z" fill="#ffab2c"/>
  <path d="M54.8828 3.32031C42.7656 3.32031 32.2069 9.96643 26.647 19.8138C25.6091 19.4344 24.5191 19.1708 23.3863 19.0394C29.3626 7.76945 41.2034 0.12207 54.8828 0.12207Z" fill="#ff383c"/>
  <path d="M9.96094 50.5615L35.1562 50.5615C41.9434 50.5615 47.2168 45.4102 47.2168 38.8184C47.2168 32.251 41.9189 27.2949 34.9365 27.1484C32.1777 22.0703 27.2705 18.9209 21.5332 18.9209C13.7695 18.9209 7.2998 24.9023 6.49414 32.5928C2.63672 33.8135 0 37.207 0 41.4551C0 46.7773 4.00391 50.5615 9.96094 50.5615Z" fill="white"/>
 </g>
</svg>
