<?xml version="1.0" encoding="UTF-8"?>
<!--Generator: Apple Native CoreSVG 341-->
<!DOCTYPE svg
PUBLIC "-//W3C//DTD SVG 1.1//EN"
       "http://www.w3.org/Graphics/SVG/1.1/DTD/svg11.dtd">
<svg version="1.1" xmlns="http://www.w3.org/2000/svg" xmlns:xlink="http://www.w3.org/1999/xlink" viewBox="0 0 57.8857 55.9326">
 <g>
<path d="M46.1426 50.9277L14.3799 50.9277C13.5254 50.9277 12.8418 51.5869 12.8418 52.4658C12.8418 53.3447 13.5254 54.0283 14.3799 54.0283L46.1426 54.0283C46.9971 54.0283 47.6807 53.3447 47.6807 52.4658C47.6807 51.5869 46.9971 50.9277 46.1426 50.9277Z" fill="white"/>
  <path d="M46.1426 42.6514L14.3799 42.6514C13.5254 42.6514 12.8418 43.3105 12.8418 44.1895C12.8418 45.0684 13.5254 45.7275 14.3799 45.7275L46.1426 45.7275C46.9971 45.7275 47.6807 45.0684 47.6807 44.1895C47.6807 43.3105 46.9971 42.6514 46.1426 42.6514Z" fill="white"/>
  <path d="M13.623 36.9873L43.9209 36.9873C51.9287 36.9873 57.8857 30.9082 57.8857 23.3887C57.8857 15.6006 51.5381 9.91211 43.2617 9.91211C40.21 3.88184 34.5459 0 27.4902 0C18.3105 0 10.7422 7.20215 9.93652 16.2598C5.51758 17.5537 2.14844 21.3867 2.14844 26.5381C2.14844 32.3242 6.34766 36.9873 13.623 36.9873Z" fill="white"/>
 </g>
</svg>
