<?xml version="1.0" encoding="UTF-8"?>
<!--Generator: Apple Native CoreSVG 341-->
<!DOCTYPE svg
PUBLIC "-//W3C//DTD SVG 1.1//EN"
       "http://www.w3.org/Graphics/SVG/1.1/DTD/svg11.dtd">
<svg version="1.1" xmlns="http://www.w3.org/2000/svg" xmlns:xlink="http://www.w3.org/1999/xlink" viewBox="0 0 57.8857 56.1407">
 <g>
<path d="M41.333 55.353L44.5068 49.8599C44.9463 49.103 44.7021 48.2486 43.9697 47.8335C43.2373 47.3941 42.4072 47.6382 41.9678 48.395L38.7451 53.937C38.3545 54.645 38.5498 55.4995 39.3066 55.9146C40.0391 56.3296 40.918 56.0855 41.333 55.353Z" fill="#00c0e8"/>
  <path d="M33.6914 48.4927L36.8652 42.9751C37.3047 42.2427 37.0605 41.3882 36.3281 40.9487C35.5957 40.5337 34.7656 40.7534 34.3262 41.5103L31.1279 47.0767C30.7129 47.7603 30.9082 48.6148 31.665 49.0542C32.3975 49.4693 33.2764 49.2007 33.6914 48.4927Z" fill="#00c0e8"/>
  <path d="M21.8994 55.3775L25.0732 49.8843C25.5127 49.1275 25.293 48.273 24.5605 47.8579C23.8037 47.4185 22.9736 47.6626 22.5342 48.4195L19.3359 53.9614C18.9209 54.6695 19.1406 55.5239 19.873 55.939C20.6055 56.354 21.4844 56.1099 21.8994 55.3775Z" fill="#00c0e8"/>
  <path d="M14.2578 48.5171L17.4316 42.9995C17.8955 42.2671 17.6514 41.4126 16.9189 40.9732C16.1865 40.5581 15.3564 40.7779 14.8926 41.5347L11.6943 47.1011C11.2793 47.7847 11.499 48.6392 12.2559 49.0786C12.9639 49.4937 13.8428 49.2251 14.2578 48.5171Z" fill="#00c0e8"/>
  <path d="M13.623 37.0913L43.9209 37.0913C51.9287 37.0913 57.8857 31.0122 57.8857 23.4927C57.8857 15.7046 51.5381 10.0161 43.2617 10.0161C40.21 3.98586 34.5459 0.104022 27.4902 0.104022C18.3105 0.104022 10.7422 7.30617 9.93652 16.3638C5.51758 17.6577 2.14844 21.4907 2.14844 26.6421C2.14844 32.4282 6.34766 37.0913 13.623 37.0913Z" fill="white"/>
 </g>
</svg>
