<?xml version="1.0" encoding="UTF-8"?>
<!--Generator: Apple Native CoreSVG 341-->
<!DOCTYPE svg
PUBLIC "-//W3C//DTD SVG 1.1//EN"
       "http://www.w3.org/Graphics/SVG/1.1/DTD/svg11.dtd">
<svg version="1.1" xmlns="http://www.w3.org/2000/svg" xmlns:xlink="http://www.w3.org/1999/xlink" viewBox="0 0 45.0086 44.9745">
 <g>
  <rect height="44.9745" opacity="0" width="45.0086" x="0" y="0"/>
  <path d="M13.2881 44.9745L31.7233 44.9745C36.0018 44.9745 39.3451 43.7289 41.5411 41.5329C43.8147 39.311 45.0086 35.9624 45.0086 31.6893L45.0086 13.2852C45.0086 9.01206 43.82 5.66874 41.5411 3.44161C39.3139 1.21448 36.0018 0 31.7233 0L13.2881 0C9.00971 0 5.64052 1.24562 3.44452 3.44161C1.19676 5.66346 0.00292336 9.01206 0.00292336 13.2852L0.00292336 31.6893C0.00292336 35.9624 1.19148 39.3058 3.44452 41.5329C5.65107 43.7394 9.00971 44.9745 13.2881 44.9745Z" fill="black" fill-opacity="0.18"/>
  <path d="M27.2183 15.3913L22.5783 19.7361L13.348 28.9406C12.9646 29.3239 12.7158 29.8161 12.7158 30.2929C12.7158 31.4636 13.4567 32.1992 14.5757 32.1992C15.1872 32.1992 15.6535 31.9817 16.0368 31.5983L25.2308 22.3733L29.5755 17.7333C31.4354 15.744 29.1505 13.5937 27.2183 15.3913ZM28.5036 22.4061L28.5036 26.7315C28.5036 27.9593 29.2444 28.7208 30.3634 28.7208C31.4824 28.7208 32.218 27.8816 32.218 26.7056L32.218 14.8416C32.218 13.3604 31.4048 12.7541 30.1099 12.7541L18.163 12.7541C16.987 12.7541 16.2202 13.4845 16.2202 14.5982C16.2202 15.7224 17.0129 16.458 18.2148 16.458L22.7612 16.458L29.2022 15.687Z" fill="black"/>
 </g>
</svg>
