<?xml version="1.0" encoding="UTF-8"?>
<!--Generator: Apple Native CoreSVG 341-->
<!DOCTYPE svg
PUBLIC "-//W3C//DTD SVG 1.1//EN"
       "http://www.w3.org/Graphics/SVG/1.1/DTD/svg11.dtd">
<svg version="1.1" xmlns="http://www.w3.org/2000/svg" xmlns:xlink="http://www.w3.org/1999/xlink" viewBox="0 0 55.4645 55.5036">
 <g>
  <rect height="55.5036" opacity="0" width="55.4645" x="0" y="0"/>
  <path d="M12.9342 48.9148L18.2336 48.9148C18.7273 48.9148 19.0858 49.0447 19.4495 49.4085L23.2215 53.144C26.2973 56.2562 29.1645 56.2303 32.2404 53.144L35.9864 49.4085C36.3502 49.0447 36.7346 48.9148 37.2282 48.9148L42.5017 48.9148C46.8485 48.9148 48.9068 46.9029 48.9068 42.5097L48.9068 37.2362C48.9068 36.7372 49.042 36.3787 49.4005 35.9891L53.1155 32.2483C56.2224 29.1672 56.1965 26.3052 53.1155 23.2241L49.4005 19.4833C49.042 19.0937 48.9068 18.7352 48.9068 18.2362L48.9068 12.9627C48.9068 8.59534 46.8744 6.55763 42.5017 6.55763L37.2282 6.55763C36.7346 6.55763 36.3502 6.42775 35.9864 6.06397L32.2404 2.32843C29.1334-0.789092 26.2973-0.763168 23.2162 2.32843L19.4495 6.06397C19.091 6.42246 18.7273 6.55763 18.2336 6.55763L12.9342 6.55763C8.56154 6.55763 6.55496 8.56948 6.55496 12.9627L6.55496 18.2362C6.55496 18.7352 6.41981 19.0937 6.0613 19.4833L2.32054 23.2241C-0.786437 26.3052-0.76056 29.1672 2.32054 32.2483L6.0613 35.9891C6.41981 36.3787 6.55496 36.7372 6.55496 37.2362L6.55496 42.5097C6.55496 46.8771 8.56154 48.9148 12.9342 48.9148Z" fill="#007aff" fill-opacity="0.25"/>
  <path d="M24.9926 39.656C24.1689 39.656 23.5008 39.3297 22.8481 38.4647L16.7114 30.9424C16.3539 30.4761 16.131 29.9269 16.131 29.3777C16.131 28.2588 16.986 27.3626 18.0944 27.3626C18.7836 27.3626 19.3534 27.5855 19.949 28.3934L24.9097 34.7756L35.338 18.0626C35.7784 17.3064 36.4052 16.9178 37.0632 16.9178C38.1457 16.9178 39.13 17.6434 39.13 18.8035C39.13 19.3422 38.8348 19.9172 38.5138 20.3988L27.0336 38.4647C26.5362 39.2726 25.8318 39.656 24.9926 39.656Z" fill="#007aff"/>
 </g>
</svg>
