<?xml version="1.0" encoding="UTF-8"?>
<!--Generator: Apple Native CoreSVG 341-->
<!DOCTYPE svg
PUBLIC "-//W3C//DTD SVG 1.1//EN"
       "http://www.w3.org/Graphics/SVG/1.1/DTD/svg11.dtd">
<svg version="1.1" xmlns="http://www.w3.org/2000/svg" xmlns:xlink="http://www.w3.org/1999/xlink" viewBox="0 0 49.7996 52.6716">
 <g>
  <rect height="52.6716" opacity="0" width="49.7996" x="0" y="0"/>
  <path d="M24.8867 51.207C38.6382 51.207 49.7993 40.0717 49.7993 26.3203C49.7993 18.6337 46.4165 12.2997 41.7135 8.01324C39.5791 6.04984 36.7872 9.0287 38.9216 11.0385C43.0731 14.8353 45.6397 20.2478 45.6397 26.3203C45.6397 37.7926 36.359 47.0732 24.8867 47.0732C13.4144 47.0732 4.15433 37.7926 4.15433 26.3203C4.15433 20.196 6.75204 14.8095 10.8777 11.0126C13.0328 8.98219 10.272 6.12747 8.10641 8.0391C3.3569 12.2274 8.88178e-16 18.8407 8.88178e-16 26.3203C8.88178e-16 40.0717 11.1611 51.207 24.8867 51.207ZM24.8867 26.07C26.0781 26.07 26.8501 25.2463 26.8501 24.0032L26.8501 2.09277C26.8501 0.844407 26.0781 0 24.8867 0C23.7212 0 22.9233 0.844407 22.9233 2.09277L22.9233 24.0032C22.9233 25.2463 23.7212 26.07 24.8867 26.07Z" fill="#ff383c"/>
 </g>
</svg>
