<?xml version="1.0" encoding="UTF-8"?>
<!--Generator: Apple Native CoreSVG 341-->
<!DOCTYPE svg
PUBLIC "-//W3C//DTD SVG 1.1//EN"
       "http://www.w3.org/Graphics/SVG/1.1/DTD/svg11.dtd">
<svg version="1.1" xmlns="http://www.w3.org/2000/svg" xmlns:xlink="http://www.w3.org/1999/xlink" viewBox="0 0 41.0626 52.343">
 <g>
  <rect height="52.343" opacity="0" width="41.0626" x="0" y="0"/>
  <path d="M7.55572 52.3329L33.4812 52.3329C38.5249 52.3329 41.0626 49.7641 41.0626 44.674L41.0626 22.5319L23.3859 22.5319C20.2578 22.5319 18.7688 21.0376 18.7688 17.9096L18.7688 0L7.55572 0C2.52789 0 0.00025063 2.56882 0.00025063 7.65898L0.00025063 44.674C0.00025063 49.79 2.51733 52.3329 7.55572 52.3329ZM23.4334 19.1931L40.7611 19.1931C40.6212 18.1618 39.9004 17.1928 38.7503 16.0168L25.2839 2.31761C24.1544 1.16219 23.1284 0.4261 22.1076 0.254989L22.1076 17.8621C22.1076 18.7565 22.5701 19.1931 23.4334 19.1931Z" fill="black"/>
 </g>
</svg>
