<?xml version="1.0" encoding="UTF-8"?>
<!--Generator: Apple Native CoreSVG 341-->
<!DOCTYPE svg
PUBLIC "-//W3C//DTD SVG 1.1//EN"
       "http://www.w3.org/Graphics/SVG/1.1/DTD/svg11.dtd">
<svg version="1.1" xmlns="http://www.w3.org/2000/svg" xmlns:xlink="http://www.w3.org/1999/xlink" viewBox="0 0 53.6248 53.9473">
 <g>
  <rect height="53.9473" opacity="0" width="53.6248" x="0" y="0"/>
  <path d="M30.5406 53.9473C32.3138 53.9473 33.5478 52.4445 34.4656 50.1005L50.4439 8.3446C50.8896 7.20449 51.1331 6.20962 51.1331 5.37531C51.1331 3.80435 50.143 2.81424 48.572 2.81424C47.7377 2.81424 46.7428 3.0577 45.6286 3.50336L3.63979 19.58C1.58049 20.3736 8.88178e-16 21.6335 8.88178e-16 23.4067C8.88178e-16 25.6562 1.71515 26.4034 4.0601 27.1141L21.6763 32.2917L26.8073 49.6802C27.5128 52.1493 28.2858 53.9473 30.5406 53.9473ZM22.7694 28.5772L5.92425 23.4308C5.52154 23.3158 5.41706 23.1959 5.41706 23.0445C5.41706 22.8671 5.50095 22.7367 5.87677 22.5958L38.8886 10.0911C40.8261 9.35557 42.6912 8.40239 44.5189 7.5585C42.9083 8.86868 40.8811 10.4655 39.5762 11.7704ZM30.9288 48.5768C30.7514 48.5768 30.6574 48.4258 30.5165 48.0284L25.3648 31.1833L42.177 14.397C43.5025 13.0715 45.1252 11.0237 46.42 9.38194C45.5708 11.2096 44.5971 13.0954 43.8562 15.0793L31.3516 48.0706C31.2106 48.4464 31.1061 48.5768 30.9288 48.5768Z" fill="black"/>
 </g>
</svg>
