<?xml version="1.0" encoding="UTF-8"?>
<!--Generator: Apple Native CoreSVG 341-->
<!DOCTYPE svg
PUBLIC "-//W3C//DTD SVG 1.1//EN"
       "http://www.w3.org/Graphics/SVG/1.1/DTD/svg11.dtd">
<svg version="1.1" xmlns="http://www.w3.org/2000/svg" xmlns:xlink="http://www.w3.org/1999/xlink" viewBox="0 0 49.7996 49.8046">
 <g>
  <rect height="49.8046" opacity="0" width="49.7996" x="0" y="0"/>
  <path d="M24.8867 49.7734C38.6382 49.7734 49.7993 38.6382 49.7993 24.8867C49.7993 11.1352 38.6382 0 24.8867 0C11.1611 0 8.88178e-16 11.1352 8.88178e-16 24.8867C8.88178e-16 38.6382 11.1611 49.7734 24.8867 49.7734ZM24.8867 45.6397C13.4144 45.6397 4.15433 36.3591 4.15433 24.8867C4.15433 13.4144 13.4144 4.13375 24.8867 4.13375C36.359 4.13375 45.6397 13.4144 45.6397 24.8867C45.6397 36.3591 36.359 45.6397 24.8867 45.6397Z" fill="black" fill-opacity="0.5"/>
  <path d="M24.835 32.7295C25.3013 32.7295 25.7158 32.512 26.0733 32.1751L34.3407 23.7735C34.7088 23.3796 34.8751 22.9856 34.8751 22.5189C34.8751 21.6381 34.2118 20.923 33.3152 20.923C32.8642 20.923 32.4444 21.0683 32.1075 21.4104L30.575 22.9741L26.2185 27.8999L26.4619 23.4499L26.4619 12.2466C26.4619 11.3035 25.7781 10.6197 24.835 10.6197C23.8712 10.6197 23.208 11.3035 23.208 12.2466L23.208 23.4499L23.4773 27.9258L19.0479 22.953L17.64 21.4104C17.329 21.0683 16.9609 20.923 16.453 20.923C15.5099 20.923 14.8725 21.5863 14.8725 22.5242C14.8725 22.9234 15.0853 23.4261 15.3857 23.7524L23.6225 32.1751C23.98 32.5379 24.3945 32.7295 24.835 32.7295ZM15.7179 37.8652L34.0297 37.8652C34.9881 37.8652 35.6514 37.1761 35.6514 36.2071C35.6514 35.2745 34.9881 34.5854 34.0297 34.5854L15.7179 34.5854C14.7595 34.5854 14.0962 35.2745 14.0962 36.2071C14.0962 37.1761 14.7595 37.8652 15.7179 37.8652Z" fill="black"/>
 </g>
</svg>
