<?xml version="1.0" encoding="UTF-8"?>
<!--Generator: Apple Native CoreSVG 341-->
<!DOCTYPE svg
PUBLIC "-//W3C//DTD SVG 1.1//EN"
       "http://www.w3.org/Graphics/SVG/1.1/DTD/svg11.dtd">
<svg version="1.1" xmlns="http://www.w3.org/2000/svg" xmlns:xlink="http://www.w3.org/1999/xlink" viewBox="0 0 52.4805 54.0661">
 <g>
  <rect height="54.0661" opacity="0" width="52.4805" x="0" y="0"/>
  <path d="M48.4528 5.68965C42.4846-0.304431 32.0646 0.479138 25.1254 7.4131C21.0872 11.4825 19.4155 16.5076 19.3594 21.4424C19.2728 28.801 18.5495 33.062 11.7872 39.809L14.3439 42.3347C21.0698 35.6087 25.2787 35.0154 32.6477 34.7882C37.6713 34.6229 42.6235 33.0711 46.6982 28.9911C53.6374 22.0261 54.4263 11.6578 48.4528 5.68965ZM45.8521 8.2904C50.6495 13.1032 50.1093 20.4149 44.1027 26.3904C38.0702 32.3917 30.769 32.9784 25.9768 28.1656C21.1535 23.3993 21.7195 16.041 27.7261 10.0397C33.7069 4.0642 41.0599 3.49291 45.8521 8.2904ZM23.3502 30.7663C24.0419 31.5303 24.884 32.1021 25.7366 32.637C23.3387 33.0372 21.087 33.8539 18.6727 35.4751C20.2885 33.0555 21.0794 30.8037 21.4743 28.4264C21.9833 29.2843 22.638 30.0541 23.3502 30.7663ZM0.839609 51.5799L2.45904 53.2305C3.6097 54.3447 5.26301 54.3447 6.40839 53.2305L15.8551 43.7579C16.9746 42.6125 16.9746 40.9539 15.8551 39.8344L14.2304 38.215C13.0903 37.0697 11.4264 37.0697 10.3122 38.215L0.839609 47.6876C-0.27987 48.8018-0.27987 50.4551 0.839609 51.5799ZM21.2543 21.1716L22.4682 22.3855L40.0773 4.77643L38.8687 3.54189ZM22.6101 26.7728L23.8394 27.9815L45.6732 6.17355L44.4957 4.939ZM26.1092 30.2977L27.3697 31.5117L49.2035 9.6779L47.9895 8.41748ZM31.731 31.6484L32.9655 32.8829L50.5694 15.2791L49.3401 14.0704ZM37.0583 4.21444L49.7469 16.903L50.9555 15.6943L38.2616 3.00575ZM31.5312 5.37514L48.7309 22.6006L49.9913 21.3713L32.7711 4.14585ZM27.9663 8.38336L45.6704 26.1392L46.9361 24.9046L29.2062 7.15409ZM24.8664 11.5091L42.5705 29.2391L43.8256 28.0098L26.0751 10.254ZM21.8323 15.074L39.0578 32.2737L40.2665 31.0703L23.041 13.8448ZM20.6294 20.5382L33.423 33.3266L34.6576 32.0714L21.864 19.3037Z" fill="black"/>
 </g>
</svg>
