<?xml version="1.0" encoding="UTF-8"?>
<!--Generator: Apple Native CoreSVG 341-->
<!DOCTYPE svg
PUBLIC "-//W3C//DTD SVG 1.1//EN"
       "http://www.w3.org/Graphics/SVG/1.1/DTD/svg11.dtd">
<svg version="1.1" xmlns="http://www.w3.org/2000/svg" xmlns:xlink="http://www.w3.org/1999/xlink" viewBox="0 0 46.6837 54.7699">
 <g>
  <rect height="54.7699" opacity="0" width="46.6837" x="0" y="0"/>
  <path d="M23.3272 50.5859C36.2228 50.5859 46.6837 40.1509 46.6837 27.2606C46.6837 14.3703 36.2228 3.93526 23.3272 3.93526C10.4422 3.93526 0.00186352 14.3703 0.00186352 27.2606C0.00186352 40.1509 10.4422 50.5859 23.3272 50.5859ZM23.3272 46.4469C12.7472 46.4469 4.17202 37.8717 4.17202 27.2606C4.17202 16.7065 12.7472 8.12602 23.3272 8.12602C33.9072 8.12602 42.4876 16.7065 42.4876 27.2606C42.4876 37.8717 33.9072 46.4469 23.3272 46.4469ZM3.29896 10.2024C3.64163 10.2024 3.91148 10.1401 4.25415 9.87029L12.4547 3.70085C12.8597 3.39459 13.0467 3.03134 13.0467 2.62633C13.0467 2.10728 12.8286 1.68175 12.3872 1.30261C11.4579 0.446174 9.80781 0 8.35421 0C4.52875 0 1.48786 3.04612 1.48786 6.83998C1.48786 7.74236 1.65367 8.66589 1.90289 9.22136C2.16743 9.82332 2.67063 10.2024 3.29896 10.2024ZM43.3813 10.2024C43.9837 10.2024 44.4869 9.7974 44.7826 9.22136C45.0525 8.69175 45.1977 7.74236 45.1977 6.83998C45.1977 3.04612 42.1515 0 38.3055 0C36.8519 0 35.2018 0.446174 34.2725 1.30261C33.8569 1.68175 33.613 2.10728 33.613 2.62633C33.613 3.03134 33.8258 3.39459 34.2308 3.70085L42.4002 9.87029C42.7429 10.1401 43.0127 10.2024 43.3813 10.2024ZM2.92791 49.9164C3.66353 50.6573 4.86012 50.6573 5.6216 49.8905L10.2106 45.2963L7.57918 42.6596L2.95377 47.2797C2.19231 48.0153 2.21291 49.2066 2.92791 49.9164ZM43.7576 49.9164C44.4673 49.2066 44.488 48.0153 43.7317 47.2797L39.0805 42.6596L36.4491 45.2963L41.0586 49.8905C41.8254 50.6573 43.0167 50.6573 43.7576 49.9164Z" fill="black" fill-opacity="0.5"/>
  <path d="M12.24 29.9626L23.3013 29.9626C24.2703 29.9626 25.0112 29.2216 25.0112 28.2527L25.0112 13.488C25.0112 12.5243 24.2703 11.7887 23.3013 11.7887C22.374 11.7887 21.6279 12.5243 21.6279 13.488L21.6279 26.5792L12.24 26.5792C11.2763 26.5792 10.5354 27.3254 10.5354 28.2527C10.5354 29.2216 11.2763 29.9626 12.24 29.9626Z" fill="black"/>
 </g>
</svg>
