<?xml version="1.0" encoding="UTF-8"?>
<!--Generator: Apple Native CoreSVG 341-->
<!DOCTYPE svg
PUBLIC "-//W3C//DTD SVG 1.1//EN"
       "http://www.w3.org/Graphics/SVG/1.1/DTD/svg11.dtd">
<svg version="1.1" xmlns="http://www.w3.org/2000/svg" xmlns:xlink="http://www.w3.org/1999/xlink" viewBox="0 0 41.0626 67.6348">
 <g>
  <rect height="67.6348" opacity="0" width="41.0626" x="0" y="0"/>
  <path d="M41.0626 17.2665L41.0626 54.3073C41.0626 59.4234 38.5249 61.961 33.4812 61.961L7.55572 61.961C2.51733 61.961 0.00025063 59.4234 0.00025063 54.3073L0.00025063 17.2665C0.00025063 12.1763 2.51733 9.60749 7.55572 9.60749L7.89341 9.60749C7.86963 9.81581 7.8589 10.0307 7.8589 10.2502L7.8589 12.8195C7.8589 15.9101 9.98533 18.0777 12.983 18.0777L28.054 18.0777C31.0516 18.0777 33.2039 15.9101 33.2039 12.8195L33.2039 10.2502C33.2039 10.0307 33.1931 9.81582 33.169 9.60749L33.4812 9.60749C38.5249 9.60749 41.0626 12.1763 41.0626 17.2665Z" fill="black" fill-opacity="0.18"/>
  <path d="M12.983 15.2305L28.054 15.2305C29.4855 15.2305 30.3567 14.3386 30.3567 12.8195L30.3567 10.2502C30.3567 8.72569 29.4855 7.83909 28.054 7.83909L25.8233 7.83909C25.6681 5.0733 23.3695 2.84716 20.5314 2.84716C17.6986 2.84716 15.3948 5.0733 15.2136 7.83909L12.983 7.83909C11.5568 7.83909 10.7061 8.72569 10.7061 10.2502L10.7061 12.8195C10.7061 14.3386 11.5568 15.2305 12.983 15.2305ZM20.5314 10.1597C19.3577 10.1597 18.3867 9.1834 18.3867 8.01495C18.3867 6.83596 19.3577 5.89082 20.5314 5.89082C21.7052 5.89082 22.6503 6.83596 22.6503 8.01495C22.6503 9.1834 21.7052 10.1597 20.5314 10.1597Z" fill="black" fill-opacity="0.18"/>
  <path d="M9.42384 30.5779C8.56366 30.5779 7.84336 29.8628 7.84336 29.0026C7.84336 28.1477 8.56366 27.4274 9.42384 27.4274L31.6443 27.4274C32.4992 27.4274 33.2195 28.1477 33.2195 29.0026C33.2195 29.8628 32.4992 30.5779 31.6443 30.5779ZM9.42384 39.5138C8.53775 39.5138 7.84336 38.8247 7.84336 37.9386C7.84336 37.0578 8.53775 36.3634 9.42384 36.3634L31.6443 36.3634C32.5251 36.3634 33.2195 37.0578 33.2195 37.9386C33.2195 38.8247 32.5251 39.5138 31.6443 39.5138ZM9.42384 48.9381C8.56366 48.9381 7.84336 48.192 7.84336 47.337C7.84336 46.4768 8.53775 45.7824 9.42384 45.7824L20.594 45.7824C21.4748 45.7824 22.1692 46.4768 22.1692 47.337C22.1692 48.192 21.4489 48.9381 20.594 48.9381Z" fill="black"/>
 </g>
</svg>
