<?xml version="1.0" encoding="UTF-8"?>
<!--Generator: Apple Native CoreSVG 341-->
<!DOCTYPE svg
PUBLIC "-//W3C//DTD SVG 1.1//EN"
       "http://www.w3.org/Graphics/SVG/1.1/DTD/svg11.dtd">
<svg version="1.1" xmlns="http://www.w3.org/2000/svg" xmlns:xlink="http://www.w3.org/1999/xlink" viewBox="0 0 47.2483 58.693">
 <g>
  <rect height="58.693" opacity="0" width="47.2483" x="0" y="0"/>
  <path d="M16.1603 46.9272C15.2483 46.9272 14.6162 46.3675 14.5645 45.4402L13.8369 18.565C13.811 17.6531 14.4226 17.0727 15.4069 17.0727C16.3135 17.0727 16.9509 17.6272 16.9768 18.5545L17.7302 45.4349C17.7561 46.3363 17.1293 46.9272 16.1603 46.9272ZM23.6263 46.9272C22.6937 46.9272 22.0046 46.3416 22.0046 45.4349L22.0046 18.565C22.0046 17.6584 22.6937 17.0727 23.6263 17.0727C24.59 17.0727 25.248 17.6584 25.248 18.565L25.248 45.4349C25.248 46.3416 24.59 46.9272 23.6263 46.9272ZM31.087 46.9325C30.1233 46.9325 29.4912 46.3416 29.5171 45.4402L30.2964 18.5598C30.2964 17.6325 30.9649 17.078 31.8405 17.078C32.8301 17.078 33.4416 17.6584 33.4157 18.5703L32.6828 45.4455C32.6311 46.3728 32.0302 46.9325 31.087 46.9325ZM12.9229 11.1576L16.7979 11.1576L16.7979 5.95033C16.7979 4.54122 17.77 3.64207 19.2366 3.64207L27.9849 3.64207C29.4309 3.64207 30.4029 4.54122 30.4029 5.95033L30.4029 11.1576L34.3037 11.1576L34.3037 5.69156C34.3037 2.16858 32.0053 0 28.233 0L18.9625 0C15.2214 0 12.9229 2.16858 12.9229 5.69156ZM1.81338 13.0951L45.4392 13.0951C46.4547 13.0951 47.2473 12.2713 47.2473 11.2611C47.2473 10.2403 46.4235 9.4271 45.4392 9.4271L1.81338 9.4271C0.854935 9.4271 8.88178e-16 10.2456 8.88178e-16 11.2611C8.88178e-16 12.2765 0.854935 13.0951 1.81338 13.0951ZM12.4541 54.3453L34.8243 54.3453C38.3151 54.3453 40.6664 52.0927 40.8427 48.5866L42.5365 12.5966L4.71603 12.5966L6.44098 48.6125C6.61735 52.1186 8.91156 54.3453 12.4541 54.3453Z" fill="#ff383c"/>
 </g>
</svg>
