<?xml version="1.0" encoding="UTF-8"?>
<!--Generator: Apple Native CoreSVG 341-->
<!DOCTYPE svg
PUBLIC "-//W3C//DTD SVG 1.1//EN"
       "http://www.w3.org/Graphics/SVG/1.1/DTD/svg11.dtd">
<svg version="1.1" xmlns="http://www.w3.org/2000/svg" xmlns:xlink="http://www.w3.org/1999/xlink" viewBox="0 0 47.0947 57.6816">
 <g>
  <rect height="57.6816" opacity="0" width="47.0947" x="0" y="0"/>
  <path d="M42.6264 41.3299L34.7931 40.8536L2.19626 40.8536C0.9273 40.8536 0 41.7703 0 43.0498C0 44.3241 0.9273 45.2408 2.19626 45.2408L34.7931 45.2408L42.6264 44.718C43.709 44.6144 44.2946 43.8218 44.2946 43.0239C44.2946 42.1949 43.709 41.4022 42.6264 41.3299ZM30.6318 53.9983C30.2326 54.4181 30.015 54.8897 30.015 55.5165C30.015 56.7855 30.8853 57.6816 32.1854 57.6816C32.7193 57.6816 33.3614 57.4123 33.7812 56.9925L46.3663 44.6763C47.3089 43.7801 47.34 42.3454 46.3663 41.3975L33.7812 29.1018C33.3614 28.6614 32.7193 28.4127 32.1854 28.4127C30.8853 28.4127 30.015 29.3089 30.015 30.5778C30.015 31.2047 30.2326 31.6762 30.6318 32.1013L35.8953 37.1578L42.7759 43.0498L35.8953 48.9107Z" fill="black" fill-opacity="0.5"/>
  <path d="M4.46489 12.9325C3.3823 13.0101 2.77081 13.8027 2.77081 14.6266C2.77081 15.4297 3.3823 16.2223 4.46489 16.3206L12.2982 16.8487L44.8951 16.8487C46.164 16.8487 47.0913 15.9319 47.0913 14.6524C47.0913 13.3782 46.164 12.4614 44.8951 12.4614L12.2982 12.4614ZM16.4648 25.601L11.2013 20.5186L4.32069 14.6524L11.2013 8.79153L16.4648 3.70387C16.864 3.28407 17.0816 2.81251 17.0816 2.18571C17.0816 0.916751 16.2061 0.0205838 14.9112 0.0205838C14.3721 0.0205838 13.7352 0.289913 13.3154 0.709703L0.730341 13.0259C-0.24344 13.9533-0.212287 15.388 0.730341 16.2789L13.3154 28.6004C13.7352 29.0149 14.3721 29.2895 14.9112 29.2895C16.2061 29.2895 17.0816 28.3934 17.0816 27.1244C17.0816 26.4976 16.864 26.026 16.4648 25.601Z" fill="black"/>
 </g>
</svg>
