<?xml version="1.0" encoding="UTF-8"?>
<!--Generator: Apple Native CoreSVG 341-->
<!DOCTYPE svg
PUBLIC "-//W3C//DTD SVG 1.1//EN"
       "http://www.w3.org/Graphics/SVG/1.1/DTD/svg11.dtd">
<svg version="1.1" xmlns="http://www.w3.org/2000/svg" xmlns:xlink="http://www.w3.org/1999/xlink" viewBox="0 0 42.0548 43.0611">
 <g>
  <rect height="43.0611" opacity="0" width="42.0548" x="0" y="0"/>
  <path d="M15.9204 43.0611C16.9666 43.0611 17.7899 42.6054 18.3803 41.6992L41.4332 5.40596C41.8942 4.69626 42.0548 4.13702 42.0548 3.57777C42.0548 2.25177 41.1793 1.35037 39.8274 1.35037C38.8589 1.35037 38.315 1.67674 37.7299 2.61404L15.8117 37.5285L4.43955 22.6322C3.8233 21.7983 3.22765 21.4461 2.33147 21.4461C0.974333 21.4461 0.000575149 22.394 0.000575149 23.7459C0.000575149 24.3157 0.244032 24.9372 0.710331 25.5329L13.3672 41.6474C14.1234 42.6159 14.869 43.0611 15.9204 43.0611Z" fill="black"/>
 </g>
</svg>
