<?xml version="1.0" encoding="UTF-8"?>
<!--Generator: Apple Native CoreSVG 341-->
<!DOCTYPE svg
PUBLIC "-//W3C//DTD SVG 1.1//EN"
       "http://www.w3.org/Graphics/SVG/1.1/DTD/svg11.dtd">
<svg version="1.1" xmlns="http://www.w3.org/2000/svg" xmlns:xlink="http://www.w3.org/1999/xlink" viewBox="0 0 49.7996 49.8046">
 <g>
  <rect height="49.8046" opacity="0" width="49.7996" x="0" y="0"/>
  <path d="M24.8867 49.7734C38.6277 49.7734 49.7993 38.6018 49.7993 24.8867C49.7993 11.1716 38.6277 0 24.8867 0C11.1716 0 8.88178e-16 11.1716 8.88178e-16 24.8867C8.88178e-16 38.6018 11.1716 49.7734 24.8867 49.7734Z" fill="black" fill-opacity="0.18"/>
  <path d="M35.6421 26.8759C36.704 26.8759 37.6001 25.9487 37.6001 24.8609C37.6001 23.773 36.704 22.8457 35.6421 22.8457L21.1181 22.851L16.5171 23.0321C15.5068 23.0839 14.7142 23.8818 14.7142 24.8609C14.7142 25.8657 15.5068 26.6378 16.5171 26.6896L21.1181 26.8707ZM22.2076 35.2195C23.2384 35.2195 23.9845 34.4528 23.9845 33.4219C23.9845 32.9039 23.7876 32.3547 23.3783 32.0284L19.2939 28.1821L15.7762 24.8609L15.7762 24.8609L19.2939 21.5449L23.3783 17.6986C23.7876 17.3722 23.9845 16.8489 23.9845 16.3309C23.9845 15.3054 23.2384 14.5074 22.2076 14.5074C21.6637 14.5074 21.2597 14.725 20.8763 15.1084L12.8898 23.3949C12.3823 23.9077 12.2165 24.3428 12.2165 24.8609C12.2165 25.3789 12.3823 25.814 12.8898 26.3268L20.8763 34.6186C21.2597 35.002 21.6637 35.2195 22.2076 35.2195Z" fill="black"/>
 </g>
</svg>
