<?xml version="1.0" encoding="UTF-8"?>
<!--Generator: Apple Native CoreSVG 341-->
<!DOCTYPE svg
PUBLIC "-//W3C//DTD SVG 1.1//EN"
       "http://www.w3.org/Graphics/SVG/1.1/DTD/svg11.dtd">
<svg version="1.1" xmlns="http://www.w3.org/2000/svg" xmlns:xlink="http://www.w3.org/1999/xlink" viewBox="0 0 40.5602 48.0505">
 <g>
  <rect height="48.0505" opacity="0" width="40.5602" x="0" y="0"/>
  <path d="M2.35252 47.4332L21.2168 47.4332C22.4339 47.4332 23.2007 46.6665 23.2007 45.4958C23.2007 44.3303 22.4339 43.5841 21.2168 43.5841L5.73436 43.5841L5.73436 43.0767L22.1593 18.8346C22.7656 17.928 23.0919 17.3476 23.0919 16.3322C23.0919 14.5864 21.8953 13.892 20.5224 13.892L1.98925 13.892C0.823808 13.892 0 14.7157 0 15.8295C0 16.9743 0.823808 17.7669 1.98925 17.7669L17.5181 17.7669L17.5181 18.3056L0.71503 43.0038C0.248733 43.6824 0.00527554 44.2886 0.00527554 45.1071C0.00527554 46.4695 0.953172 47.4332 2.35252 47.4332ZM33.2936 48.0246C34.6713 48.0246 35.6298 46.968 35.6298 45.5385L35.6298 2.46033C35.6298 1.03082 34.6713 0 33.2936 0C31.9158 0 30.9626 1.03082 30.9626 2.46033L30.9626 45.5385C30.9626 46.968 31.9158 48.0246 33.2936 48.0246Z" fill="black"/>
 </g>
</svg>
