<?xml version="1.0" encoding="UTF-8"?>
<!--Generator: Apple Native CoreSVG 341-->
<!DOCTYPE svg
PUBLIC "-//W3C//DTD SVG 1.1//EN"
       "http://www.w3.org/Graphics/SVG/1.1/DTD/svg11.dtd">
<svg version="1.1" xmlns="http://www.w3.org/2000/svg" xmlns:xlink="http://www.w3.org/1999/xlink" viewBox="0 0 41.0626 52.343">
 <g>
  <rect height="52.343" opacity="0" width="41.0626" x="0" y="0"/>
  <path d="M18.7688 17.9096C18.7688 21.0376 20.2578 22.5319 23.3859 22.5319L41.0626 22.5319L41.0626 44.674C41.0626 49.7641 38.5249 52.3329 33.4812 52.3329L7.55572 52.3329C2.51733 52.3329 0.00025063 49.79 0.00025063 44.674L0.00025063 7.65898C0.00025063 2.56882 2.52789 0 7.55572 0L18.7688 0ZM10.9762 39.1871C10.0072 39.1871 9.31278 39.9021 9.31278 40.7882C9.31278 41.6949 10.0072 42.3893 10.9762 42.3893L30.1494 42.3893C31.0873 42.3893 31.8076 41.6949 31.8076 40.7882C31.8076 39.9021 31.0873 39.1871 30.1494 39.1871ZM10.9762 29.9575C10.0072 29.9575 9.31278 30.6519 9.31278 31.5586C9.31278 32.4447 10.0072 33.1391 10.9762 33.1391L30.1494 33.1391C31.0873 33.1391 31.8076 32.4447 31.8076 31.5586C31.8076 30.6519 31.0873 29.9575 30.1494 29.9575ZM25.2839 2.31761L38.7503 16.0168C39.9004 17.1928 40.6212 18.1618 40.7611 19.1931L23.4334 19.1931C22.5701 19.1931 22.1076 18.7565 22.1076 17.8621L22.1076 0.254989C23.1284 0.4261 24.1544 1.16219 25.2839 2.31761Z" fill="black"/>
 </g>
</svg>
