<?xml version="1.0" encoding="UTF-8"?>
<!--Generator: Apple Native CoreSVG 341-->
<!DOCTYPE svg
PUBLIC "-//W3C//DTD SVG 1.1//EN"
       "http://www.w3.org/Graphics/SVG/1.1/DTD/svg11.dtd">
<svg version="1.1" xmlns="http://www.w3.org/2000/svg" xmlns:xlink="http://www.w3.org/1999/xlink" viewBox="0 0 28.6254 44.8931">
 <g>
  <rect height="44.8931" opacity="0" width="28.6254" x="0" y="0"/>
  <path d="M4.00067 44.8619L24.626 44.8619C27.1105 44.8619 28.6254 43.4764 28.6254 40.8626L28.6254 40.3732C28.6254 34.4932 22.3796 28.2243 18.9805 24.8563C17.3118 23.1877 17.4153 21.4825 18.9805 19.9433C22.3796 16.5754 28.6254 10.3376 28.6254 4.42643L28.6254 3.99931C28.6254 1.38553 27.1105-7.10543e-15 24.626-7.10543e-15L4.00067-7.10543e-15C1.5163-7.10543e-15 0.0013695 1.38553 0.0013695 3.99931L0.0013695 4.42643C0.0013695 10.3376 6.24717 16.5754 9.64625 19.9433C11.1856 21.4825 11.3149 23.1877 9.64625 24.8563C6.24717 28.2243 0.0013695 34.4932 0.0013695 40.3732L0.0013695 40.8626C0.0013695 43.4764 1.5163 44.8619 4.00067 44.8619ZM5.8525 41.549C4.80011 41.549 4.56622 40.3307 5.27696 39.6718L13.0733 32.2578C13.3642 31.9874 13.473 31.8628 13.473 31.4785L13.473 20.6684C13.473 19.5335 13.2607 18.969 12.4264 18.2693C10.7887 16.8444 8.48233 14.8845 6.98079 13.2885C6.35343 12.6454 6.69564 11.8834 7.44755 11.8834L21.1792 11.8834C21.9311 11.8834 22.268 12.6454 21.6201 13.2885C20.1391 14.8845 17.8381 16.8444 16.1745 18.2693C15.366 18.969 15.1537 19.5335 15.1537 20.6684L15.1537 31.4785C15.1537 31.8628 15.2625 31.9874 15.5535 32.2578L23.3498 39.6718C24.0347 40.3307 23.8008 41.549 22.7483 41.549Z" fill="black"/>
  <path d="M5.8525 41.549C4.80011 41.549 4.56622 40.3307 5.27696 39.6718L13.0733 32.2578C13.3642 31.9874 13.473 31.8628 13.473 31.4785L13.473 20.6684C13.473 19.5335 13.2607 18.969 12.4264 18.2693C10.7887 16.8444 8.48233 14.8845 6.98079 13.2885C6.35343 12.6454 6.69564 11.8834 7.44755 11.8834L21.1792 11.8834C21.9311 11.8834 22.268 12.6454 21.6201 13.2885C20.1391 14.8845 17.8381 16.8444 16.1745 18.2693C15.366 18.969 15.1537 19.5335 15.1537 20.6684L15.1537 31.4785C15.1537 31.8628 15.2625 31.9874 15.5535 32.2578L23.3498 39.6718C24.0347 40.3307 23.8008 41.549 22.7483 41.549Z" fill="black" fill-opacity="0.18"/>
 </g>
</svg>
