<?xml version="1.0" encoding="UTF-8"?>
<!--Generator: Apple Native CoreSVG 341-->
<!DOCTYPE svg
PUBLIC "-//W3C//DTD SVG 1.1//EN"
       "http://www.w3.org/Graphics/SVG/1.1/DTD/svg11.dtd">
<svg version="1.1" xmlns="http://www.w3.org/2000/svg" xmlns:xlink="http://www.w3.org/1999/xlink" viewBox="0 0 49.7996 49.8046">
 <g>
  <rect height="49.8046" opacity="0" width="49.7996" x="0" y="0"/>
  <path d="M24.8867 49.7734C38.6382 49.7734 49.7993 38.6382 49.7993 24.8867C49.7993 11.1352 38.6382 0 24.8867 0C11.1611 0 8.88178e-16 11.1352 8.88178e-16 24.8867C8.88178e-16 38.6382 11.1611 49.7734 24.8867 49.7734ZM24.8867 45.6397C13.4144 45.6397 4.15433 36.3591 4.15433 24.8867C4.15433 13.4144 13.4144 4.13375 24.8867 4.13375C36.359 4.13375 45.6397 13.4144 45.6397 24.8867C45.6397 36.3591 36.359 45.6397 24.8867 45.6397Z" fill="black" fill-opacity="0.5"/>
  <path d="M12.1198 27.5116L24.8608 27.5116C25.8246 27.5116 26.5707 26.7707 26.5707 25.8276L26.5707 9.38317C26.5707 8.41943 25.8246 7.68387 24.8608 7.68387C23.9335 7.68387 23.1874 8.41943 23.1874 9.38317L23.1874 24.1282L12.1198 24.1282C11.1508 24.1282 10.4411 24.8744 10.4411 25.8276C10.4411 26.7707 11.1508 27.5116 12.1198 27.5116Z" fill="black"/>
 </g>
</svg>
