<?xml version="1.0" encoding="UTF-8"?>
<!--Generator: Apple Native CoreSVG 341-->
<!DOCTYPE svg
PUBLIC "-//W3C//DTD SVG 1.1//EN"
       "http://www.w3.org/Graphics/SVG/1.1/DTD/svg11.dtd">
<svg version="1.1" xmlns="http://www.w3.org/2000/svg" xmlns:xlink="http://www.w3.org/1999/xlink" viewBox="0 0 49.1773 35.6835">
 <g>
  <rect height="35.6835" opacity="0" width="49.1773" x="0" y="0"/>
  <path d="M13.853 34.5696L47.188 34.5696C48.2812 34.5696 49.1773 33.7046 49.1773 32.6115C49.1773 31.4873 48.2812 30.6481 47.188 30.6481L13.853 30.6481C12.7546 30.6481 11.8897 31.4873 11.8897 32.6115C11.8897 33.7046 12.7546 34.5696 13.853 34.5696Z" fill="black" fill-opacity="0.5"/>
  <path d="M3.07834 35.6835C4.76485 35.6835 6.15039 34.298 6.15039 32.6115C6.15039 30.8938 4.76485 29.5342 3.07834 29.5342C1.38655 29.5342 0.00102727 30.8938 0.00102727 32.6115C0.00102727 34.298 1.38655 35.6835 3.07834 35.6835Z" fill="black"/>
  <path d="M13.853 19.8154L47.188 19.8154C48.2812 19.8154 49.1773 18.9451 49.1773 17.8521C49.1773 16.759 48.2812 15.8887 47.188 15.8887L13.853 15.8887C12.7546 15.8887 11.8897 16.759 11.8897 17.8521C11.8897 18.9451 12.7546 19.8154 13.853 19.8154Z" fill="black" fill-opacity="0.5"/>
  <path d="M3.07834 20.9294C4.76485 20.9294 6.15039 19.5438 6.15039 17.8521C6.15039 16.1603 4.76485 14.7748 3.07834 14.7748C1.38655 14.7748 0.00102727 16.1603 0.00102727 17.8521C0.00102727 19.5438 1.38655 20.9294 3.07834 20.9294Z" fill="black"/>
  <path d="M13.853 5.05598L47.188 5.05598C48.2812 5.05598 49.1773 4.19099 49.1773 3.09263C49.1773 1.99953 48.2812 1.13455 47.188 1.13455L13.853 1.13455C12.7546 1.13455 11.8897 1.99953 11.8897 3.09263C11.8897 4.19099 12.7546 5.05598 13.853 5.05598Z" fill="black" fill-opacity="0.5"/>
  <path d="M3.07834 6.16995C4.76485 6.16995 6.15039 4.78442 6.15039 3.09263C6.15039 1.40611 4.76485 0.0205821 3.07834 0.0205821C1.38655 0.0205821 0.00102727 1.40611 0.00102727 3.09263C0.00102727 4.78442 1.38655 6.16995 3.07834 6.16995Z" fill="black"/>
 </g>
</svg>
