<?xml version="1.0" encoding="UTF-8"?>
<!--Generator: Apple Native CoreSVG 341-->
<!DOCTYPE svg
PUBLIC "-//W3C//DTD SVG 1.1//EN"
       "http://www.w3.org/Graphics/SVG/1.1/DTD/svg11.dtd">
<svg version="1.1" xmlns="http://www.w3.org/2000/svg" xmlns:xlink="http://www.w3.org/1999/xlink" viewBox="0 0 45.0086 44.9745">
 <g>
  <rect height="44.9745" opacity="0" width="45.0086" x="0" y="0"/>
  <path d="M13.2881 44.9745L31.7233 44.9745C36.0018 44.9745 39.3451 43.7289 41.5411 41.5329C43.8147 39.311 45.0086 35.9624 45.0086 31.6893L45.0086 13.2852C45.0086 9.01206 43.82 5.66874 41.5411 3.44161C39.3139 1.21448 36.0018 0 31.7233 0L13.2881 0C9.00971 0 5.64052 1.24562 3.44452 3.44161C1.19676 5.66346 0.00292336 9.01206 0.00292336 13.2852L0.00292336 31.6893C0.00292336 35.9624 1.19148 39.3058 3.44452 41.5329C5.65107 43.7394 9.00971 44.9745 13.2881 44.9745ZM13.2881 41.0478C10.2428 41.0478 7.88375 40.1855 6.33519 38.6681C4.76599 37.0937 3.92967 34.7605 3.92967 31.6893L3.92967 13.2852C3.92967 10.214 4.76599 7.88084 6.33519 6.30637C7.85784 4.81485 10.2428 3.92676 13.2881 3.92676L31.7233 3.92676C34.7428 3.92676 37.1224 4.78894 38.671 6.30637C40.2455 7.88084 41.0818 10.214 41.0818 13.2852L41.0818 31.6893C41.0818 34.7605 40.2455 37.0937 38.671 38.6681C37.1483 40.1597 34.7428 41.0478 31.7233 41.0478Z" fill="black" fill-opacity="0.5"/>
  <path d="M27.1665 15.5724L22.6559 19.7878L13.6585 28.7594C13.301 29.1169 13.0781 29.5832 13.0781 30.0859C13.0781 31.179 13.7932 31.894 14.8604 31.894C15.446 31.894 15.9122 31.6711 16.2386 31.3395L25.2308 22.3474L29.4203 17.8626C31.2284 15.9511 28.9952 13.8784 27.1665 15.5724ZM28.3741 22.4061L28.3741 26.628C28.3741 27.7781 29.0892 28.519 30.1823 28.519C31.2495 28.519 31.9592 27.7005 31.9592 26.5762L31.9592 15.0745C31.9592 13.6191 31.1719 13.0594 29.9288 13.0594L18.3441 13.0594C17.2199 13.0594 16.479 13.7691 16.479 14.8311C16.479 15.9036 17.2458 16.6133 18.3959 16.6133L22.8388 16.6133L29.0728 15.894Z" fill="black"/>
 </g>
</svg>
