<?xml version="1.0" encoding="UTF-8"?>
<!--Generator: Apple Native CoreSVG 341-->
<!DOCTYPE svg
PUBLIC "-//W3C//DTD SVG 1.1//EN"
       "http://www.w3.org/Graphics/SVG/1.1/DTD/svg11.dtd">
<svg version="1.1" xmlns="http://www.w3.org/2000/svg" xmlns:xlink="http://www.w3.org/1999/xlink" viewBox="0 0 49.7996 49.8046">
 <g>
  <rect height="49.8046" opacity="0" width="49.7996" x="0" y="0"/>
  <path d="M24.8867 49.7734C38.6277 49.7734 49.7993 38.6018 49.7993 24.8867C49.7993 11.1716 38.6277 0 24.8867 0C11.1716 0 8.88178e-16 11.1716 8.88178e-16 24.8867C8.88178e-16 38.6018 11.1716 49.7734 24.8867 49.7734Z" fill="black" fill-opacity="0.18"/>
  <path d="M29.745 36.9522C29.1076 37.5896 27.8333 37.5484 27.1596 36.9005L16.9846 27.3005C15.6116 26.0311 15.6063 23.8042 16.9846 22.5035L27.1596 12.9295C27.911 12.2298 29.0247 12.1886 29.7191 12.8518C30.4859 13.5616 30.5065 14.7688 29.7656 15.4837L19.7463 24.902L29.7656 34.3462C30.4859 35.0354 30.5012 36.2114 29.745 36.9522Z" fill="black"/>
 </g>
</svg>
