<?xml version="1.0" encoding="UTF-8"?>
<!--Generator: Apple Native CoreSVG 341-->
<!DOCTYPE svg
PUBLIC "-//W3C//DTD SVG 1.1//EN"
       "http://www.w3.org/Graphics/SVG/1.1/DTD/svg11.dtd">
<svg version="1.1" xmlns="http://www.w3.org/2000/svg" xmlns:xlink="http://www.w3.org/1999/xlink" viewBox="0 0 49.7996 59.7054">
 <g>
  <rect height="59.7054" opacity="0" width="49.7996" x="0" y="0"/>
  <path d="M24.8867 54.7239C38.4983 54.7239 49.7993 43.4487 49.7993 29.8371C49.7993 16.2256 38.4724 4.95043 24.8608 4.95043C11.2699 4.95043 8.88178e-16 16.2256 8.88178e-16 29.8371C8.88178e-16 43.4487 11.2958 54.7239 24.8867 54.7239ZM22.2543 6.25832L27.4932 6.25832L27.4932 2.71526C27.4932 1.21769 26.3325 0 24.8608 0C23.4409 0 22.2543 1.21769 22.2543 2.71526ZM40.1006 11.7384L43.7073 15.485L46.4278 12.7333C46.9823 12.1788 47.3139 11.4326 47.3139 10.7588C47.3139 9.38059 46.205 8.27168 44.7903 8.27168C43.9612 8.27168 43.3756 8.51509 42.7952 9.07486Z" fill="black" fill-opacity="0.18"/>
  <path d="M24.8867 33.8043C22.6932 33.8043 20.9612 32.0153 20.9612 29.8683C20.9612 28.328 21.8431 27.0005 23.1874 26.3157L23.1874 14.2128C23.1874 13.2543 23.9335 12.5134 24.8608 12.5134C25.8246 12.5134 26.5707 13.2543 26.5707 14.2128L26.5707 26.3262C27.9409 26.9852 28.8122 28.3127 28.8122 29.8683C28.8122 32.0206 27.0802 33.8043 24.8867 33.8043Z" fill="black"/>
 </g>
</svg>
