<?xml version="1.0" encoding="UTF-8"?>
<!--Generator: Apple Native CoreSVG 341-->
<!DOCTYPE svg
PUBLIC "-//W3C//DTD SVG 1.1//EN"
       "http://www.w3.org/Graphics/SVG/1.1/DTD/svg11.dtd">
<svg version="1.1" xmlns="http://www.w3.org/2000/svg" xmlns:xlink="http://www.w3.org/1999/xlink" viewBox="0 0 54.7138 49.4061">
 <g>
  <rect height="49.4061" opacity="0" width="54.7138" x="0" y="0"/>
  <path d="M28.4475 40.8214L52.7245 40.8214C53.8229 40.8214 54.7138 39.9564 54.7138 38.858C54.7138 37.7649 53.8229 36.8999 52.7245 36.8999L28.4475 36.8999C27.3544 36.8999 26.4842 37.7649 26.4842 38.858C26.4842 39.9564 27.3544 40.8214 28.4475 40.8214Z" fill="black" fill-opacity="0.5"/>
  <path d="M10.54 49.4061C16.2657 49.4061 21.031 44.5943 21.031 38.858C21.031 33.1064 16.2657 28.3205 10.54 28.3205C4.75718 28.3205 0.00241886 33.1116 0.00241886 38.858C0.00241886 44.5891 4.78305 49.4061 10.54 49.4061ZM10.54 45.8417C6.73637 45.8417 3.56689 42.6357 3.56689 38.858C3.56689 35.0856 6.7675 31.8797 10.54 31.8797C14.2918 31.8797 17.4718 35.0909 17.4718 38.858C17.4718 42.6357 14.2918 45.8417 10.54 45.8417Z" fill="black"/>
  <path d="M28.4475 12.5943L52.7245 12.5943C53.8229 12.5943 54.7138 11.7294 54.7138 10.6363C54.7138 9.53791 53.8229 8.67292 52.7245 8.67292L28.4475 8.67292C27.3544 8.67292 26.4842 9.53791 26.4842 10.6363C26.4842 11.7294 27.3544 12.5943 28.4475 12.5943Z" fill="black" fill-opacity="0.5"/>
  <path d="M10.54 21.1532C16.2657 21.1532 21.031 16.3414 21.031 10.6104C21.031 4.85349 16.2657 0.0934263 10.54 0.0934263C4.75718 0.0934263 0.00241886 4.85876 0.00241886 10.6104C0.00241886 16.3361 4.78305 21.1532 10.54 21.1532ZM9.27854 16.2801C8.77055 16.2801 8.43367 15.995 8.0656 15.601L5.30107 12.2969C5.09888 12.017 5.00541 11.7319 5.00541 11.3221C5.00541 10.6325 5.5345 10.0723 6.20877 10.0723C6.66503 10.0723 6.99188 10.2539 7.32348 10.6943L9.22153 13.1008L13.5805 6.1292C13.8451 5.66772 14.229 5.42907 14.6852 5.42907C15.3595 5.42907 15.9404 5.96343 15.9404 6.59602C15.9404 6.91759 15.8469 7.20801 15.6135 7.58131L10.5385 15.5905C10.2481 16.0261 9.80234 16.2801 9.27854 16.2801Z" fill="black"/>
 </g>
</svg>
