<?xml version="1.0" encoding="UTF-8"?>
<!--Generator: Apple Native CoreSVG 341-->
<!DOCTYPE svg
PUBLIC "-//W3C//DTD SVG 1.1//EN"
       "http://www.w3.org/Graphics/SVG/1.1/DTD/svg11.dtd">
<svg version="1.1" xmlns="http://www.w3.org/2000/svg" xmlns:xlink="http://www.w3.org/1999/xlink" viewBox="0 0 49.7996 49.8046">
 <g>
  <rect height="49.8046" opacity="0" width="49.7996" x="0" y="0"/>
  <path d="M24.8867 49.7734C38.6277 49.7734 49.7993 38.6018 49.7993 24.8867C49.7993 11.1716 38.6277 0 24.8867 0C11.1716 0 8.88178e-16 11.1716 8.88178e-16 24.8867C8.88178e-16 38.6018 11.1716 49.7734 24.8867 49.7734Z" fill="black" fill-opacity="0.18"/>
  <path d="M14.1798 26.8759L28.6985 26.8707L33.3048 26.6896C34.2839 26.6378 35.1077 25.8657 35.1077 24.8609C35.1077 23.8818 34.2839 23.0839 33.3048 23.0321L28.6985 22.851L14.1798 22.8457C13.0868 22.8457 12.2165 23.773 12.2165 24.8609C12.2165 25.9487 13.0868 26.8759 14.1798 26.8759ZM27.609 35.2195C28.153 35.2195 28.5622 35.002 28.9456 34.6186L36.9268 26.3268C37.4396 25.814 37.6001 25.3789 37.6001 24.8609C37.6001 24.3428 37.4396 23.9077 36.9268 23.3949L28.9456 15.1084C28.5622 14.725 28.153 14.5074 27.609 14.5074C26.5782 14.5074 25.8321 15.3054 25.8321 16.3309C25.8321 16.8489 26.0291 17.3722 26.4383 17.6986L30.5228 21.5449L34.0405 24.8609L34.0405 24.8609L30.5228 28.1821L26.4383 32.0284C26.0291 32.3547 25.8321 32.9039 25.8321 33.4219C25.8321 34.4528 26.5782 35.2195 27.609 35.2195Z" fill="black"/>
 </g>
</svg>
