<?xml version="1.0" encoding="UTF-8"?>
<!--Generator: Apple Native CoreSVG 341-->
<!DOCTYPE svg
PUBLIC "-//W3C//DTD SVG 1.1//EN"
       "http://www.w3.org/Graphics/SVG/1.1/DTD/svg11.dtd">
<svg version="1.1" xmlns="http://www.w3.org/2000/svg" xmlns:xlink="http://www.w3.org/1999/xlink" viewBox="0 0 73.352 62.5389">
 <g>
  <rect height="62.5389" opacity="0" width="73.352" x="0" y="0"/>
  <path d="M3.5121 33.5119L6.56727 36.5557L9.62244 33.5119C10.2546 32.9056 11.2235 32.8798 11.8609 33.5119C12.493 34.1493 12.493 35.113 11.8609 35.7503L8.80992 38.79L11.8609 41.8296C12.493 42.4411 12.493 43.4307 11.8609 44.0681C11.2235 44.7054 10.2546 44.7054 9.62244 44.0681L6.56727 41.0243L3.5121 44.0681C2.8747 44.6795 1.90571 44.7054 1.27363 44.0681C0.636231 43.4307 0.636231 42.4669 1.27363 41.8296L4.32462 38.79L1.27363 35.7503C0.636231 35.1388 0.636231 34.1493 1.27363 33.5119C1.90571 32.8798 2.8747 32.8798 3.5121 33.5119Z" fill="black" fill-opacity="0.5"/>
  <path d="M17.8872 53.5793L1.96849 53.5793C0.901314 53.5793 0.00514928 52.7038 0.00514928 51.6159C0.00514928 50.5487 0.901314 49.6526 1.96849 49.6526L19.1034 49.6526C18.5035 51.009 18.0922 52.3338 17.8872 53.5793ZM32.6225 53.5793L21.6271 53.5793C21.8364 52.3782 22.3044 51.0432 23.0197 49.6526L34.6466 49.6526C34.0537 51.1164 33.3777 52.4412 32.6225 53.5793ZM73.352 51.6159C73.352 52.7038 72.4507 53.5793 71.389 53.5793L36.8854 53.5793C37.5416 52.3823 38.12 51.0649 38.6225 49.6526L71.389 49.6526C72.4507 49.6526 73.352 50.5487 73.352 51.6159Z" fill="black" fill-opacity="0.5"/>
  <path d="M24.4542 62.5389C34.5446 62.5389 41.1843 49.7742 41.1843 33.6187C41.1843 19.8594 34.9501 8.79325 25.1708 8.79325C18.9269 8.79325 14.0739 14.103 14.0739 20.9181C14.0739 31.0135 22.36 39.2161 31.017 43.2895C31.3228 43.4553 31.6286 43.5123 31.9343 43.5123C32.9033 43.5123 33.613 42.7403 33.613 41.8906C33.613 41.305 33.3332 40.6988 32.6335 40.3619C27.0098 37.6472 17.7889 30.7697 17.7889 20.9181C17.7889 16.1756 21.0149 12.5082 25.1708 12.5082C32.681 12.5082 37.4694 22.0428 37.4694 33.6187C37.4694 47.4202 32.0584 58.8239 24.8999 58.8239C22.5351 58.8239 21.4749 57.2859 21.4749 55.063C21.4749 48.263 31.7801 35.0002 45.9579 35.0002C46.8073 35.0002 47.302 35.3745 47.302 36.0044C47.302 38.1217 46.1378 39.7758 46.1378 41.8941C46.1378 43.7412 47.5175 44.8813 49.306 44.8813C54.2515 44.8813 60.221 36.4164 62.2011 36.4164C64.0211 36.4164 61.7798 44.0344 67.9076 44.0344C68.9298 44.0344 70.226 43.7645 71.2178 43.1109C71.8086 42.6963 72.2181 42.1107 72.2181 41.3545C72.2181 40.4425 71.6115 39.6911 70.6737 39.6911C69.7923 39.6911 69.1013 40.3817 68.2802 40.3817C65.6197 40.3817 68.1407 32.2874 63.2832 32.2874C59.033 32.2874 52.4107 40.5247 50.7039 40.5247C50.5006 40.5247 50.3185 40.4101 50.3185 40.134C50.3185 39.2271 51.4103 37.2424 51.4103 35.2851C51.4103 32.8308 49.3927 31.2852 46.2325 31.2852C29.9302 31.2852 17.6565 46.5901 17.6565 55.7723C17.6565 59.7213 19.863 62.5389 24.4542 62.5389Z" fill="black"/>
 </g>
</svg>
