<?xml version="1.0" encoding="UTF-8"?>
<!--Generator: Apple Native CoreSVG 341-->
<!DOCTYPE svg
PUBLIC "-//W3C//DTD SVG 1.1//EN"
       "http://www.w3.org/Graphics/SVG/1.1/DTD/svg11.dtd">
<svg version="1.1" xmlns="http://www.w3.org/2000/svg" xmlns:xlink="http://www.w3.org/1999/xlink" viewBox="0 0 48.4764 46.3">
 <g>
  <rect height="46.3" opacity="0" width="48.4764" x="0" y="0"/>
  <path d="M0 16.2186C0 26.6368 8.70357 36.8422 22.4747 45.6262C22.9826 45.9631 23.7446 46.3 24.2373 46.3C24.7559 46.3 25.4867 45.9631 25.9999 45.6262C39.7657 36.8422 48.4746 26.6368 48.4746 16.2186C48.4746 7.6077 42.5418 1.48276 34.6417 1.48276C30.0997 1.48276 26.4428 3.63855 24.2373 6.94267C22.0576 3.66441 18.3749 1.48276 13.8329 1.48276C5.93278 1.48276 0 7.6077 0 16.2186ZM3.92674 16.2186C3.92674 9.7522 8.13433 5.40946 13.807 5.40946C18.3859 5.40946 20.9942 8.27503 22.5839 10.7084C23.2419 11.6879 23.667 11.9783 24.2373 11.9783C24.8335 11.9783 25.1756 11.662 25.8906 10.7084C27.5786 8.32675 30.1145 5.40946 34.6934 5.40946C40.3609 5.40946 44.5478 9.7522 44.5478 16.2186C44.5478 25.295 34.9482 35.1017 24.7506 41.8863C24.5018 42.0522 24.3307 42.1662 24.2373 42.1662C24.1439 42.1662 23.9727 42.0522 23.7499 41.8863C13.5265 35.1017 3.92674 25.295 3.92674 16.2186Z" fill="black"/>
 </g>
</svg>
