<?xml version="1.0" encoding="UTF-8"?>
<!--Generator: Apple Native CoreSVG 341-->
<!DOCTYPE svg
PUBLIC "-//W3C//DTD SVG 1.1//EN"
       "http://www.w3.org/Graphics/SVG/1.1/DTD/svg11.dtd">
<svg version="1.1" xmlns="http://www.w3.org/2000/svg" xmlns:xlink="http://www.w3.org/1999/xlink" viewBox="0 0 40.5862 50.5945">
 <g>
  <rect height="50.5945" opacity="0" width="40.5862" x="0" y="0"/>
  <path d="M20.291 50.5945C20.6706 50.5945 21.2937 50.4382 21.9315 50.0855C35.7923 42.3376 40.582 39.0384 40.582 30.1339L40.582 11.454C40.582 8.87316 39.462 8.07325 37.4092 7.20573C34.5272 5.99933 25.2075 2.66048 22.3202 1.65638C21.6713 1.43831 20.9864 1.28252 20.291 1.28252C19.5956 1.28252 18.8849 1.49003 18.2618 1.65638C15.3798 2.47458 6.05482 6.02525 3.16751 7.20573C1.11997 8.04206 0 8.87316 0 11.454L0 30.1339C0 39.0384 4.80551 42.28 18.6505 50.0855C19.2883 50.4382 19.9114 50.5945 20.291 50.5945ZM20.291 46.1555C19.9066 46.1555 19.5064 46.0251 18.7603 45.6C7.48787 38.7445 3.87497 36.7402 3.87497 29.2334L3.87497 12.1896C3.87497 11.3809 4.04178 11.0473 4.6985 10.7712C8.40113 9.3191 15.6101 6.90582 19.3233 5.43836C19.6875 5.28738 20.026 5.23514 20.291 5.23514C20.556 5.23514 20.8839 5.29266 21.2535 5.43836C24.9407 6.90582 32.0721 9.47437 35.8576 10.7712C36.5402 11.0214 36.6811 11.3809 36.6811 12.1896L36.6811 29.2334C36.6811 36.7402 33.0577 38.7287 21.7959 45.6C21.0756 46.0251 20.6754 46.1555 20.291 46.1555Z" fill="black"/>
 </g>
</svg>
