<?xml version="1.0" encoding="UTF-8"?>
<!--Generator: Apple Native CoreSVG 341-->
<!DOCTYPE svg
PUBLIC "-//W3C//DTD SVG 1.1//EN"
       "http://www.w3.org/Graphics/SVG/1.1/DTD/svg11.dtd">
<svg version="1.1" xmlns="http://www.w3.org/2000/svg" xmlns:xlink="http://www.w3.org/1999/xlink" viewBox="0 0 48.7146 49.1213">
 <g>
  <rect height="49.1213" opacity="0" width="48.7146" x="0" y="0"/>
  <path d="M2.8387 36.435L12.2962 45.8613C15.9887 49.528 20.1089 49.6679 23.5892 46.1877L47.0939 22.6518C49.2778 20.499 49.2572 17.3916 47.0163 15.1611L33.5388 1.70961C31.3084-0.526048 28.2321-0.577832 26.0482 1.60612L2.53823 25.1367C-0.942063 28.617-0.802123 32.7371 2.8387 36.435ZM5.61531 33.6478C3.74089 31.7475 3.6527 29.586 5.44948 27.7633L28.6748 4.53801C29.2994 3.91345 30.1894 3.91345 30.7881 4.5121L44.2138 17.9378C44.8124 18.5417 44.7866 19.4007 44.1879 20.0305L20.9108 43.2505C19.1399 45.0732 16.9784 44.985 15.078 43.0847ZM6.39384 23.9398L24.776 42.322L27.1903 39.8713L8.89105 21.572Z" fill="black"/>
 </g>
</svg>
