<?xml version="1.0" encoding="UTF-8"?>
<!--Generator: Apple Native CoreSVG 341-->
<!DOCTYPE svg
PUBLIC "-//W3C//DTD SVG 1.1//EN"
       "http://www.w3.org/Graphics/SVG/1.1/DTD/svg11.dtd">
<svg version="1.1" xmlns="http://www.w3.org/2000/svg" xmlns:xlink="http://www.w3.org/1999/xlink" viewBox="0 0 65.9567 44.9659">
 <g>
  <rect height="44.9659" opacity="0" width="65.9567" x="0" y="0"/>
  <path d="M9.28603 44.9559L56.6728 44.9559C62.6453 44.9559 65.9567 41.6236 65.9567 35.6717L65.9567 9.31007C65.9567 3.33232 62.6453 0 56.6728 0L9.28603 0C3.31357 0 0.00184486 3.33232 0.00184486 9.31007L0.00184486 35.6717C0.00184486 41.6236 3.31357 44.9559 9.28603 44.9559ZM9.41741 41.0291C5.81506 41.0291 3.92859 39.1168 3.92859 35.5403L3.92859 9.44144C3.92859 5.8391 5.81506 3.95263 9.41741 3.95263L56.5414 3.95263C60.1437 3.95263 62.0301 5.8391 62.0301 9.44144L62.0301 35.5403C62.0301 39.1168 60.1437 41.0291 56.5414 41.0291ZM2.58097 33.3353L7.98187 33.3353C12.0925 33.3353 14.3191 31.0828 14.3191 26.9722L14.3191 17.9579C14.3191 13.8472 12.0925 11.6206 7.98187 11.6206L2.58097 11.6206L2.58097 15.0556L7.99242 15.0556C9.86989 15.0556 10.8841 16.0646 10.8841 17.9473L10.8841 26.9827C10.8841 28.8654 9.86989 29.8743 7.99242 29.8743L2.58097 29.8743ZM58.0027 33.3353L63.3778 33.3353L63.3778 29.8743L57.9662 29.8743C56.0889 29.8743 55.0747 28.8654 55.0747 26.9827L55.0747 17.9473C55.0747 16.0646 56.0889 15.0556 57.9662 15.0556L63.3778 15.0556L63.3778 11.6206L58.0027 11.6206C53.8922 11.6206 51.6397 13.8472 51.6397 17.9579L51.6397 26.9722C51.6397 31.0828 53.8922 33.3353 58.0027 33.3353ZM31.2489 43.339L34.7099 43.339L34.7099 1.64276L31.2489 1.64276ZM32.9794 34.0171C39.3694 34.0171 44.5291 28.8574 44.5291 22.4674C44.5291 16.0774 39.3694 10.9176 32.9794 10.9176C26.5894 10.9176 21.4297 16.0774 21.4297 22.4674C21.4297 28.8574 26.5894 34.0171 32.9794 34.0171ZM32.9794 30.8408C28.3716 30.8408 24.6318 27.101 24.6318 22.4674C24.6318 17.8337 28.3716 14.094 32.9794 14.094C37.6131 14.094 41.3528 17.8337 41.3528 22.4674C41.3528 27.101 37.6131 30.8408 32.9794 30.8408ZM32.9794 26.4049C35.1686 26.4049 36.9169 24.6566 36.9169 22.4674C36.9169 20.2782 35.1686 18.5299 32.9794 18.5299C30.7955 18.5299 29.0419 20.2782 29.0419 22.4674C29.0419 24.6566 30.7955 26.4049 32.9794 26.4049Z" fill="black"/>
 </g>
</svg>
