<?xml version="1.0" encoding="UTF-8"?>
<!--Generator: Apple Native CoreSVG 341-->
<!DOCTYPE svg
PUBLIC "-//W3C//DTD SVG 1.1//EN"
       "http://www.w3.org/Graphics/SVG/1.1/DTD/svg11.dtd">
<svg version="1.1" xmlns="http://www.w3.org/2000/svg" xmlns:xlink="http://www.w3.org/1999/xlink" viewBox="0 0 49.7996 49.8046">
 <g>
  <rect height="49.8046" opacity="0" width="49.7996" x="0" y="0"/>
  <path d="M24.8867 49.7734C38.6277 49.7734 49.7993 38.6018 49.7993 24.8867C49.7993 11.1716 38.6277 0 24.8867 0C11.1716 0 8.88178e-16 11.1716 8.88178e-16 24.8867C8.88178e-16 38.6018 11.1716 49.7734 24.8867 49.7734Z" fill="black" fill-opacity="0.18"/>
  <path d="M24.8867 37.3959C31.1157 37.3959 36.1086 32.3407 36.1086 26.1376C36.1086 25.1739 35.3107 24.4018 34.404 24.4018C33.435 24.4018 32.6371 25.1739 32.6371 26.1376C32.6371 30.4338 29.2036 33.8985 24.8867 33.8985C20.5905 33.8985 17.1569 30.4391 17.1569 26.1376C17.1569 21.7948 20.5905 18.3666 24.8867 18.3666C25.7657 18.3666 26.6184 18.4136 27.3502 18.4452C28.3198 18.4716 29.0712 17.7149 29.0712 16.7718C29.0712 15.8756 28.3461 15.1036 27.4289 15.0619C26.3735 15.0091 25.3713 14.9986 24.3951 14.9986C18.7407 14.9986 13.6595 19.8621 13.6595 26.0341C13.6595 32.3407 18.663 37.3959 24.8867 37.3959ZM30.9268 17.0363C30.9268 16.6113 30.7815 16.1862 30.4705 15.901L25.5887 11.034C25.3452 10.7906 24.8943 10.5365 24.4797 10.5365C23.5625 10.5365 22.8681 11.2621 22.8681 12.117C22.8681 12.5991 23.0598 12.9931 23.3607 13.2941L27.1807 17.0363L23.3607 20.7786C23.0598 21.0796 22.8681 21.4735 22.8681 21.9556C22.8681 22.8106 23.5625 23.5361 24.4797 23.5361C24.8943 23.5361 25.3193 23.3339 25.5887 23.0645L30.4705 18.1975C30.7815 17.8865 30.9268 17.4873 30.9268 17.0363Z" fill="black"/>
 </g>
</svg>
