<?xml version="1.0" encoding="UTF-8"?>
<!--Generator: Apple Native CoreSVG 341-->
<!DOCTYPE svg
PUBLIC "-//W3C//DTD SVG 1.1//EN"
       "http://www.w3.org/Graphics/SVG/1.1/DTD/svg11.dtd">
<svg version="1.1" xmlns="http://www.w3.org/2000/svg" xmlns:xlink="http://www.w3.org/1999/xlink" viewBox="0 0 59.9976 58.2409">
 <g>
  <rect height="58.2409" opacity="0" width="59.9976" x="0" y="0"/>
  <path d="M43.5372 8.44619L39.76 12.2263L18.5753 12.2263C14.5574 12.2263 12.3172 14.4924 12.3172 18.5103L12.3172 41.3247C12.3172 45.3478 14.5574 47.6139 18.5753 47.6139L41.4155 47.6139C45.4387 47.6139 47.6789 45.3478 47.6789 41.3247L47.6789 20.314L51.4956 16.4899C51.5886 17.1254 51.6315 17.8032 51.6315 18.5156L51.6315 41.3194C51.6315 47.9016 47.9719 51.5406 41.4155 51.5406L18.5806 51.5406C12.0243 51.5406 8.3646 47.9016 8.3646 41.3194L8.3646 18.5156C8.3646 11.9334 12.0243 8.29964 18.5806 8.29964L41.4155 8.29964C42.1624 8.29964 42.8717 8.3468 43.5372 8.44619Z" fill="black" fill-opacity="0.5"/>
  <path d="M24.9344 35.7223L29.6846 33.6524L52.4671 10.8753L49.1129 7.59341L26.3616 30.35L24.1777 34.9397C23.9754 35.3647 24.4576 35.9192 24.9344 35.7223ZM54.2724 9.07517L56.0308 7.28567C56.8455 6.42446 56.8508 5.23739 56.0466 4.43324L55.472 3.85863C54.7043 3.09089 53.5014 3.17908 52.7283 3.98328L50.9388 5.7416Z" fill="black"/>
 </g>
</svg>
