<?xml version="1.0" encoding="UTF-8"?>
<!--Generator: Apple Native CoreSVG 341-->
<!DOCTYPE svg
PUBLIC "-//W3C//DTD SVG 1.1//EN"
       "http://www.w3.org/Graphics/SVG/1.1/DTD/svg11.dtd">
<svg version="1.1" xmlns="http://www.w3.org/2000/svg" xmlns:xlink="http://www.w3.org/1999/xlink" viewBox="0 0 61.5075 60.0201">
 <g>
  <rect height="60.0201" opacity="0" width="61.5075" x="0" y="0"/>
  <path d="M48.7485 9.83485L13.0569 9.83485C13.4582 5.88895 15.9902 4.13525 19.8967 4.13525L41.9081 4.13525C46.051 4.13525 48.383 5.88895 48.7485 9.83485Z" fill="black"/>
  <path d="M58.1689 20.3237L58.1689 40.1916C58.1689 44.9396 55.6475 47.3468 50.9048 47.3468L50.1564 47.3468L50.1564 33.8229C50.1564 30.5942 47.7429 28.1859 44.5141 28.1859L17.0061 28.1859C13.7772 28.1859 11.3637 30.5942 11.3637 33.8229L11.3637 47.3468L10.5995 47.3468C5.86204 47.3468 3.34071 44.9396 3.34071 40.1916L3.34071 20.3237C3.34071 15.581 6.09495 13.1684 10.5995 13.1684L50.9048 13.1684C55.6475 13.1684 58.1689 15.581 58.1689 20.3237ZM42.647 21.2271C42.647 22.9711 44.0536 24.3567 45.7818 24.3567C47.4736 24.3567 48.9061 22.9294 48.9061 21.2271C48.9061 19.5353 47.4736 18.1028 45.7818 18.1028C44.0536 18.1028 42.647 19.5353 42.647 21.2271Z" fill="black"/>
  <path d="M14.7025 53.4102C14.7025 55.3781 16.0162 56.6865 17.9841 56.6865L43.5361 56.6865C45.5039 56.6865 46.8435 55.3781 46.8435 53.4102L46.8435 33.8229C46.8435 32.4191 45.9179 31.4988 44.5141 31.4988L17.0061 31.4988C15.6022 31.4988 14.7025 32.4191 14.7025 33.8229ZM23.0085 41.286C22.0964 41.286 21.428 40.5915 21.428 39.7107C21.428 38.8506 22.0964 38.1614 23.0085 38.1614L38.5634 38.1614C39.4495 38.1614 40.1181 38.8506 40.1181 39.7107C40.1181 40.5915 39.4495 41.286 38.5634 41.286ZM23.0085 50.024C22.0964 50.024 21.428 49.3554 21.428 48.5005C21.428 47.5885 22.0964 46.8994 23.0085 46.8994L38.5634 46.8994C39.4495 46.8994 40.1181 47.5885 40.1181 48.5005C40.1181 49.3554 39.4495 50.024 38.5634 50.024Z" fill="black"/>
 </g>
</svg>
