<?xml version="1.0" encoding="UTF-8"?>
<!--Generator: Apple Native CoreSVG 341-->
<!DOCTYPE svg
PUBLIC "-//W3C//DTD SVG 1.1//EN"
       "http://www.w3.org/Graphics/SVG/1.1/DTD/svg11.dtd">
<svg version="1.1" xmlns="http://www.w3.org/2000/svg" xmlns:xlink="http://www.w3.org/1999/xlink" viewBox="0 0 47.6936 48.155">
 <g>
  <rect height="48.155" opacity="0" width="47.6936" x="0" y="0"/>
  <path d="M-8.88178e-16 19.4805C-8.88178e-16 30.2303 8.73599 38.9404 19.4858 38.9404C23.7177 38.9404 27.6017 37.5899 30.7946 35.2836L42.8106 47.3307C43.3857 47.8852 44.1165 48.1497 44.8785 48.1497C46.527 48.1497 47.693 46.9004 47.693 45.2782C47.693 44.5009 47.3873 43.8012 46.9051 43.262L34.9409 31.2719C37.46 27.9962 38.9405 23.9253 38.9405 19.4805C38.9405 8.73596 30.2304 0 19.4858 0C8.73599 0-8.88178e-16 8.73596-8.88178e-16 19.4805ZM4.18022 19.4805C4.18022 11.0204 11.0204 4.18021 19.4858 4.18021C27.92 4.18021 34.7861 11.0204 34.7861 19.4805C34.7861 27.9201 27.92 34.7861 19.4858 34.7861C11.0204 34.7861 4.18022 27.9201 4.18022 19.4805Z" fill="black"/>
 </g>
</svg>
