<?xml version="1.0" encoding="UTF-8"?>
<!--Generator: Apple Native CoreSVG 341-->
<!DOCTYPE svg
PUBLIC "-//W3C//DTD SVG 1.1//EN"
       "http://www.w3.org/Graphics/SVG/1.1/DTD/svg11.dtd">
<svg version="1.1" xmlns="http://www.w3.org/2000/svg" xmlns:xlink="http://www.w3.org/1999/xlink" viewBox="0 0 49.7996 49.8046">
 <g>
  <rect height="49.8046" opacity="0" width="49.7996" x="0" y="0"/>
  <path d="M24.8867 49.7734C38.6277 49.7734 49.7993 38.6018 49.7993 24.8867C49.7993 11.1716 38.6277 0 24.8867 0C11.1716 0 8.88178e-16 11.1716 8.88178e-16 24.8867C8.88178e-16 38.6018 11.1716 49.7734 24.8867 49.7734Z" fill="#ff383c" fill-opacity="0.18"/>
  <path d="M18.849 13.7605C21.564 13.7605 23.6411 15.3134 24.8867 17.6071C26.1582 15.3134 28.2665 13.7605 30.9503 13.7605C35.2019 13.7605 38.2855 16.9946 38.2855 21.4585C38.2855 28.0283 31.2722 34.0814 26.1519 37.4185C25.7733 37.7036 25.2806 38.0094 24.9385 38.0094C24.648 38.0094 24.0777 37.6984 23.6215 37.4185C18.4849 34.1395 11.5086 28.0283 11.5086 21.4585C11.5086 16.9946 14.5715 13.7605 18.849 13.7605Z" fill="#ff383c"/>
 </g>
</svg>
