<?xml version="1.0" encoding="UTF-8"?>
<!--Generator: Apple Native CoreSVG 341-->
<!DOCTYPE svg
PUBLIC "-//W3C//DTD SVG 1.1//EN"
       "http://www.w3.org/Graphics/SVG/1.1/DTD/svg11.dtd">
<svg version="1.1" xmlns="http://www.w3.org/2000/svg" xmlns:xlink="http://www.w3.org/1999/xlink" viewBox="0 0 41.0626 52.343">
 <g>
  <rect height="52.343" opacity="0" width="41.0626" x="0" y="0"/>
  <path d="M7.55572 52.3329L33.4812 52.3329C38.5249 52.3329 41.0626 49.7641 41.0626 44.674L41.0626 22.5071C41.0626 19.3863 40.6993 18.0176 38.7503 16.0168L25.2839 2.31761C23.4384 0.415028 21.9092 0 19.1507 0L7.55572 0C2.52789 0 0.00025063 2.56882 0.00025063 7.65898L0.00025063 44.674C0.00025063 49.79 2.51733 52.3329 7.55572 52.3329ZM7.74741 48.4062C5.23163 48.4062 3.927 47.0498 3.927 44.6117L3.927 7.72126C3.927 5.30948 5.23163 3.92671 7.77328 3.92671L18.6198 3.92671L18.6198 18.1061C18.6198 21.1771 20.1812 22.7016 23.2153 22.7016L37.1152 22.7016L37.1152 44.6117C37.1152 47.0498 35.8053 48.4062 33.2895 48.4062ZM23.6658 19.0077C22.6933 19.0077 22.2878 18.6022 22.2878 17.635L22.2878 4.68343L36.3585 19.0077Z" fill="black"/>
  <path d="M29.5025 29.4452L11.0021 29.4452C10.1107 29.4452 9.44219 30.0826 9.44219 30.9169C9.44219 31.7772 10.1107 32.4404 11.0021 32.4404L29.5025 32.4404C30.368 32.4404 31.0106 31.7772 31.0106 30.9169C31.0106 30.0826 30.368 29.4452 29.5025 29.4452Z" fill="black"/>
  <path d="M29.5025 37.9503L11.0021 37.9503C10.1107 37.9503 9.44219 38.6188 9.44219 39.4738C9.44219 40.3081 10.1107 40.9455 11.0021 40.9455L29.5025 40.9455C30.368 40.9455 31.0106 40.3081 31.0106 39.4738C31.0106 38.6188 30.368 37.9503 29.5025 37.9503Z" fill="black"/>
 </g>
</svg>
