<?xml version="1.0" encoding="UTF-8"?>
<!--Generator: Apple Native CoreSVG 341-->
<!DOCTYPE svg
PUBLIC "-//W3C//DTD SVG 1.1//EN"
       "http://www.w3.org/Graphics/SVG/1.1/DTD/svg11.dtd">
<svg version="1.1" xmlns="http://www.w3.org/2000/svg" xmlns:xlink="http://www.w3.org/1999/xlink" viewBox="0 0 41.0626 67.6348">
 <g>
  <rect height="67.6348" opacity="0" width="41.0626" x="0" y="0"/>
  <path d="M41.0626 17.2923L41.0626 54.3073C41.0626 59.4234 38.5249 61.961 33.4812 61.961L7.55572 61.961C2.51733 61.961 0.00025063 59.4234 0.00025063 54.3073L0.00025063 17.2923C0.00025063 12.2022 2.51733 9.63335 7.55572 9.63335L7.88997 9.63335C7.86875 9.83377 7.8589 10.0398 7.8589 10.2502L7.8589 12.8195C7.8589 13.0829 7.87435 13.3396 7.90992 13.586L7.77328 13.586C5.23163 13.586 3.927 14.9165 3.927 17.3547L3.927 54.245C3.927 56.6779 5.23163 58.0396 7.77328 58.0396L33.2895 58.0396C35.8053 58.0396 37.1152 56.6779 37.1152 54.245L37.1152 17.3547C37.1152 14.9165 35.8053 13.586 33.2895 13.586L33.1523 13.586C33.1883 13.3396 33.2039 13.0829 33.2039 12.8195L33.2039 10.2502C33.2039 10.0398 33.194 9.83377 33.1725 9.63335L33.4812 9.63335C38.5249 9.63335 41.0626 12.2022 41.0626 17.2923Z" fill="black" fill-opacity="0.5"/>
  <path d="M12.983 15.2305L28.054 15.2305C29.4855 15.2305 30.3567 14.3386 30.3567 12.8195L30.3567 10.2502C30.3567 8.72569 29.4855 7.83909 28.054 7.83909L25.8233 7.83909C25.6681 5.0733 23.3695 2.84716 20.5314 2.84716C17.6986 2.84716 15.3948 5.0733 15.2136 7.83909L12.983 7.83909C11.5568 7.83909 10.7061 8.72569 10.7061 10.2502L10.7061 12.8195C10.7061 14.3386 11.5568 15.2305 12.983 15.2305ZM20.5314 10.1597C19.3577 10.1597 18.3867 9.1834 18.3867 8.01495C18.3867 6.83596 19.3577 5.89082 20.5314 5.89082C21.7052 5.89082 22.6503 6.83596 22.6503 8.01495C22.6503 9.1834 21.7052 10.1597 20.5314 10.1597Z" fill="black" fill-opacity="0.5"/>
  <path d="M10.2305 29.4001C11.3817 29.4001 12.2994 28.4771 12.2994 27.3312C12.2994 26.18 11.3817 25.257 10.2305 25.257C9.11058 25.257 8.16166 26.2059 8.16166 27.3312C8.16166 28.4511 9.11058 29.4001 10.2305 29.4001ZM10.2305 38.0514C11.3817 38.0514 12.2994 37.1336 12.2994 35.9825C12.2994 34.8313 11.3817 33.9395 10.2305 33.9395C9.08467 33.9395 8.16166 34.8572 8.16166 35.9825C8.16166 37.1336 9.08467 38.0514 10.2305 38.0514ZM10.2305 47.191C11.3817 47.191 12.2994 46.268 12.2994 45.1169C12.2994 43.971 11.3817 43.048 10.2305 43.048C9.11058 43.048 8.16166 43.9969 8.16166 45.1169C8.16166 46.2421 9.11058 47.191 10.2305 47.191ZM16.7416 28.8547L31.383 28.8547C32.2173 28.8547 32.9065 28.1603 32.9065 27.3312C32.9065 26.4968 32.2173 25.8025 31.383 25.8025L16.7416 25.8025C15.9073 25.8025 15.2182 26.4968 15.2182 27.3312C15.2182 28.1603 15.9073 28.8547 16.7416 28.8547ZM16.7416 37.5059L31.383 37.5059C32.2432 37.5059 32.9065 36.8427 32.9065 35.9825C32.9065 35.1481 32.2432 34.4849 31.383 34.4849L16.7416 34.4849C15.8814 34.4849 15.2182 35.1481 15.2182 35.9825C15.2182 36.8427 15.8814 37.5059 16.7416 37.5059ZM16.7416 46.6456L31.383 46.6456C32.2173 46.6456 32.9065 45.9513 32.9065 45.1169C32.9065 44.2879 32.2432 43.6193 31.383 43.6193L16.7416 43.6193C15.8814 43.6193 15.2182 44.2879 15.2182 45.1169C15.2182 45.9513 15.9073 46.6456 16.7416 46.6456Z" fill="black"/>
 </g>
</svg>
