<?xml version="1.0" encoding="UTF-8"?>
<!--Generator: Apple Native CoreSVG 341-->
<!DOCTYPE svg
PUBLIC "-//W3C//DTD SVG 1.1//EN"
       "http://www.w3.org/Graphics/SVG/1.1/DTD/svg11.dtd">
<svg version="1.1" xmlns="http://www.w3.org/2000/svg" xmlns:xlink="http://www.w3.org/1999/xlink" viewBox="0 0 37.0056 43.0174">
 <g>
  <rect height="43.0174" opacity="0" width="37.0056" x="0" y="0"/>
  <path d="M37.003 40.8264C37.003 39.5574 36.1327 38.6301 34.8896 38.6301L2.1704 38.6301C0.896166 38.6301 0 39.5574 0 40.8264C0 42.0954 0.896166 43.0174 2.1704 43.0174L34.8896 43.0174C36.1327 43.0174 37.003 42.0954 37.003 40.8264ZM2.11334 17.964C0.896166 17.964 0 18.9119 0 20.1086C0 20.6836 0.217543 21.1911 0.678557 21.678L16.8803 37.9156C17.3413 38.3972 17.9058 38.6666 18.5015 38.6666C19.1024 38.6666 19.6617 38.3972 20.1227 37.9156L36.3297 21.678C36.7907 21.1911 37.003 20.6836 37.003 20.1086C37.003 18.9119 36.1068 17.964 34.8949 17.964C34.3198 17.964 33.7395 18.1869 33.3719 18.5597L27.7988 24.0294L18.5015 34.217L9.20423 24.0294L3.63632 18.5597C3.26349 18.1869 2.68315 17.964 2.11334 17.964ZM20.3973 34.5429L20.6925 26.8341L20.6925 2.15981C20.6925 0.896139 19.7704 1.2066e-05 18.5015 1.2066e-05C17.2325 1.2066e-05 16.3158 0.896139 16.3158 2.15981L16.3158 26.8341L16.6057 34.5429C16.6575 35.5943 17.476 36.4593 18.5015 36.4593C19.5323 36.4593 20.3455 35.5943 20.3973 34.5429Z" fill="black"/>
 </g>
</svg>
