<?xml version="1.0" encoding="UTF-8"?>
<!--Generator: Apple Native CoreSVG 341-->
<!DOCTYPE svg
PUBLIC "-//W3C//DTD SVG 1.1//EN"
       "http://www.w3.org/Graphics/SVG/1.1/DTD/svg11.dtd">
<svg version="1.1" xmlns="http://www.w3.org/2000/svg" xmlns:xlink="http://www.w3.org/1999/xlink" viewBox="0 0 30.0934 42.3919">
 <g>
  <rect height="42.3919" opacity="0" width="30.0934" x="0" y="0"/>
  <path d="M-4.44089e-16 21.1804C-4.44089e-16 21.7918 0.248722 22.3305 0.694404 22.7968L20.0415 41.708C20.4508 42.1431 21.0153 42.3607 21.6421 42.3607C22.9058 42.3607 23.8643 41.4128 23.8643 40.1386C23.8643 39.517 23.6208 38.9784 23.2168 38.5485L5.47507 21.1804L23.2168 3.81219C23.6208 3.3823 23.8643 2.81778 23.8643 2.22213C23.8643 0.947899 22.9058 0 21.6421 0C21.0153 0 20.4508 0.217545 20.0415 0.65271L0.694404 19.5639C0.248722 20.0302-4.44089e-16 20.5689-4.44089e-16 21.1804Z" fill="black"/>
 </g>
</svg>
