<?xml version="1.0" encoding="UTF-8"?>
<!--Generator: Apple Native CoreSVG 341-->
<!DOCTYPE svg
PUBLIC "-//W3C//DTD SVG 1.1//EN"
       "http://www.w3.org/Graphics/SVG/1.1/DTD/svg11.dtd">
<svg version="1.1" xmlns="http://www.w3.org/2000/svg" xmlns:xlink="http://www.w3.org/1999/xlink" viewBox="0 0 39.9396 49.2594">
 <g>
  <rect height="49.2594" opacity="0" width="39.9396" x="0" y="0"/>
  <path d="M19.9805 49.2594C20.3601 49.2594 20.9572 49.1237 21.5951 48.8022C35.4559 41.5407 39.9351 37.9104 39.9351 29.1558L39.9351 10.7347C39.9351 8.20563 38.8409 7.40573 36.8193 6.56408C33.9579 5.38359 24.8194 2.06533 21.9838 1.09236C21.3348 0.874288 20.65 0.744401 19.9805 0.744401C19.2851 0.744401 18.6002 0.900148 17.9513 1.09236C15.0951 2.01407 5.97723 5.40945 3.11574 6.56408C1.09411 7.37453 0 8.20563 0 10.7347L0 29.1558C0 37.9104 4.72788 41.095 18.3658 48.8022C18.9778 49.1496 19.575 49.2594 19.9805 49.2594Z" fill="black"/>
 </g>
</svg>
