<?xml version="1.0" encoding="UTF-8"?>
<!--Generator: Apple Native CoreSVG 341-->
<!DOCTYPE svg
PUBLIC "-//W3C//DTD SVG 1.1//EN"
       "http://www.w3.org/Graphics/SVG/1.1/DTD/svg11.dtd">
<svg version="1.1" xmlns="http://www.w3.org/2000/svg" xmlns:xlink="http://www.w3.org/1999/xlink" viewBox="0 0 41.0626 67.6348">
 <g>
  <rect height="67.6348" opacity="0" width="41.0626" x="0" y="0"/>
  <path d="M41.0626 17.2665L41.0626 54.3073C41.0626 59.4234 38.5249 61.961 33.4812 61.961L7.55572 61.961C2.51733 61.961 0.00025063 59.4234 0.00025063 54.3073L0.00025063 17.2665C0.00025063 12.1763 2.51733 9.60749 7.55572 9.60749L7.89341 9.60749C7.86963 9.81581 7.8589 10.0307 7.8589 10.2502L7.8589 12.8195C7.8589 15.9101 9.98533 18.0777 12.983 18.0777L28.054 18.0777C31.0516 18.0777 33.2039 15.9101 33.2039 12.8195L33.2039 10.2502C33.2039 10.0307 33.1931 9.81582 33.169 9.60749L33.4812 9.60749C38.5249 9.60749 41.0626 12.1763 41.0626 17.2665Z" fill="black" fill-opacity="0.18"/>
  <path d="M12.983 15.2305L28.054 15.2305C29.4855 15.2305 30.3567 14.3386 30.3567 12.8195L30.3567 10.2502C30.3567 8.72569 29.4855 7.83909 28.054 7.83909L25.8233 7.83909C25.6681 5.0733 23.3695 2.84716 20.5314 2.84716C17.6986 2.84716 15.3948 5.0733 15.2136 7.83909L12.983 7.83909C11.5568 7.83909 10.7061 8.72569 10.7061 10.2502L10.7061 12.8195C10.7061 14.3386 11.5568 15.2305 12.983 15.2305ZM20.5314 10.1597C19.3577 10.1597 18.3867 9.1834 18.3867 8.01495C18.3867 6.83596 19.3577 5.89082 20.5314 5.89082C21.7052 5.89082 22.6503 6.83596 22.6503 8.01495C22.6503 9.1834 21.7052 10.1597 20.5314 10.1597Z" fill="black" fill-opacity="0.18"/>
  <path d="M9.92001 30.2487C8.74831 30.2487 7.77352 29.2533 7.77352 28.1022C7.77352 26.9252 8.74831 25.9557 9.92001 25.9557C11.0971 25.9557 12.0718 26.9252 12.0718 28.1022C12.0718 29.2792 11.0971 30.2487 9.92001 30.2487ZM9.92001 39.1847C8.7224 39.1847 7.77352 38.2152 7.77352 37.0381C7.77352 35.8664 8.7224 34.9175 9.92001 34.9175C11.0971 34.9175 12.0718 35.8405 12.0718 37.0381C12.0718 38.2152 11.0971 39.1847 9.92001 39.1847ZM9.92001 48.5831C8.74831 48.5831 7.77352 47.6083 7.77352 46.4314C7.77352 45.2855 8.74831 44.2848 9.92001 44.2848C11.0971 44.2848 12.0718 45.2596 12.0718 46.4314C12.0718 47.6342 11.0971 48.5831 9.92001 48.5831ZM16.6382 29.6774C15.7521 29.6774 15.0371 28.9624 15.0371 28.1022C15.0371 27.2679 15.7521 26.527 16.6382 26.527L31.7194 26.527C32.5743 26.527 33.2946 27.2679 33.2946 28.1022C33.2946 28.9624 32.5743 29.6774 31.7194 29.6774ZM16.6382 38.6134C15.7262 38.6134 15.0371 37.9242 15.0371 37.0381C15.0371 36.1573 15.7262 35.4629 16.6382 35.4629L31.7194 35.4629C32.6002 35.4629 33.2946 36.1573 33.2946 37.0381C33.2946 37.9242 32.6002 38.6134 31.7194 38.6134ZM16.6382 48.0324C15.7521 48.0324 15.0371 47.2915 15.0371 46.4314C15.0371 45.5764 15.7262 44.882 16.6382 44.882L31.7194 44.882C32.6002 44.882 33.2946 45.5764 33.2946 46.4314C33.2946 47.2915 32.5743 48.0324 31.7194 48.0324Z" fill="black"/>
 </g>
</svg>
