<?xml version="1.0" encoding="UTF-8"?>
<!--Generator: Apple Native CoreSVG 341-->
<!DOCTYPE svg
PUBLIC "-//W3C//DTD SVG 1.1//EN"
       "http://www.w3.org/Graphics/SVG/1.1/DTD/svg11.dtd">
<svg version="1.1" xmlns="http://www.w3.org/2000/svg" xmlns:xlink="http://www.w3.org/1999/xlink" viewBox="0 0 48.6536 44.9976">
 <g>
  <rect height="44.9976" opacity="0" width="48.6536" x="0" y="0"/>
  <path d="M7.66088 44.9976L40.9946 44.9976C46.1159 44.9976 48.6536 42.4441 48.6536 37.4162L48.6536 7.62303C48.6536 2.5952 46.1159 0.0416979 40.9946 0.0416979L7.66088 0.0416979C2.57071 0.0416979 0.00189704 2.58465 0.00189704 7.62303L0.00189704 37.4162C0.00189704 42.4546 2.57071 44.9976 7.66088 44.9976ZM7.30914 41.045C5.12977 41.045 3.92864 39.8956 3.92864 37.6386L3.92864 14.634C3.92864 12.377 5.12977 11.2224 7.30914 11.2224L41.3204 11.2224C43.4788 11.2224 44.7321 12.377 44.7321 14.634L44.7321 37.6386C44.7321 39.8956 43.4788 41.045 41.3204 41.045ZM19.5425 19.9804L20.9755 19.9804C21.852 19.9804 22.1213 19.7112 22.1213 18.8657L22.1213 17.4328C22.1213 16.5926 21.852 16.3233 20.9755 16.3233L19.5425 16.3233C18.6971 16.3233 18.4278 16.5926 18.4278 17.4328L18.4278 18.8657C18.4278 19.7112 18.6971 19.9804 19.5425 19.9804ZM27.68 19.9804L29.113 19.9804C29.9637 19.9804 30.2277 19.7112 30.2277 18.8657L30.2277 17.4328C30.2277 16.5926 29.9637 16.3233 29.113 16.3233L27.68 16.3233C26.8035 16.3233 26.5341 16.5926 26.5341 17.4328L26.5341 18.8657C26.5341 19.7112 26.8035 19.9804 27.68 19.9804ZM35.7864 19.9804L37.2194 19.9804C38.0701 19.9804 38.3653 19.7112 38.3653 18.8657L38.3653 17.4328C38.3653 16.5926 38.0701 16.3233 37.2194 16.3233L35.7864 16.3233C34.9098 16.3233 34.6458 16.5926 34.6458 17.4328L34.6458 18.8657C34.6458 19.7112 34.9098 19.9804 35.7864 19.9804ZM11.4361 27.9623L12.8691 27.9623C13.7456 27.9623 14.0149 27.6982 14.0149 26.8528L14.0149 25.4198C14.0149 24.5744 13.7456 24.3051 12.8691 24.3051L11.4361 24.3051C10.5854 24.3051 10.2902 24.5744 10.2902 25.4198L10.2902 26.8528C10.2902 27.6982 10.5854 27.9623 11.4361 27.9623ZM19.5425 27.9623L20.9755 27.9623C21.852 27.9623 22.1213 27.6982 22.1213 26.8528L22.1213 25.4198C22.1213 24.5744 21.852 24.3051 20.9755 24.3051L19.5425 24.3051C18.6971 24.3051 18.4278 24.5744 18.4278 25.4198L18.4278 26.8528C18.4278 27.6982 18.6971 27.9623 19.5425 27.9623ZM27.68 27.9623L29.113 27.9623C29.9637 27.9623 30.2277 27.6982 30.2277 26.8528L30.2277 25.4198C30.2277 24.5744 29.9637 24.3051 29.113 24.3051L27.68 24.3051C26.8035 24.3051 26.5341 24.5744 26.5341 25.4198L26.5341 26.8528C26.5341 27.6982 26.8035 27.9623 27.68 27.9623ZM35.7864 27.9623L37.2194 27.9623C38.0701 27.9623 38.3653 27.6982 38.3653 26.8528L38.3653 25.4198C38.3653 24.5744 38.0701 24.3051 37.2194 24.3051L35.7864 24.3051C34.9098 24.3051 34.6458 24.5744 34.6458 25.4198L34.6458 26.8528C34.6458 27.6982 34.9098 27.9623 35.7864 27.9623ZM11.4361 35.9493L12.8691 35.9493C13.7456 35.9493 14.0149 35.68 14.0149 34.8346L14.0149 33.4016C14.0149 32.5562 13.7456 32.2922 12.8691 32.2922L11.4361 32.2922C10.5854 32.2922 10.2902 32.5562 10.2902 33.4016L10.2902 34.8346C10.2902 35.68 10.5854 35.9493 11.4361 35.9493ZM19.5425 35.9493L20.9755 35.9493C21.852 35.9493 22.1213 35.68 22.1213 34.8346L22.1213 33.4016C22.1213 32.5562 21.852 32.2922 20.9755 32.2922L19.5425 32.2922C18.6971 32.2922 18.4278 32.5562 18.4278 33.4016L18.4278 34.8346C18.4278 35.68 18.6971 35.9493 19.5425 35.9493ZM27.68 35.9493L29.113 35.9493C29.9637 35.9493 30.2277 35.68 30.2277 34.8346L30.2277 33.4016C30.2277 32.5562 29.9637 32.2922 29.113 32.2922L27.68 32.2922C26.8035 32.2922 26.5341 32.5562 26.5341 33.4016L26.5341 34.8346C26.5341 35.68 26.8035 35.9493 27.68 35.9493Z" fill="black"/>
 </g>
</svg>
