<?xml version="1.0" encoding="UTF-8"?>
<!--Generator: Apple Native CoreSVG 341-->
<!DOCTYPE svg
PUBLIC "-//W3C//DTD SVG 1.1//EN"
       "http://www.w3.org/Graphics/SVG/1.1/DTD/svg11.dtd">
<svg version="1.1" xmlns="http://www.w3.org/2000/svg" xmlns:xlink="http://www.w3.org/1999/xlink" viewBox="0 0 43.112 58.1815">
 <g>
  <rect height="58.1815" opacity="0" width="43.112" x="0" y="0"/>
  <path d="M21.5576 52.4565C33.4769 52.4565 43.112 42.7903 43.112 30.8763C43.112 29.7831 42.2159 28.9129 41.1539 28.9129C40.0867 28.9129 39.1906 29.7831 39.1906 30.8763C39.1906 40.6146 31.2959 48.4781 21.5576 48.4781C11.8192 48.4781 3.92989 40.6146 3.92989 30.8763C3.92989 21.1379 11.8192 13.2433 21.5576 13.2433C23.7302 13.2433 25.7935 13.6129 27.7164 14.3462C28.9648 14.8436 30.446 14.1286 30.4671 12.6061C30.483 11.353 29.5667 10.9068 28.8977 10.6681C26.6542 9.80544 24.1605 9.34774 21.5576 9.34774C9.64355 9.34774 0.00315075 18.9828 0.00315075 30.9021C0.00315075 42.7903 9.64355 52.4565 21.5576 52.4565ZM28.1784 12.2745L19.2877 21.0675C18.8991 21.4303 18.7333 21.9483 18.7333 22.4511C18.7333 23.5594 19.5776 24.4091 20.6502 24.4091C21.2769 24.4091 21.7121 24.1916 22.0643 23.8599L32.1195 13.752C32.5503 13.3159 32.7473 12.8443 32.7473 12.2693C32.7473 11.7406 32.5192 11.2173 32.1195 10.8176L22.0696 0.606201C21.7174 0.248743 21.2616 0 20.6449 0C19.5724 0 18.7333 0.906728 18.7333 2.01512C18.7333 2.54369 18.8991 3.05649 19.2618 3.41923Z" fill="black"/>
 </g>
</svg>
