<?xml version="1.0" encoding="UTF-8"?>
<!--Generator: Apple Native CoreSVG 341-->
<!DOCTYPE svg
PUBLIC "-//W3C//DTD SVG 1.1//EN"
       "http://www.w3.org/Graphics/SVG/1.1/DTD/svg11.dtd">
<svg version="1.1" xmlns="http://www.w3.org/2000/svg" xmlns:xlink="http://www.w3.org/1999/xlink" viewBox="0 0 46.5253 52.9906">
 <g>
  <rect height="52.9906" opacity="0" width="46.5253" x="0" y="0"/>
  <path d="M39.7856 27.975L21.8278 45.907C17.175 50.6062 10.9124 50.1173 6.91386 46.0982C2.89471 42.079 2.40582 35.8629 7.07918 31.1584L31.5544 6.71433C34.3606 3.90811 38.479 3.51819 41.1677 6.18095C43.8304 8.88492 43.4352 12.9827 40.6549 15.789L16.7557 39.714C15.5446 40.951 14.0784 40.5776 13.2305 39.7557C12.4085 38.9077 12.0869 37.4934 13.2981 36.2563L29.984 19.5758C30.7095 18.819 30.7713 17.7518 30.0668 17.0421C29.3571 16.3635 28.2693 16.3994 27.5332 17.1303L10.775 33.8885C8.30439 36.4108 8.38306 40.2031 10.5933 42.4187C12.9901 44.7843 16.6012 44.7335 19.1236 42.2371L43.1262 18.2085C47.6835 13.646 47.483 7.62605 43.5355 3.67848C39.6344-0.217342 33.5421-0.526581 28.9795 4.04121L4.37543 28.6918C-1.66711 34.7085-1.2026 43.3279 4.2408 48.7713C9.68418 54.1888 18.3088 54.648 24.3203 48.6366L42.3811 30.5758C43.1066 29.8761 43.1014 28.5966 42.3657 27.9128C41.6613 27.1513 40.5112 27.2754 39.7856 27.975Z" fill="black"/>
 </g>
</svg>
