<?xml version="1.0" encoding="UTF-8"?>
<!--Generator: Apple Native CoreSVG 341-->
<!DOCTYPE svg
PUBLIC "-//W3C//DTD SVG 1.1//EN"
       "http://www.w3.org/Graphics/SVG/1.1/DTD/svg11.dtd">
<svg version="1.1" xmlns="http://www.w3.org/2000/svg" xmlns:xlink="http://www.w3.org/1999/xlink" viewBox="0 0 33.3193 49.1328">
 <g>
  <rect height="49.1328" opacity="0" width="33.3193" x="0" y="0"/>
  <path d="M5.48339 47.845L27.8341 47.845C31.4189 47.845 33.3193 45.903 33.3193 42.0383L33.3193 25.2412C33.3193 21.3972 31.4189 19.4551 27.8341 19.4551L5.48339 19.4551C1.90387 19.4551 0.00358306 21.3972 0.00358306 25.2412L0.00358306 42.0383C0.00358306 45.903 1.90387 47.845 5.48339 47.845ZM4.29304 21.3304L8.15272 21.3304L8.15272 13.0983C8.15272 6.92811 12.0995 3.66798 16.6485 3.66798C21.2128 3.66798 25.1907 6.92811 25.1907 13.0983L25.1907 21.3304L29.0504 21.3304L29.0504 13.6C29.0504 4.4261 23.0473 0 16.6485 0C10.2703 0 4.29304 4.4261 4.29304 13.6Z" fill="black"/>
 </g>
</svg>
