<?xml version="1.0" encoding="UTF-8"?>
<!--Generator: Apple Native CoreSVG 341-->
<!DOCTYPE svg
PUBLIC "-//W3C//DTD SVG 1.1//EN"
       "http://www.w3.org/Graphics/SVG/1.1/DTD/svg11.dtd">
<svg version="1.1" xmlns="http://www.w3.org/2000/svg" xmlns:xlink="http://www.w3.org/1999/xlink" viewBox="0 0 44.932 44.9765">
 <g>
  <rect height="44.9765" opacity="0" width="44.932" x="0" y="0"/>
  <path d="M7.661 44.9765L37.273 44.9765C42.3891 44.9765 44.932 42.423 44.932 37.3951L44.932 7.60193C44.932 2.5741 42.3891 0.0205864 37.273 0.0205864L7.661 0.0205864C2.57083 0.0205864 0.00201893 2.56355 0.00201893 7.60193L0.00201893 37.3951C0.00201893 42.4335 2.57083 44.9765 7.661 44.9765Z" fill="#ff383c" fill-opacity="0.18"/>
  <path d="M14.2763 32.7331C13.1521 32.7331 12.2454 31.8317 12.2454 30.6868C12.2454 30.1583 12.463 29.6713 12.8569 29.2774L19.6305 22.5038L12.8569 15.7302C12.463 15.3363 12.2454 14.8494 12.2454 14.3208C12.2454 13.1759 13.1521 12.3263 14.2763 12.3263C14.8361 12.3263 15.2659 12.518 15.6651 12.8913L22.4799 19.6802L29.3206 12.8654C29.7458 12.4662 30.1809 12.2745 30.7353 12.2745C31.8337 12.2745 32.7404 13.15 32.7404 14.269C32.7404 14.8235 32.5746 15.2845 32.1548 15.7043L25.3553 22.5038L32.1289 29.2515C32.5228 29.6455 32.7145 30.1323 32.7145 30.6868C32.7145 31.8317 31.8078 32.7331 30.6836 32.7331C30.1032 32.7331 29.5905 32.5414 29.243 32.1422L22.4799 25.3532L15.7428 32.1422C15.3436 32.5414 14.8361 32.7331 14.2763 32.7331Z" fill="#ff383c"/>
 </g>
</svg>
