<?xml version="1.0" encoding="UTF-8"?>
<!--Generator: Apple Native CoreSVG 341-->
<!DOCTYPE svg
PUBLIC "-//W3C//DTD SVG 1.1//EN"
       "http://www.w3.org/Graphics/SVG/1.1/DTD/svg11.dtd">
<svg version="1.1" xmlns="http://www.w3.org/2000/svg" xmlns:xlink="http://www.w3.org/1999/xlink" viewBox="0 0 46.5052 46.5994">
 <g>
  <rect height="46.5994" opacity="0" width="46.5052" x="0" y="0"/>
  <path d="M44.2532 19.7303C45.5639 19.7303 46.5012 18.7512 46.5012 17.477L46.5012 3.93152C46.5012 1.44533 45.0559 0 42.5644 0L29.0242 0C27.7188 0 26.7139 0.942624 26.7139 2.24804C26.7139 3.55341 27.7293 4.47545 29.0242 4.47545L31.0739 4.47545L39.6019 3.96747L32.8338 10.3886L25.3063 17.9214C24.8711 18.3513 24.6277 18.9469 24.6277 19.5891C24.6277 20.9774 25.6532 21.8941 27.0363 21.8941C27.6319 21.8941 28.1964 21.6765 28.6057 21.2414L36.1121 13.6727L42.549 6.92518L42.031 15.4273L42.031 17.477C42.031 18.7824 42.9737 19.7303 44.2532 19.7303ZM17.477 46.5735C18.7823 46.5735 19.7873 45.6309 19.7873 44.3255C19.782 43.0201 18.7718 42.0981 17.477 42.0981L15.4532 42.0981L6.8993 42.6061L13.6673 36.185L21.1949 28.6575C21.6559 28.2223 21.8682 27.6266 21.8682 26.9845C21.8682 25.5962 20.8479 24.6794 19.4649 24.6794C18.8693 24.6794 18.3306 24.8971 17.8955 25.3322L10.4149 32.9009L3.978 39.6484L4.47016 31.1463L4.47016 29.0966C4.47016 27.7912 3.5534 26.8433 2.24803 26.8433C0.937337 26.8433 0 27.8224 0 29.0966L0 42.642C0 45.1282 1.44532 46.5735 3.93678 46.5735Z" fill="black"/>
 </g>
</svg>
