<?xml version="1.0" encoding="UTF-8"?>
<!--Generator: Apple Native CoreSVG 341-->
<!DOCTYPE svg
PUBLIC "-//W3C//DTD SVG 1.1//EN"
       "http://www.w3.org/Graphics/SVG/1.1/DTD/svg11.dtd">
<svg version="1.1" xmlns="http://www.w3.org/2000/svg" xmlns:xlink="http://www.w3.org/1999/xlink" viewBox="0 0 51.1647 46.635">
 <g>
  <rect height="46.635" opacity="0" width="51.1647" x="0" y="0"/>
  <path d="M6.66232 46.3785L44.5031 46.3785C48.6486 46.3785 51.1647 43.4834 51.1647 39.7433C51.1647 38.6065 50.8326 37.4074 50.2095 36.317L31.2712 3.33025C30.0002 1.13053 27.8263 0 25.5854 0C23.3391 0 21.1394 1.13053 19.8943 3.33025L0.955901 36.317C0.306978 37.4333 0.000730554 38.6065 0.000730554 39.7433C0.000730554 43.4834 2.51679 46.3785 6.66232 46.3785Z" fill="#ff383c" fill-opacity="0.18"/>
  <path d="M25.5854 30.0667C24.3212 30.0667 23.6009 29.3307 23.575 28.0506L23.264 14.7639C23.2381 13.4527 24.1966 12.5408 25.5595 12.5408C26.8912 12.5408 27.9015 13.4786 27.8756 14.7898L27.5128 28.0506C27.4922 29.3565 26.7925 30.0667 25.5854 30.0667ZM25.5854 38.2347C24.1179 38.2347 22.8427 37.073 22.8427 35.6214C22.8427 34.1593 24.092 32.9823 25.5854 32.9823C27.0475 32.9823 28.3022 34.1593 28.3022 35.6214C28.3022 37.0989 27.0475 38.2347 25.5854 38.2347Z" fill="#ff383c"/>
 </g>
</svg>
