<?xml version="1.0" encoding="UTF-8"?>
<!--Generator: Apple Native CoreSVG 341-->
<!DOCTYPE svg
PUBLIC "-//W3C//DTD SVG 1.1//EN"
       "http://www.w3.org/Graphics/SVG/1.1/DTD/svg11.dtd">
<svg version="1.1" xmlns="http://www.w3.org/2000/svg" xmlns:xlink="http://www.w3.org/1999/xlink" viewBox="0 0 49.7996 49.8046">
 <g>
  <rect height="49.8046" opacity="0" width="49.7996" x="0" y="0"/>
  <path d="M24.8867 49.7734C38.6277 49.7734 49.7993 38.6018 49.7993 24.8867C49.7993 11.1716 38.6277 0 24.8867 0C11.1716 0 8.88178e-16 11.1716 8.88178e-16 24.8867C8.88178e-16 38.6018 11.1716 49.7734 24.8867 49.7734Z" fill="black" fill-opacity="0.18"/>
  <path d="M16.5447 35.1727C15.8033 35.1727 15.29 34.6801 15.29 33.9128C15.29 33.5395 15.4664 33.1815 15.7204 32.7823L22.2917 22.4528L22.2917 22.1729L16.4201 22.1729C15.7774 22.1729 15.29 21.7115 15.29 21.0688C15.29 20.4467 15.7774 19.9593 16.4201 19.9593L24.2197 19.9593C25.2204 19.9593 25.6143 20.6078 25.6143 21.2969C25.6143 21.7895 25.4121 22.137 25.1216 22.6297L18.8507 32.7052L18.8507 32.9851L24.5671 32.9851C25.2357 32.9851 25.7489 33.4465 25.7489 34.0686C25.7489 34.7112 25.2357 35.1727 24.5671 35.1727ZM26.6327 25.8906C26.6327 25.4708 26.8815 25.0716 27.3895 24.7918L29.3171 23.7522L29.3171 15.1953C29.3171 14.2675 29.8769 13.7284 30.7529 13.7284C31.5978 13.7284 32.1317 14.2675 32.1317 15.2212L32.1317 22.2747L33.3692 21.6089C34.2505 21.1474 35.0436 21.8577 35.0436 22.599C35.0436 22.9982 34.8208 23.3922 34.3181 23.672L32.1317 24.8099L32.1317 33.9809C32.1317 34.9087 31.5978 35.4479 30.7529 35.4479C29.8769 35.4479 29.3171 34.9087 29.3171 33.9809L29.3171 26.2873L28.416 26.7825C27.4312 27.3216 26.6327 26.6373 26.6327 25.8906Z" fill="black"/>
 </g>
</svg>
