<?xml version="1.0" encoding="UTF-8"?>
<!--Generator: Apple Native CoreSVG 341-->
<!DOCTYPE svg
PUBLIC "-//W3C//DTD SVG 1.1//EN"
       "http://www.w3.org/Graphics/SVG/1.1/DTD/svg11.dtd">
<svg version="1.1" xmlns="http://www.w3.org/2000/svg" xmlns:xlink="http://www.w3.org/1999/xlink" viewBox="0 0 49.7996 49.8046">
 <g>
  <rect height="49.8046" opacity="0" width="49.7996" x="0" y="0"/>
  <path d="M24.8867 49.7734C38.6277 49.7734 49.7993 38.6018 49.7993 24.8867C49.7993 11.1716 38.6277 0 24.8867 0C11.1716 0 8.88178e-16 11.1716 8.88178e-16 24.8867C8.88178e-16 38.6018 11.1716 49.7734 24.8867 49.7734Z" fill="#ff383c" fill-opacity="0.18"/>
  <path d="M24.9126 38.0659C17.7026 38.0659 11.7334 32.0709 11.7334 24.8867C11.7334 21.2472 13.3274 17.6393 16.0535 15.2252C17.7634 13.5882 20.1259 16.0701 18.3538 17.7176C16.3427 19.5773 15.2461 22.1127 15.2461 24.8867C15.2461 30.2886 19.5365 34.6049 24.9126 34.6049C30.3092 34.6049 34.6308 30.2886 34.6308 24.8867C34.605 22.1127 33.4566 19.5773 31.4714 17.7436C29.6992 16.096 32.0618 13.6141 33.7976 15.2252C36.5237 17.6704 38.1177 21.2783 38.1177 24.8867C38.1177 32.0709 32.1173 38.0659 24.9126 38.0659ZM24.9126 25.4613C23.9436 25.4613 23.2598 24.7463 23.2598 23.7255L23.2598 12.7368C23.2598 11.716 23.9436 11.0063 24.9126 11.0063C25.9022 11.0063 26.5913 11.716 26.5913 12.7368L26.5913 23.7255C26.5913 24.7463 25.9022 25.4613 24.9126 25.4613Z" fill="#ff383c"/>
 </g>
</svg>
