<?xml version="1.0" encoding="UTF-8"?>
<!--Generator: Apple Native CoreSVG 341-->
<!DOCTYPE svg
PUBLIC "-//W3C//DTD SVG 1.1//EN"
       "http://www.w3.org/Graphics/SVG/1.1/DTD/svg11.dtd">
<svg version="1.1" xmlns="http://www.w3.org/2000/svg" xmlns:xlink="http://www.w3.org/1999/xlink" viewBox="0 0 55.4078 44.9754">
 <g>
  <rect height="44.9754" opacity="0" width="55.4078" x="0" y="0"/>
  <path d="M7.65907 44.675L48.4993 44.675C52.8649 44.675 55.4078 42.1215 55.4078 37.0937L55.4078 12.026C55.4078 6.99819 52.839 4.47059 47.7489 4.47059L23.1046 4.47059C21.4515 4.47059 20.4652 4.06612 19.2238 3.04235L17.7501 1.80682C16.1355 0.435613 14.8804 0 12.4864 0L6.72979 0C2.46918 0 8.81776e-05 2.42259 8.81776e-05 7.34016L8.81776e-05 37.0937C8.81776e-05 42.132 2.5689 44.675 7.65907 44.675ZM4.5064 13.4666L4.5064 12.0999C4.5064 10.6142 5.56559 9.67859 7.40029 9.67859L47.93 9.67859C49.7441 9.67859 50.8033 10.6142 50.8033 12.0999L50.8033 13.4666Z" fill="black"/>
 </g>
</svg>
