<?xml version="1.0" encoding="UTF-8"?>
<!--Generator: Apple Native CoreSVG 341-->
<!DOCTYPE svg
PUBLIC "-//W3C//DTD SVG 1.1//EN"
       "http://www.w3.org/Graphics/SVG/1.1/DTD/svg11.dtd">
<svg version="1.1" xmlns="http://www.w3.org/2000/svg" xmlns:xlink="http://www.w3.org/1999/xlink" viewBox="0 0 49.7996 49.8046">
 <g>
  <rect height="49.8046" opacity="0" width="49.7996" x="0" y="0"/>
  <path d="M24.8867 49.7734C38.6382 49.7734 49.7993 38.6382 49.7993 24.8867C49.7993 11.1352 38.6382 0 24.8867 0C11.1611 0 8.88178e-16 11.1352 8.88178e-16 24.8867C8.88178e-16 38.6382 11.1611 49.7734 24.8867 49.7734ZM24.8867 45.6397C13.4144 45.6397 4.15433 36.3591 4.15433 24.8867C4.15433 13.4144 13.4144 4.13375 24.8867 4.13375C36.359 4.13375 45.6397 13.4144 45.6397 24.8867C45.6397 36.3591 36.359 45.6397 24.8867 45.6397Z" fill="black" fill-opacity="0.5"/>
  <path d="M24.8608 36.9818C30.9087 36.9818 35.7463 32.1078 35.7463 26.0858C35.7463 25.1739 34.9743 24.4277 34.0676 24.4277C33.1504 24.4277 32.3783 25.1739 32.3783 26.0858C32.3783 30.2786 29.0483 33.6397 24.8608 33.6397C20.694 33.6397 17.3381 30.2838 17.3381 26.0858C17.3381 21.8984 20.694 18.5736 24.8608 18.5736C25.7399 18.5736 26.5408 18.5947 27.2467 18.6264C28.1903 18.6786 28.9159 17.9166 28.9159 17.0305C28.9159 16.1291 28.2426 15.4141 27.3254 15.3983C26.3011 15.3144 25.3454 15.3038 24.3951 15.3038C18.9218 15.3038 13.996 20.0174 13.996 26.0082C13.996 32.1078 18.8442 36.9818 24.8608 36.9818ZM30.7198 17.2692C30.7198 16.87 30.5745 16.4449 30.2635 16.1857L25.5369 11.448C25.2935 11.2046 24.8684 10.9765 24.4539 10.9765C23.5884 10.9765 22.9198 11.6708 22.9198 12.5311C22.9198 12.9614 23.0857 13.3554 23.3866 13.6563L27.103 17.2692L23.3866 20.908C23.0857 21.209 22.9198 21.6029 22.9198 22.0332C22.9198 22.8882 23.5884 23.562 24.4539 23.562C24.8684 23.562 25.2676 23.3856 25.5369 23.1163L30.2635 18.3734C30.5745 18.1141 30.7198 17.6943 30.7198 17.2692Z" fill="black"/>
 </g>
</svg>
