<?xml version="1.0" encoding="UTF-8"?>
<!--Generator: Apple Native CoreSVG 341-->
<!DOCTYPE svg
PUBLIC "-//W3C//DTD SVG 1.1//EN"
       "http://www.w3.org/Graphics/SVG/1.1/DTD/svg11.dtd">
<svg version="1.1" xmlns="http://www.w3.org/2000/svg" xmlns:xlink="http://www.w3.org/1999/xlink" viewBox="0 0 41.0626 54.0562">
 <g>
  <rect height="54.0562" opacity="0" width="41.0626" x="0" y="0"/>
  <path d="M0.00025063 51.1043C0.00025063 53.6855 2.74143 54.9808 5.2291 53.3021L8.17678 51.3749L11.4492 53.5608C12.0359 53.9553 12.5496 53.9864 13.1621 53.5608L16.3766 51.349L19.6491 53.5608C20.2357 53.9812 20.7495 53.9812 21.362 53.5608L24.6345 51.349L27.8542 53.5608C28.5185 54.0123 28.9287 54.007 29.5618 53.5608L32.8602 51.3802L35.8337 53.3021C38.2802 54.9808 41.0626 53.6855 41.0626 51.1043L41.0626 8.41203C41.0626 3.37365 38.499 0.856603 33.4036 0.856603L7.65923 0.856603C2.54321 0.856603 0.00025063 3.37365 0.00025063 8.41203ZM3.927 49.7286L3.927 8.62963C3.927 6.09321 5.28335 4.78331 7.72155 4.78331L33.3413 4.78331C35.7795 4.78331 37.1152 6.09321 37.1152 8.62963L37.0894 49.7286L33.6544 47.4851C33.1042 47.0859 32.5698 47.0754 31.9937 47.4851L28.7106 49.7075L25.4751 47.4851C24.9302 47.0754 24.3906 47.0754 23.8197 47.4851L20.5055 49.7075L17.2225 47.4851C16.6517 47.0806 16.112 47.0754 15.536 47.4851L12.3057 49.7075L9.01735 47.4851C8.4413 47.0754 7.91221 47.0859 7.34144 47.4851ZM10.2866 14.9435L22.5895 14.9435C23.4756 14.9435 24.1182 14.3061 24.1182 13.4718C24.1182 12.6116 23.4756 11.9483 22.5895 11.9483L10.2866 11.9483C9.42109 11.9483 8.7837 12.6116 8.7837 13.4718C8.7837 14.3061 9.42109 14.9435 10.2866 14.9435ZM28.6373 14.9435L30.7034 14.9435C31.5948 14.9435 32.2374 14.3061 32.2374 13.4718C32.2374 12.6116 31.5948 11.9483 30.7034 11.9483L28.6373 11.9483C27.803 11.9483 27.1345 12.6116 27.1345 13.4718C27.1345 14.3061 27.803 14.9435 28.6373 14.9435ZM10.2866 23.6661L22.5895 23.6661C23.4756 23.6661 24.1182 23.0288 24.1182 22.1944C24.1182 21.3343 23.4756 20.671 22.5895 20.671L10.2866 20.671C9.42109 20.671 8.7837 21.3343 8.7837 22.1944C8.7837 23.0288 9.42109 23.6661 10.2866 23.6661ZM28.6373 23.6661L30.7034 23.6661C31.5948 23.6661 32.2374 23.0288 32.2374 22.1944C32.2374 21.3343 31.5948 20.671 30.7034 20.671L28.6373 20.671C27.803 20.671 27.1345 21.3343 27.1345 22.1944C27.1345 23.0288 27.803 23.6661 28.6373 23.6661ZM10.2866 32.2335L22.6159 32.2335C23.5019 32.2335 24.1446 31.5703 24.1446 30.736C24.1446 29.9069 23.5019 29.2125 22.6159 29.2125L10.2866 29.2125C9.42109 29.2125 8.7837 29.9069 8.7837 30.736C8.7837 31.5703 9.42109 32.2335 10.2866 32.2335ZM28.6109 32.2335L30.7034 32.2335C31.5948 32.2335 32.2374 31.5703 32.2374 30.736C32.2374 29.9069 31.5948 29.2125 30.7034 29.2125L28.6109 29.2125C27.7507 29.2125 27.1081 29.9069 27.1081 30.736C27.1081 31.5703 27.7507 32.2335 28.6109 32.2335ZM10.2866 40.9562L22.6159 40.9562C23.5019 40.9562 24.1446 40.2929 24.1446 39.4586C24.1446 38.6295 23.5019 37.9351 22.6159 37.9351L10.2866 37.9351C9.42109 37.9351 8.7837 38.6295 8.7837 39.4586C8.7837 40.2929 9.42109 40.9562 10.2866 40.9562ZM28.6109 40.9562L30.7034 40.9562C31.5948 40.9562 32.2374 40.2929 32.2374 39.4586C32.2374 38.6295 31.5948 37.9351 30.7034 37.9351L28.6109 37.9351C27.7507 37.9351 27.1081 38.6295 27.1081 39.4586C27.1081 40.2929 27.7507 40.9562 28.6109 40.9562Z" fill="black"/>
 </g>
</svg>
