<?xml version="1.0" encoding="UTF-8"?>
<!--Generator: Apple Native CoreSVG 341-->
<!DOCTYPE svg
PUBLIC "-//W3C//DTD SVG 1.1//EN"
       "http://www.w3.org/Graphics/SVG/1.1/DTD/svg11.dtd">
<svg version="1.1" xmlns="http://www.w3.org/2000/svg" xmlns:xlink="http://www.w3.org/1999/xlink" viewBox="0 0 47.6848 58.0525">
 <g>
  <rect height="58.0525" opacity="0" width="47.6848" x="0" y="0"/>
  <path d="M23.6502 18.5397C26.5881 18.5397 28.9757 16.152 28.9757 13.2142C28.9757 10.2451 26.5881 7.87808 23.6502 7.87808C20.6812 7.87808 18.2882 10.2451 18.2882 13.2142C18.2882 16.152 20.6812 18.5397 23.6502 18.5397ZM45.2036 58.0525C46.5791 58.0525 47.6848 56.9209 47.6848 55.5713L47.6848 43.2227C47.6848 42.361 47.228 41.6861 46.5791 41.136L36.9608 33.2358L35.0869 22.9375C34.9 21.8682 35.0246 20.8613 35.5489 19.8438L43.6101 3.70089C44.2226 2.50178 43.7036 1.00167 42.4785 0.389162C41.2794-0.223296 39.7794 0.269835 39.1668 1.46368L31.2355 17.3627C30.6801 18.4995 29.8807 19.2313 28.6868 19.7245L14.6876 25.5432L9.04529 21.0118C8.62872 20.694 8.13884 20.5646 7.74869 20.5814L7.74869 13.8694L5.03819 13.8694L5.03819 22.844C5.03819 23.6746 5.28212 24.3805 5.92049 24.8995L12.8137 30.355C13.6443 31.0298 14.563 30.9675 15.6375 30.5366L23.2937 27.3236C24.3629 26.8669 24.8873 27.4742 25.0119 28.2113L28.8114 49.0778L18.3315 53.2718C17.0753 53.765 16.4316 55.2028 16.9248 56.4901C17.5061 57.9278 18.9181 58.3276 20.143 57.8397L32.5176 52.9033C33.5921 52.4724 34.1681 51.4032 34.0799 50.3028L33.3793 40.6792C33.2911 39.6047 34.4797 38.9975 35.2997 39.5477L42.7225 44.5412L42.7225 55.5713C42.7225 56.9209 43.8229 58.0525 45.2036 58.0525ZM6.38575 0.86853C2.8211 0.86853 0.00353812 3.71191 0.00353812 7.30249C0.00353812 10.5926 2.78944 14.2053 6.38575 15.4091C10.0027 14.2053 12.7886 10.5926 12.7886 7.30249C12.7886 3.71191 9.97106 0.86853 6.38575 0.86853ZM6.38575 3.58432C8.46293 3.58432 10.0728 5.24595 10.0728 7.38013C10.0728 9.48845 8.51569 11.7636 6.38575 12.5017C4.28174 11.7636 2.71936 9.48845 2.71936 7.38013C2.71936 5.24595 4.32922 3.58432 6.38575 3.58432Z" fill="black"/>
 </g>
</svg>
