<?xml version="1.0" encoding="UTF-8"?>
<!--Generator: Apple Native CoreSVG 341-->
<!DOCTYPE svg
PUBLIC "-//W3C//DTD SVG 1.1//EN"
       "http://www.w3.org/Graphics/SVG/1.1/DTD/svg11.dtd">
<svg version="1.1" xmlns="http://www.w3.org/2000/svg" xmlns:xlink="http://www.w3.org/1999/xlink" viewBox="0 0 47.2483 58.693">
 <g>
  <rect height="58.693" opacity="0" width="47.2483" x="0" y="0"/>
  <path d="M16.3932 46.4873C17.3363 46.4873 17.9372 45.9017 17.9114 45.0468L17.1579 18.9427C17.132 18.0619 16.5153 17.5127 15.6397 17.5127C14.7278 17.5127 14.0957 18.0877 14.1216 18.9532L14.875 45.052C14.9008 45.9329 15.5071 46.4873 16.3932 46.4873ZM23.6263 46.4873C24.5641 46.4873 25.1963 45.907 25.1963 45.0468L25.1963 18.9532C25.1963 18.093 24.5641 17.5127 23.6263 17.5127C22.6937 17.5127 22.0564 18.093 22.0564 18.9532L22.0564 45.0468C22.0564 45.907 22.6937 46.4873 23.6263 46.4873ZM30.88 46.4979C31.7455 46.4979 32.3776 45.9381 32.4035 45.0573L33.1311 18.9585C33.1569 18.093 32.5454 17.5179 31.6128 17.5179C30.732 17.5179 30.1153 18.093 30.0894 18.9479L29.3618 45.052C29.3359 45.907 29.9422 46.4979 30.88 46.4979ZM12.9229 11.1576L16.7979 11.1576L16.7979 5.95033C16.7979 4.54122 17.77 3.64207 19.2366 3.64207L27.9849 3.64207C29.4309 3.64207 30.4029 4.54122 30.4029 5.95033L30.4029 11.1576L34.3037 11.1576L34.3037 5.69156C34.3037 2.16858 32.0053 0 28.233 0L18.9625 0C15.2214 0 12.9229 2.16858 12.9229 5.69156ZM1.81338 13.0951L45.4392 13.0951C46.4547 13.0951 47.2473 12.2713 47.2473 11.2611C47.2473 10.2403 46.4235 9.4271 45.4392 9.4271L1.81338 9.4271C0.854935 9.4271 8.88178e-16 10.2456 8.88178e-16 11.2611C8.88178e-16 12.2765 0.854935 13.0951 1.81338 13.0951ZM12.4541 54.3453L34.8243 54.3453C38.3151 54.3453 40.6664 52.0927 40.8427 48.5866L42.5365 12.6489L38.6199 12.6489L36.9831 48.1826C36.9155 49.6478 35.8807 50.6773 34.4309 50.6773L12.7853 50.6773C11.3925 50.6773 10.3318 49.6219 10.2642 48.1826L8.54457 12.6541L4.71603 12.6541L6.44098 48.6125C6.61735 52.1186 8.91156 54.3453 12.4541 54.3453Z" fill="#ff383c"/>
 </g>
</svg>
