<?xml version="1.0" encoding="UTF-8"?>
<!--Generator: Apple Native CoreSVG 341-->
<!DOCTYPE svg
PUBLIC "-//W3C//DTD SVG 1.1//EN"
       "http://www.w3.org/Graphics/SVG/1.1/DTD/svg11.dtd">
<svg version="1.1" xmlns="http://www.w3.org/2000/svg" xmlns:xlink="http://www.w3.org/1999/xlink" viewBox="0 0 46.4059 56.0517">
 <g>
  <rect height="56.0517" opacity="0" width="46.4059" x="0" y="0"/>
  <path d="M10.1361 32.5545L12.7531 29.8565L4.03877 12.775L7.98282 6.75708L18.2907 27.0526L22.2998 26.4142L10.3607 4.17593L36.0669 4.17593L24.1278 26.4142L28.1316 27.0526L38.4137 6.75708L42.3577 12.775L33.6486 29.8565L36.2657 32.5545L46.098 14.1269C46.5331 13.3136 46.5073 12.4017 46.0151 11.6349L39.3817 1.50763C38.8947 0.782606 38.2732 0.48209 37.3253 0.48209L9.10228 0.48209C8.12324 0.48209 7.50695 0.782606 7.02006 1.50763L0.386619 11.6349C-0.105533 12.4017-0.131411 13.3136 0.329618 14.1269ZM14.1703 15.3675L32.2832 15.3675L32.2832 11.6995L14.1703 11.6995ZM23.1982 56.0517C32.0621 56.0517 39.203 48.8849 39.203 40.0469C39.203 31.183 32.0621 24.0162 23.1982 24.0162C14.3602 24.0162 7.19873 31.183 7.19873 40.0469C7.19873 48.8849 14.3602 56.0517 23.1982 56.0517ZM23.1982 52.3578C16.4118 52.3578 10.8926 46.8592 10.8926 40.0469C10.8926 33.2346 16.3859 27.7101 23.1982 27.7101C30.0106 27.7101 35.535 33.2087 35.535 40.0469C35.535 46.8333 30.0106 52.3578 23.1982 52.3578ZM18.9246 47.7516L23.2241 44.61L27.5289 47.7516C28.4203 48.4201 29.348 47.7257 29.037 46.715L27.2978 41.6055L31.6544 38.495C32.4676 37.9253 32.2347 36.7382 31.1152 36.7382L25.7565 36.7899L24.1208 31.6804C23.815 30.6544 22.6438 30.6544 22.3121 31.6804L20.6764 36.7899L15.3436 36.7382C14.2035 36.7382 13.9389 37.9147 14.7785 38.5003L19.161 41.6055L17.427 46.715C17.0901 47.7257 18.0179 48.4148 18.9246 47.7516Z" fill="black"/>
 </g>
</svg>
