<?xml version="1.0" encoding="UTF-8"?>
<!--Generator: Apple Native CoreSVG 341-->
<!DOCTYPE svg
PUBLIC "-//W3C//DTD SVG 1.1//EN"
       "http://www.w3.org/Graphics/SVG/1.1/DTD/svg11.dtd">
<svg version="1.1" xmlns="http://www.w3.org/2000/svg" xmlns:xlink="http://www.w3.org/1999/xlink" viewBox="0 0 55.1493 53.353">
 <g>
  <rect height="53.353" opacity="0" width="55.1493" x="0" y="0"/>
  <path d="M45.4672 7.67028L45.4672 8.95305L41.6905 8.95305L41.6905 7.38564C41.6905 5.37359 40.6624 4.36615 38.6192 4.36615L16.5302 4.36615C14.4922 4.36615 13.4642 5.37359 13.4642 7.38564L13.4642 8.95305L9.65631 8.95305L9.65631 7.67028C9.65631 2.90271 12.2802 0.801679 16.582 0.801679L38.5675 0.801679C43.1022 0.801679 45.4672 2.90271 45.4672 7.67028Z" fill="black"/>
  <path d="M55.1493 16.1083L55.1493 38.9746C55.1493 43.7173 52.628 46.1299 47.88 46.1299L45.3172 46.1299L45.3172 42.436L47.9318 42.436C50.0795 42.436 51.1862 41.3241 51.1862 39.1505L51.1862 15.9324C51.1862 13.7847 50.0795 12.6416 47.9318 12.6416L7.21764 12.6416C5.06992 12.6416 3.93738 13.7847 3.93738 15.9324L3.93738 39.1505C3.93738 41.3241 5.06992 42.436 7.21764 42.436L9.83744 42.436L9.83744 46.1299L7.26942 46.1299C2.52141 46.1299 7.656e-05 43.7173 7.656e-05 38.9746L7.656e-05 16.1083C7.656e-05 11.3656 2.75432 8.95305 7.26942 8.95305L47.88 8.95305C52.628 8.95305 55.1493 11.3656 55.1493 16.1083ZM45.4725 18.4379C45.4725 20.1144 44.1176 21.4899 42.457 21.4899C40.7752 21.4899 39.4204 20.1302 39.4204 18.4379C39.4204 16.7979 40.7752 15.4119 42.457 15.4119C44.1176 15.4119 45.4725 16.7979 45.4725 18.4379Z" fill="black"/>
  <path d="M14.4965 53.353L40.6529 53.353C43.7438 53.353 45.3172 51.94 45.3172 48.6939L45.3172 28.7931C45.3172 25.5417 43.7438 24.134 40.6529 24.134L14.4965 24.134C11.5556 24.134 9.83744 25.5417 9.83744 28.7931L9.83744 48.6939C9.83744 51.94 11.4056 53.353 14.4965 53.353ZM15.7074 49.685C14.4146 49.685 13.7694 49.0604 13.7694 47.7159L13.7694 29.7453C13.7694 28.4213 14.4146 27.802 15.7074 27.802L39.442 27.802C40.7607 27.802 41.3541 28.4213 41.3541 29.7453L41.3541 47.7159C41.3541 49.0604 40.7607 49.685 39.442 49.685ZM19.1214 35.9886L36.0798 35.9886C36.9453 35.9886 37.5826 35.32 37.5826 34.4651C37.5826 33.6308 36.9453 32.9934 36.0798 32.9934L19.1214 32.9934C18.23 32.9934 17.5668 33.6308 17.5668 34.4651C17.5668 35.32 18.23 35.9886 19.1214 35.9886ZM19.1214 44.4936L36.0798 44.4936C36.9453 44.4936 37.5826 43.851 37.5826 43.0219C37.5826 42.1617 36.9453 41.4985 36.0798 41.4985L19.1214 41.4985C18.23 41.4985 17.5668 42.1617 17.5668 43.0219C17.5668 43.851 18.23 44.4936 19.1214 44.4936Z" fill="black"/>
 </g>
</svg>
