<?xml version="1.0" encoding="UTF-8"?>
<!--Generator: Apple Native CoreSVG 341-->
<!DOCTYPE svg
PUBLIC "-//W3C//DTD SVG 1.1//EN"
       "http://www.w3.org/Graphics/SVG/1.1/DTD/svg11.dtd">
<svg version="1.1" xmlns="http://www.w3.org/2000/svg" xmlns:xlink="http://www.w3.org/1999/xlink" viewBox="0 0 42.6388 45.2267">
 <g>
  <rect height="45.2267" opacity="0" width="42.6388" x="0" y="0"/>
  <path d="M5.98156 45.2008L36.654 45.2008C40.72 45.2008 42.6388 43.9816 42.6388 41.3045C42.6388 34.9082 34.5761 25.6421 21.3178 25.6421C8.09063 25.6421 0.00205359 34.9082 0.00205359 41.3045C0.00205359 43.9816 1.94154 45.2008 5.98156 45.2008ZM4.82242 41.507C4.18953 41.507 3.9288 41.3502 3.9288 40.8387C3.9288 36.8193 10.1211 29.336 21.3178 29.336C32.5198 29.336 38.7121 36.8193 38.7121 40.8387C38.7121 41.3502 38.4513 41.507 37.8132 41.507ZM21.3283 22.6021C27.1475 22.6021 31.8707 17.4375 31.8707 11.1505C31.8707 4.92158 27.1729 0 21.3283 0C15.5355 0 10.7913 5.0045 10.7913 11.2023C10.7913 17.4634 15.5403 22.6021 21.3283 22.6021ZM21.3283 18.9341C17.773 18.9341 14.718 15.5154 14.718 11.2023C14.718 6.95254 17.7112 3.69384 21.3283 3.69384C24.9661 3.69384 27.944 6.89548 27.944 11.1505C27.944 15.4636 24.9355 18.9341 21.3283 18.9341Z" fill="black"/>
 </g>
</svg>
