<?xml version="1.0" encoding="UTF-8"?>
<!--Generator: Apple Native CoreSVG 341-->
<!DOCTYPE svg
PUBLIC "-//W3C//DTD SVG 1.1//EN"
       "http://www.w3.org/Graphics/SVG/1.1/DTD/svg11.dtd">
<svg version="1.1" xmlns="http://www.w3.org/2000/svg" xmlns:xlink="http://www.w3.org/1999/xlink" viewBox="0 0 46.1132 45.6071">
 <g>
  <rect height="45.6071" opacity="0" width="46.1132" x="0" y="0"/>
  <path d="M0 16.4359C0 17.0315 0.243457 17.5961 0.730341 18.0571L15.0677 32.162C15.5028 32.566 16.1138 32.8353 16.663 32.8353C17.9631 32.8353 18.8075 31.9392 18.8075 30.6755C18.8075 30.0487 18.6158 29.5512 18.2118 29.1731L11.1855 22.3073L4.29958 16.4359L11.1855 10.5385L18.2118 3.69331C18.6158 3.28934 18.8075 2.82311 18.8075 2.19625C18.8075 0.932582 17.9631 0.0311807 16.663 0.0311807C16.1138 0.0311807 15.5028 0.300457 15.0677 0.709751L0.730341 14.8147C0.243457 15.2757 0 15.835 0 16.4359ZM21.2142 43.4161C21.2142 44.6074 22.0792 45.6071 23.4258 45.6071L29.0543 45.6071C39.9813 45.6071 46.112 39.3532 46.112 30.0269C46.112 20.6746 39.826 14.2449 28.6715 14.2449L12.2929 14.2449L4.20032 14.6177C3.20069 14.6695 2.38216 15.4309 2.38216 16.4359C2.38216 17.4355 3.20069 18.2023 4.20032 18.2541L12.2929 18.6216L29.0438 18.6216C37.3605 18.6216 41.7612 23.1972 41.7612 29.7734C41.7612 36.3442 37.3605 41.2251 29.0438 41.2251L23.4205 41.2251C22.074 41.2251 21.2142 42.2248 21.2142 43.4161Z" fill="black"/>
 </g>
</svg>
