<?xml version="1.0" encoding="UTF-8"?>
<!--Generator: Apple Native CoreSVG 341-->
<!DOCTYPE svg
PUBLIC "-//W3C//DTD SVG 1.1//EN"
       "http://www.w3.org/Graphics/SVG/1.1/DTD/svg11.dtd">
<svg version="1.1" xmlns="http://www.w3.org/2000/svg" xmlns:xlink="http://www.w3.org/1999/xlink" viewBox="0 0 53.6248 53.4816">
 <g>
  <rect height="53.4816" opacity="0" width="53.6248" x="0" y="0"/>
  <path d="M30.5406 53.4816C32.3138 53.4816 33.5478 51.9787 34.4656 49.6141L50.4439 7.85293C50.8896 6.73873 51.1331 5.74387 51.1331 4.90951C51.1331 3.31268 50.143 2.32262 48.572 2.32262C47.7377 2.32262 46.7428 2.5919 45.6286 3.01174L3.63979 19.1195C1.58049 19.882 8.88178e-16 21.1419 8.88178e-16 22.9409C8.88178e-16 25.1646 1.71515 25.9376 4.0601 26.6225L17.2338 30.6499C18.7883 31.1214 19.6602 31.0845 20.7226 30.105L47.4784 5.09064C47.8 4.80022 48.1733 4.84144 48.4067 5.04896C48.666 5.28234 48.6813 5.68154 48.3909 6.00312L23.4748 32.8572C22.5417 33.8679 22.4325 34.6879 22.9299 36.3201L26.8073 49.2197C27.5181 51.6576 28.2858 53.4816 30.5406 53.4816Z" fill="black"/>
 </g>
</svg>
