<?xml version="1.0" encoding="UTF-8"?>
<!--Generator: Apple Native CoreSVG 341-->
<!DOCTYPE svg
PUBLIC "-//W3C//DTD SVG 1.1//EN"
       "http://www.w3.org/Graphics/SVG/1.1/DTD/svg11.dtd">
<svg version="1.1" xmlns="http://www.w3.org/2000/svg" xmlns:xlink="http://www.w3.org/1999/xlink" viewBox="0 0 41.0626 54.0562">
 <g>
  <rect height="54.0562" opacity="0" width="41.0626" x="0" y="0"/>
  <path d="M0.00025063 51.1043C0.00025063 53.6855 2.74143 54.9808 5.2291 53.3021L8.17678 51.3749L11.4492 53.5608C12.0359 53.9553 12.5496 53.9864 13.1621 53.5608L16.3766 51.349L19.6491 53.5608C20.2357 53.9812 20.7495 53.9812 21.362 53.5608L24.6345 51.349L27.8542 53.5608C28.5185 54.0123 28.9287 54.007 29.5618 53.5608L32.8602 51.3802L35.8337 53.3021C38.2802 54.9808 41.0626 53.6855 41.0626 51.1043L41.0626 8.41203C41.0626 3.37365 38.499 0.856603 33.4036 0.856603L7.65923 0.856603C2.54321 0.856603 0.00025063 3.37365 0.00025063 8.41203ZM9.97603 14.6124C9.08994 14.6124 8.42141 13.9438 8.42141 13.0578C8.42141 12.1769 9.08994 11.4825 9.97603 11.4825L22.6413 11.4825C23.5791 11.4825 24.2476 12.1769 24.2476 13.0578C24.2476 13.9438 23.5791 14.6124 22.6413 14.6124ZM28.8961 14.6124C28.01 14.6124 27.3415 13.9438 27.3415 13.0578C27.3415 12.1769 28.01 11.4825 28.8961 11.4825L31.0398 11.4825C31.9312 11.4825 32.6203 12.1769 32.6203 13.0578C32.6203 13.9438 31.9312 14.6124 31.0398 14.6124ZM9.97603 23.5885C9.08994 23.5885 8.42141 22.9253 8.42141 22.0651C8.42141 21.1843 9.08994 20.464 9.97603 20.464L22.6413 20.464C23.5791 20.464 24.2476 21.1843 24.2476 22.0651C24.2476 22.9253 23.5791 23.5885 22.6413 23.5885ZM28.8961 23.5885C28.01 23.5885 27.3415 22.9253 27.3415 22.0651C27.3415 21.1843 28.01 20.464 28.8961 20.464L31.0398 20.464C31.9312 20.464 32.6203 21.1843 32.6203 22.0651C32.6203 22.9253 31.9312 23.5885 31.0398 23.5885ZM9.97603 32.4147C9.08994 32.4147 8.42141 31.7515 8.42141 30.8654C8.42141 29.9846 9.08994 29.2902 9.97603 29.2902L22.6676 29.2902C23.6054 29.2902 24.274 29.9846 24.274 30.8654C24.274 31.7515 23.6054 32.4147 22.6676 32.4147ZM28.8697 32.4147C27.9836 32.4147 27.3151 31.7515 27.3151 30.8654C27.3151 29.9846 27.9836 29.2902 28.8697 29.2902L31.0398 29.2902C31.9312 29.2902 32.6203 29.9846 32.6203 30.8654C32.6203 31.7515 31.9312 32.4147 31.0398 32.4147ZM9.97603 41.422C9.08994 41.422 8.42141 40.7276 8.42141 39.8985C8.42141 38.9865 9.08994 38.2974 9.97603 38.2974L22.6676 38.2974C23.6054 38.2974 24.274 38.9865 24.274 39.8985C24.274 40.7276 23.6054 41.422 22.6676 41.422ZM28.8697 41.422C27.9836 41.422 27.3151 40.7276 27.3151 39.8985C27.3151 38.9865 27.9836 38.2974 28.8697 38.2974L31.0398 38.2974C31.9312 38.2974 32.6203 38.9865 32.6203 39.8985C32.6203 40.7276 31.9312 41.422 31.0398 41.422Z" fill="black"/>
 </g>
</svg>
