<?xml version="1.0" encoding="UTF-8"?>
<!--Generator: Apple Native CoreSVG 341-->
<!DOCTYPE svg
PUBLIC "-//W3C//DTD SVG 1.1//EN"
       "http://www.w3.org/Graphics/SVG/1.1/DTD/svg11.dtd">
<svg version="1.1" xmlns="http://www.w3.org/2000/svg" xmlns:xlink="http://www.w3.org/1999/xlink" viewBox="0 0 41.0626 67.6348">
 <g>
  <rect height="67.6348" opacity="0" width="41.0626" x="0" y="0"/>
  <path d="M41.0626 17.2923L41.0626 54.3073C41.0626 59.4234 38.5249 61.961 33.4812 61.961L7.55572 61.961C2.51733 61.961 0.00025063 59.4234 0.00025063 54.3073L0.00025063 17.2923C0.00025063 12.2022 2.51733 9.63335 7.55572 9.63335L7.88997 9.63335C7.86875 9.83377 7.8589 10.0398 7.8589 10.2502L7.8589 12.8195C7.8589 13.0829 7.87435 13.3396 7.90992 13.586L7.77328 13.586C5.23163 13.586 3.927 14.9165 3.927 17.3547L3.927 54.245C3.927 56.6779 5.23163 58.0396 7.77328 58.0396L33.2895 58.0396C35.8053 58.0396 37.1152 56.6779 37.1152 54.245L37.1152 17.3547C37.1152 14.9165 35.8053 13.586 33.2895 13.586L33.1523 13.586C33.1883 13.3396 33.2039 13.0829 33.2039 12.8195L33.2039 10.2502C33.2039 10.0398 33.194 9.83377 33.1725 9.63335L33.4812 9.63335C38.5249 9.63335 41.0626 12.2022 41.0626 17.2923Z" fill="black" fill-opacity="0.5"/>
  <path d="M12.983 15.2305L28.054 15.2305C29.4855 15.2305 30.3567 14.3386 30.3567 12.8195L30.3567 10.2502C30.3567 8.72569 29.4855 7.83909 28.054 7.83909L25.8233 7.83909C25.6681 5.0733 23.3695 2.84716 20.5314 2.84716C17.6986 2.84716 15.3948 5.0733 15.2136 7.83909L12.983 7.83909C11.5568 7.83909 10.7061 8.72569 10.7061 10.2502L10.7061 12.8195C10.7061 14.3386 11.5568 15.2305 12.983 15.2305ZM20.5314 10.1597C19.3577 10.1597 18.3867 9.1834 18.3867 8.01495C18.3867 6.83596 19.3577 5.89082 20.5314 5.89082C21.7052 5.89082 22.6503 6.83596 22.6503 8.01495C22.6503 9.1834 21.7052 10.1597 20.5314 10.1597Z" fill="black" fill-opacity="0.5"/>
  <path d="M9.75498 28.8547L31.3079 28.8547C32.1369 28.8547 32.8313 28.1603 32.8313 27.3312C32.8313 26.4968 32.1369 25.8025 31.3079 25.8025L9.75498 25.8025C8.92594 25.8025 8.2315 26.4968 8.2315 27.3312C8.2315 28.1603 8.92594 28.8547 9.75498 28.8547ZM9.75498 37.5059L31.3079 37.5059C32.1628 37.5059 32.8313 36.8427 32.8313 35.9825C32.8313 35.1481 32.1628 34.4849 31.3079 34.4849L9.75498 34.4849C8.90003 34.4849 8.2315 35.1481 8.2315 35.9825C8.2315 36.8427 8.90003 37.5059 9.75498 37.5059ZM9.75498 46.6456L20.594 46.6456C21.423 46.6456 22.1174 45.9513 22.1174 45.1169C22.1174 44.2879 21.4489 43.6193 20.594 43.6193L9.75498 43.6193C8.90003 43.6193 8.2315 44.2879 8.2315 45.1169C8.2315 45.9513 8.92594 46.6456 9.75498 46.6456Z" fill="black"/>
 </g>
</svg>
