<?xml version="1.0" encoding="UTF-8"?>
<!--Generator: Apple Native CoreSVG 341-->
<!DOCTYPE svg
PUBLIC "-//W3C//DTD SVG 1.1//EN"
       "http://www.w3.org/Graphics/SVG/1.1/DTD/svg11.dtd">
<svg version="1.1" xmlns="http://www.w3.org/2000/svg" xmlns:xlink="http://www.w3.org/1999/xlink" viewBox="0 0 54.1412 44.9976">
 <g>
  <rect height="44.9976" opacity="0" width="54.1412" x="0" y="0"/>
  <path d="M45.2367 44.9976C50.301 44.9976 52.8957 42.4546 52.8957 37.4162L52.8957 7.62303C52.8957 2.58465 50.301 0.0416979 45.2367 0.0416979L24.015 0.0416979C21.1446 0.0416979 18.7015 0.808972 16.6828 2.90519L2.3191 17.8493C0.731327 19.4835 0 20.9467 0 22.4779C0 24.0092 0.70018 25.4776 2.3191 27.1118L16.7087 41.9715C18.7326 44.0678 21.1706 44.9717 24.0408 44.9717Z" fill="#ff383c" fill-opacity="0.18"/>
  <path d="M22.7036 32.7542C21.5793 32.7542 20.6985 31.8528 20.6985 30.7079C20.6985 30.1794 20.8902 29.6924 21.2841 29.2985L28.0577 22.5249L21.2841 15.7513C20.8902 15.3574 20.6985 14.8705 20.6985 14.3419C20.6985 13.2229 21.5793 12.3474 22.7036 12.3474C23.2633 12.3474 23.6984 12.5391 24.0976 12.9124L30.9072 19.7013L37.7737 12.8865C38.1729 12.4873 38.6392 12.2956 39.1625 12.2956C40.2662 12.2956 41.1676 13.1971 41.1676 14.2901C41.1676 14.8446 41.0018 15.3056 40.5873 15.7254L33.7878 22.5249L40.5614 29.2726C40.95 29.6666 41.1417 30.1534 41.1417 30.7079C41.1417 31.8528 40.2403 32.7542 39.1108 32.7542C38.5616 32.7542 38.0436 32.5625 37.6702 32.1633L30.9072 25.3743L24.1753 32.1633C23.7761 32.5625 23.2633 32.7542 22.7036 32.7542Z" fill="#ff383c"/>
 </g>
</svg>
