<?xml version="1.0" encoding="UTF-8"?>
<!--Generator: Apple Native CoreSVG 341-->
<!DOCTYPE svg
PUBLIC "-//W3C//DTD SVG 1.1//EN"
       "http://www.w3.org/Graphics/SVG/1.1/DTD/svg11.dtd">
<svg version="1.1" xmlns="http://www.w3.org/2000/svg" xmlns:xlink="http://www.w3.org/1999/xlink" viewBox="0 0 49.7996 49.8046">
 <g>
  <rect height="49.8046" opacity="0" width="49.7996" x="0" y="0"/>
  <path d="M24.8867 49.7734C38.6382 49.7734 49.7993 38.6382 49.7993 24.8867C49.7993 11.1352 38.6382 0 24.8867 0C11.1611 0 8.88178e-16 11.1352 8.88178e-16 24.8867C8.88178e-16 38.6382 11.1611 49.7734 24.8867 49.7734ZM24.8867 45.6397C13.4144 45.6397 4.15433 36.3591 4.15433 24.8867C4.15433 13.4144 13.4144 4.13375 24.8867 4.13375C36.359 4.13375 45.6397 13.4144 45.6397 24.8867C45.6397 36.3591 36.359 45.6397 24.8867 45.6397Z" fill="black" fill-opacity="0.5"/>
  <path d="M12.2376 20.1362C12.2376 20.7271 12.4916 21.2093 12.8855 21.6238L19.3911 28.254C19.7433 28.6114 20.132 28.7825 20.6605 28.7825C21.609 28.7825 22.3704 28.0158 22.3704 26.995C22.3704 26.5441 22.1941 26.0572 21.8571 25.7461L18.7982 22.8166L15.2318 20.188L19.3105 17.016L21.8313 14.5522C22.1423 14.2723 22.3704 13.806 22.3704 13.3033C22.3704 12.2879 21.609 11.5158 20.6347 11.5158C20.1061 11.5158 19.7175 11.6869 19.3652 12.0703L12.8855 18.6487C12.4916 19.0426 12.2376 19.5712 12.2376 20.1362ZM22.2925 35.6433C22.2925 36.7623 23.0851 37.3997 24.1782 37.3997L27.5088 37.3997C33.2134 37.3997 37.4788 33.7458 37.4788 27.8768C37.4788 22.0079 33.2393 18.4316 27.5347 18.4316L20.2777 18.4316L15.4556 18.5198C14.5542 18.5457 13.8392 19.2348 13.8392 20.1104C13.8392 21.017 14.5542 21.7009 15.4556 21.7268L20.2777 21.8667L27.5347 21.8667C31.1255 21.8667 33.8885 23.9147 33.8885 27.6698C33.8885 31.5284 31.2031 33.9128 27.5088 33.9128L24.1265 33.9128C23.0851 33.9128 22.2925 34.5191 22.2925 35.6433Z" fill="black"/>
 </g>
</svg>
