<?xml version="1.0" encoding="UTF-8"?>
<!--Generator: Apple Native CoreSVG 341-->
<!DOCTYPE svg
PUBLIC "-//W3C//DTD SVG 1.1//EN"
       "http://www.w3.org/Graphics/SVG/1.1/DTD/svg11.dtd">
<svg version="1.1" xmlns="http://www.w3.org/2000/svg" xmlns:xlink="http://www.w3.org/1999/xlink" viewBox="0 0 55.4078 44.9754">
 <g>
  <rect height="44.9754" opacity="0" width="55.4078" x="0" y="0"/>
  <path d="M7.65907 44.675L48.4993 44.675C52.8649 44.675 55.4078 42.1215 55.4078 37.0937L55.4078 12.026C55.4078 6.99819 52.839 4.47059 47.7489 4.47059L24.3155 4.47059C22.6624 4.47059 21.6761 4.06612 20.4607 3.04235L18.9611 1.80682C17.3464 0.435613 16.0913 0 13.6974 0L6.72979 0C2.46918 0 8.81776e-05 2.42259 8.81776e-05 7.34016L8.81776e-05 37.0937C8.81776e-05 42.132 2.5689 44.675 7.65907 44.675ZM7.72139 40.7224C5.28318 40.7224 3.92683 39.4436 3.92683 36.902L3.92683 7.54768C3.92683 5.13689 5.19929 3.91616 7.55303 3.91616L12.6877 3.91616C14.3144 3.91616 15.2901 4.32591 16.5214 5.3655L18.0262 6.60103C19.5886 7.91999 20.9013 8.3973 23.3058 8.3973L47.6865 8.3973C50.1036 8.3973 51.4811 9.70193 51.4811 12.2436L51.4811 36.9278C51.4811 39.4436 50.1036 40.7224 47.6865 40.7224ZM6.94888 15.9144L48.4485 15.9144L48.4485 14.4183C48.4485 12.8807 47.6687 12.1263 46.041 12.1263L9.35641 12.1263C7.75458 12.1263 6.94888 12.8807 6.94888 14.4183Z" fill="black"/>
 </g>
</svg>
