<?xml version="1.0" encoding="UTF-8"?>
<!--Generator: Apple Native CoreSVG 341-->
<!DOCTYPE svg
PUBLIC "-//W3C//DTD SVG 1.1//EN"
       "http://www.w3.org/Graphics/SVG/1.1/DTD/svg11.dtd">
<svg version="1.1" xmlns="http://www.w3.org/2000/svg" xmlns:xlink="http://www.w3.org/1999/xlink" viewBox="0 0 67.9474 50.2321">
 <g>
  <rect height="50.2321" opacity="0" width="67.9474" x="0" y="0"/>
  <path d="M0.523509 43.9313C2.68784 51.0833 13.4736 52.2359 24.9568 46.9315C27.0347 45.9625 25.6099 43.2884 23.6456 44.2368C14.0703 48.774 4.89035 48.161 3.39456 43.0917C-0.468329 30.4687 26.6639 29.0629 23.519 18.4502C21.9777 13.2244 9.91316 14.076 1.29604 19.89C-0.434938 21.0095 1.23373 23.4813 2.93354 22.3048C9.1761 18.1811 19.8528 16.5454 20.6843 19.2587C21.282 21.3373 19.5988 22.8532 12.843 26.6036C6.28042 30.2182-2.20157 35.0343 0.523509 43.9313Z" fill="black" fill-opacity="0.5"/>
  <path d="M35.1275 42.3147L61.1152 16.3839L56.8382 12.0961L30.8503 38.0269L28.5287 43.4598C28.2901 44.0559 28.9226 44.7244 29.5135 44.4963ZM63.2423 14.2881L65.7212 11.866C66.9665 10.6262 67.0443 9.2987 65.8976 8.1782L65.0852 7.33959C63.9751 6.22965 62.6317 6.34897 61.4076 7.55238L58.908 9.97448Z" fill="black"/>
 </g>
</svg>
