<?xml version="1.0" encoding="UTF-8"?>
<!--Generator: Apple Native CoreSVG 341-->
<!DOCTYPE svg
PUBLIC "-//W3C//DTD SVG 1.1//EN"
       "http://www.w3.org/Graphics/SVG/1.1/DTD/svg11.dtd">
<svg version="1.1" xmlns="http://www.w3.org/2000/svg" xmlns:xlink="http://www.w3.org/1999/xlink" viewBox="0 0 49.7996 49.8046">
 <g>
  <rect height="49.8046" opacity="0" width="49.7996" x="0" y="0"/>
  <path d="M24.8867 49.7734C38.6277 49.7734 49.7993 38.6018 49.7993 24.8867C49.7993 11.1716 38.6277 0 24.8867 0C11.1716 0 8.88178e-16 11.1716 8.88178e-16 24.8867C8.88178e-16 38.6018 11.1716 49.7734 24.8867 49.7734Z" fill="black" fill-opacity="0.18"/>
  <path d="M8.14178 27.1325L17.263 27.1325C18.4342 27.1325 18.7193 26.0082 18.0508 25.1116L13.9628 19.4395C13.3038 18.5002 12.1268 18.402 11.4008 19.4395L7.36452 25.1116C6.7324 26.0029 6.99169 27.1325 8.14178 27.1325ZM24.8867 39.009C28.2258 39.009 31.2739 37.8242 33.4187 36.0883C34.6771 35.1092 34.7236 33.778 34.0968 32.97C33.5423 32.255 32.3663 31.9651 31.0715 32.8718C29.4088 34.162 27.3138 35.0047 24.8867 35.0047C19.2979 35.0047 14.7687 30.4755 14.7687 24.8867C14.7687 23.7989 13.8673 22.8975 12.7795 22.8975C11.6658 22.8975 10.7902 23.7989 10.7902 24.8867C10.7902 32.6771 17.0963 39.009 24.8867 39.009ZM41.6316 22.641L32.5311 22.641C31.3651 22.641 31.08 23.7652 31.7226 24.6619L35.8365 30.3339C36.4955 31.2732 37.6672 31.3715 38.3727 30.3339L42.4036 24.6619C43.041 23.7705 42.8076 22.641 41.6316 22.641ZM24.8867 10.7644C21.5735 10.7644 18.5254 11.9492 16.3495 13.6851C15.1169 14.6642 15.0705 15.9955 15.7025 16.8034C16.257 17.5184 17.4072 17.8084 18.6967 16.9017C20.3852 15.6114 22.4802 14.7688 24.8867 14.7688C30.4961 14.7688 35.0306 19.2979 35.0306 24.8867C35.0306 25.9745 35.9267 26.8759 37.0198 26.8759C38.1077 26.8759 39.0038 25.9745 39.0038 24.8867C39.0038 17.0964 32.6771 10.7644 24.8867 10.7644Z" fill="black"/>
 </g>
</svg>
