<?xml version="1.0" encoding="UTF-8"?>
<!--Generator: Apple Native CoreSVG 341-->
<!DOCTYPE svg
PUBLIC "-//W3C//DTD SVG 1.1//EN"
       "http://www.w3.org/Graphics/SVG/1.1/DTD/svg11.dtd">
<svg version="1.1" xmlns="http://www.w3.org/2000/svg" xmlns:xlink="http://www.w3.org/1999/xlink" viewBox="0 0 49.7996 49.8046">
 <g>
  <rect height="49.8046" opacity="0" width="49.7996" x="0" y="0"/>
  <path d="M24.8867 49.8046C38.6277 49.8046 49.7993 38.6329 49.7993 24.9179C49.7993 11.2028 38.6277 0.0311407 24.8867 0.0311407C11.1716 0.0311407 8.88178e-16 11.2028 8.88178e-16 24.9179C8.88178e-16 38.6329 11.1716 49.8046 24.8867 49.8046Z" fill="black" fill-opacity="0.18"/>
  <path d="M24.8608 33.0195C24.3945 33.0195 23.98 32.8537 23.5966 32.4391L15.1011 23.7577C14.7954 23.4261 14.5931 22.9027 14.5931 22.4777C14.5931 21.5398 15.2511 20.8507 16.2254 20.8507C16.7281 20.8507 17.1479 20.9959 17.433 21.3381L18.8667 22.9117L23.4514 28.0605L23.1563 23.4293L23.1563 11.8896C23.1563 10.9259 23.8454 10.2109 24.8608 10.2109C25.8246 10.2109 26.5395 10.9259 26.5395 11.8896L26.5395 23.4293L26.2961 28.0346L30.8079 22.9276L32.3404 21.3381C32.6773 20.9959 33.1177 20.8507 33.5998 20.8507C34.5482 20.8507 35.2062 21.5916 35.2062 22.4724C35.2062 22.9651 35.0658 23.3849 34.646 23.7788L26.1509 32.4391C25.7622 32.8019 25.353 33.0195 24.8608 33.0195ZM15.4332 38.331C14.4748 38.331 13.7856 37.6213 13.7856 36.6005C13.7856 35.6679 14.4748 34.953 15.4332 34.953L34.3661 34.953C35.3245 34.953 36.0137 35.6679 36.0137 36.6005C36.0137 37.6213 35.3245 38.331 34.3661 38.331Z" fill="black"/>
 </g>
</svg>
