<?xml version="1.0" encoding="UTF-8"?>
<!--Generator: Apple Native CoreSVG 341-->
<!DOCTYPE svg
PUBLIC "-//W3C//DTD SVG 1.1//EN"
       "http://www.w3.org/Graphics/SVG/1.1/DTD/svg11.dtd">
<svg version="1.1" xmlns="http://www.w3.org/2000/svg" xmlns:xlink="http://www.w3.org/1999/xlink" viewBox="0 0 53.9431 53.234">
 <g>
  <rect height="53.234" opacity="0" width="53.9431" x="0" y="0"/>
  <path d="M26.9742 49.9338C27.5613 49.9338 28.1743 49.9027 28.7614 49.8662L30.0794 52.3876C30.4115 53.0207 30.9866 53.2641 31.6456 53.1759C32.3563 53.0566 32.7655 52.5903 32.859 51.9002L33.274 49.1037C34.4483 48.7558 35.529 48.335 36.6252 47.8672L38.7161 49.766C39.204 50.2486 39.8673 50.2951 40.4639 49.9682C41.0812 49.6155 41.3299 49.0352 41.1794 48.345L40.5569 45.5798C41.5389 44.8733 42.4534 44.1199 43.295 43.3041L45.9151 44.3623C46.5793 44.6321 47.1856 44.461 47.6576 43.9267C48.1038 43.3976 48.1349 42.7655 47.7717 42.1894L46.2309 39.7769C46.9115 38.7795 47.5039 37.7663 48.0182 36.6908L50.8457 36.8048C51.567 36.8307 52.0903 36.4938 52.3237 35.8142C52.5882 35.1606 52.4071 34.5596 51.8363 34.134L49.5743 32.401C49.8704 31.2685 50.0732 30.0995 50.1925 28.8942L52.9007 28.0277C53.5909 27.8149 53.9431 27.3122 53.9431 26.6014C53.9431 25.8907 53.5909 25.388 52.9007 25.1752L50.1925 24.314C50.0732 23.1086 49.8757 21.9343 49.5743 20.7966L51.831 19.0688C52.4018 18.6432 52.526 18.0423 52.3443 17.3833C52.0903 16.6779 51.5306 16.3774 50.851 16.4033L48.0182 16.4862C47.5039 15.4107 46.9115 14.3975 46.2309 13.4001L47.7664 11.0134C48.1297 10.4374 48.0674 9.80527 47.6782 9.26563C47.1803 8.71068 46.5688 8.57598 45.9204 8.84055L43.295 9.89872C42.4534 9.05185 41.5131 8.30367 40.5569 7.62309L41.1741 4.86309C41.3247 4.16244 41.0706 3.59265 40.4793 3.23466C39.862 2.87663 39.204 2.96481 38.7214 3.43685L36.5993 5.33565C35.529 4.83672 34.4171 4.44708 33.2481 4.09913L32.859 1.30795C32.7655 0.612569 32.3457 0.177415 31.6661 0.0269423C30.9555-0.0923847 30.4062 0.187504 30.0794 0.810052L28.7561 3.33662C28.1743 3.3002 27.5613 3.26907 26.9742 3.26907C26.3871 3.26907 25.7947 3.3002 25.1817 3.33662L23.869 0.815326C23.5369 0.182218 22.9824-0.0612387 22.2976 0.0269423C21.5868 0.146269 21.1776 0.617843 21.0841 1.30267L20.6691 4.09913C19.5207 4.44708 18.4088 4.8679 17.3386 5.34092L15.2529 3.43685C14.7391 2.95426 14.107 2.90777 13.4845 3.23466C12.8619 3.58737 12.6444 4.17299 12.7896 4.85781L13.381 7.65428C12.4042 8.33486 11.495 9.083 10.6481 9.92987L8.02802 8.84055C7.39492 8.57071 6.75758 8.74181 6.3114 9.27618C5.84459 9.80527 5.81873 10.4427 6.1973 11.0134L7.71225 13.426C7.05226 14.4234 6.43927 15.4366 5.92498 16.5121L3.1233 16.398C2.40728 16.3669 1.88398 16.7091 1.64531 17.3886C1.38076 18.0423 1.57773 18.6432 2.11737 19.0688L4.36886 20.8018C4.06742 21.9396 3.86993 23.1086 3.75061 24.314L1.04764 25.1752C0.357511 25.388 1.39024e-05 25.8907 1.39024e-05 26.6014C1.39024e-05 27.3122 0.357511 27.8149 1.04764 28.0277L3.75061 28.8942C3.86993 30.0995 4.06742 31.2685 4.36886 32.401L2.11737 34.1393C1.57773 34.5649 1.41719 35.1658 1.62471 35.8195C1.88925 36.525 2.40728 36.8255 3.09216 36.7995L5.92498 36.7114C6.43927 37.7922 7.05226 38.8001 7.71225 39.8027L6.20785 42.1894C5.81873 42.7708 5.88101 43.4287 6.29077 43.9372C6.76285 44.4922 7.39492 44.6269 8.02275 44.3623L10.6481 43.273C11.4897 44.1457 12.43 44.8939 13.3757 45.5745L12.7949 48.345C12.6497 49.0404 12.8725 49.6155 13.4638 49.9735C14.1123 50.3262 14.7391 50.2486 15.2476 49.7713L17.3697 47.8672C18.4141 48.3609 19.5466 48.7558 20.6897 49.1037L21.0841 51.8949C21.1776 52.5903 21.6232 53.0254 22.277 53.1759C22.9877 53.2952 23.5369 53.0207 23.869 52.3928L25.1817 49.8662C25.7947 49.9027 26.3871 49.9338 26.9742 49.9338ZM26.9742 45.883C16.3234 45.883 7.69268 37.247 7.69268 26.6014C7.69268 15.9559 16.3234 7.31991 26.9742 7.31991C37.6198 7.31991 46.2557 15.9559 46.2557 26.6014C46.2557 37.247 37.6198 45.883 26.9742 45.883ZM22.7061 22.8484L25.5972 21.0402L17.4602 7.0714L14.4396 8.74484ZM32.4224 28.2538L48.6394 28.2538L48.6394 24.8911L32.4224 24.8911ZM25.6399 32.2503L22.79 30.3699L14.2173 44.4163L17.1914 46.1468ZM26.9848 33.0086C30.5125 33.0086 33.3866 30.1292 33.3866 26.6014C33.3866 23.0736 30.5125 20.1943 26.9848 20.1943C23.4517 20.1943 20.6036 23.0736 20.6036 26.6014C20.6036 30.1292 23.4517 33.0086 26.9848 33.0086ZM26.9848 29.3353C25.4774 29.3353 24.2509 28.1035 24.2509 26.6014C24.2509 25.0993 25.4774 23.8676 26.9848 23.8676C28.4869 23.8676 29.7133 25.0993 29.7133 26.6014C29.7133 28.1035 28.4869 29.3353 26.9848 29.3353Z" fill="black"/>
 </g>
</svg>
