<?xml version="1.0" encoding="UTF-8"?>
<!--Generator: Apple Native CoreSVG 341-->
<!DOCTYPE svg
PUBLIC "-//W3C//DTD SVG 1.1//EN"
       "http://www.w3.org/Graphics/SVG/1.1/DTD/svg11.dtd">
<svg version="1.1" xmlns="http://www.w3.org/2000/svg" xmlns:xlink="http://www.w3.org/1999/xlink" viewBox="0 0 51.1647 46.6245">
 <g>
  <rect height="46.6245" opacity="0" width="51.1647" x="0" y="0"/>
  <path d="M6.66232 46.3733L44.5031 46.3733C48.6486 46.3733 51.1647 43.4781 51.1647 39.738C51.1647 38.6012 50.8326 37.4021 50.2095 36.3118L31.2712 3.32498C30.0002 1.12526 27.8263 0 25.5854 0C23.3391 0 21.1394 1.12526 19.8943 3.32498L0.955901 36.3118C0.306978 37.428 0.000730554 38.6012 0.000730554 39.738C0.000730554 43.4781 2.51679 46.3733 6.66232 46.3733ZM6.69346 42.5242C4.99289 42.5242 3.93804 41.1937 3.93804 39.7328C3.93804 39.2487 4.05783 38.6711 4.32337 38.1817L23.2306 5.17955C23.7401 4.29047 24.6756 3.88021 25.5854 3.88021C26.4639 3.88021 27.3736 4.29047 27.9089 5.17955L46.8161 38.2076C47.0817 38.697 47.2015 39.2487 47.2015 39.7328C47.2015 41.1937 46.1466 42.5242 44.4461 42.5242Z" fill="#ff383c" fill-opacity="0.5"/>
  <path d="M25.5801 29.9062C26.7355 29.9062 27.4093 29.2477 27.4352 27.9677L27.798 15.0898C27.8238 13.8615 26.8342 12.9237 25.5542 12.9237C24.2224 12.9237 23.3105 13.8356 23.3363 15.0639L23.6473 27.9677C23.6733 29.2219 24.347 29.9062 25.5801 29.9062ZM25.5801 37.8413C26.9958 37.8413 28.1934 36.7314 28.1934 35.3057C28.1934 33.8693 27.0216 32.77 25.5801 32.77C24.1438 32.77 22.9409 33.8952 22.9409 35.3057C22.9409 36.7055 24.1697 37.8413 25.5801 37.8413Z" fill="#ff383c"/>
 </g>
</svg>
