<?xml version="1.0" encoding="UTF-8"?>
<!--Generator: Apple Native CoreSVG 341-->
<!DOCTYPE svg
PUBLIC "-//W3C//DTD SVG 1.1//EN"
       "http://www.w3.org/Graphics/SVG/1.1/DTD/svg11.dtd">
<svg version="1.1" xmlns="http://www.w3.org/2000/svg" xmlns:xlink="http://www.w3.org/1999/xlink" viewBox="0 0 49.7996 49.8046">
 <g>
  <rect height="49.8046" opacity="0" width="49.7996" x="0" y="0"/>
  <path d="M24.8867 49.7734C38.6277 49.7734 49.7993 38.6018 49.7993 24.8867C49.7993 11.1716 38.6277 0 24.8867 0C11.1716 0 8.88178e-16 11.1716 8.88178e-16 24.8867C8.88178e-16 38.6018 11.1716 49.7734 24.8867 49.7734Z" fill="black" fill-opacity="0.18"/>
  <path d="M11.8495 19.981C11.8495 20.5977 12.1034 21.1057 12.5232 21.5461L19.2358 28.3833C19.5933 28.7667 20.0026 28.9119 20.557 28.9119C21.5313 28.9119 22.3187 28.1399 22.3187 27.0727C22.3187 26.5958 22.1423 26.1089 21.7795 25.772L18.643 22.7649L14.973 20.0327L19.1811 16.7625L21.7536 14.247C22.1164 13.9359 22.3187 13.4696 22.3187 12.9669C22.3187 11.8997 21.5313 11.1018 20.5312 11.1018C19.9767 11.1018 19.5674 11.2729 19.2358 11.6821L12.5232 18.4417C12.1034 18.8873 11.8495 19.416 11.8495 19.981ZM22.2408 35.9744C22.2408 37.1763 23.0593 37.8084 24.1782 37.8084L27.6123 37.8084C33.5187 37.8084 37.9187 34.0304 37.9187 27.9545C37.9187 21.9044 33.5446 18.2505 27.6381 18.2505L20.1742 18.2505L15.1762 18.3387C14.2695 18.3646 13.534 19.0796 13.534 19.981C13.534 20.9135 14.2695 21.6233 15.1762 21.6491L20.1742 21.7891L27.6381 21.7891C31.3583 21.7891 34.1731 23.8888 34.1731 27.7733C34.1731 31.7355 31.4307 34.1922 27.6123 34.1922L24.1265 34.1922C23.0593 34.1922 22.2408 34.8296 22.2408 35.9744Z" fill="black"/>
 </g>
</svg>
