<?xml version="1.0" encoding="UTF-8"?>
<!--Generator: Apple Native CoreSVG 341-->
<!DOCTYPE svg
PUBLIC "-//W3C//DTD SVG 1.1//EN"
       "http://www.w3.org/Graphics/SVG/1.1/DTD/svg11.dtd">
<svg version="1.1" xmlns="http://www.w3.org/2000/svg" xmlns:xlink="http://www.w3.org/1999/xlink" viewBox="0 0 49.7996 49.8046">
 <g>
  <rect height="49.8046" opacity="0" width="49.7996" x="0" y="0"/>
  <path d="M24.8867 49.7734C38.6382 49.7734 49.7993 38.6382 49.7993 24.8867C49.7993 11.1352 38.6382 0 24.8867 0C11.1611 0 8.88178e-16 11.1352 8.88178e-16 24.8867C8.88178e-16 38.6382 11.1611 49.7734 24.8867 49.7734ZM24.8867 45.6397C13.4144 45.6397 4.15433 36.3591 4.15433 24.8867C4.15433 13.4144 13.4144 4.13375 24.8867 4.13375C36.359 4.13375 45.6397 13.4144 45.6397 24.8867C45.6397 36.3591 36.359 45.6397 24.8867 45.6397Z" fill="black" fill-opacity="0.5"/>
  <path d="M35.3056 26.7983C36.3159 26.7983 37.1914 25.9228 37.1914 24.8609C37.1914 23.8248 36.3159 22.9234 35.3056 22.9234L21.1698 22.9286L16.7188 23.1098C15.7656 23.1356 14.9677 23.8818 14.9677 24.8609C14.9677 25.8399 15.7656 26.586 16.7188 26.6378L21.1698 26.7931ZM22.2594 34.909C23.2643 34.909 23.9845 34.1681 23.9845 33.1373C23.9845 32.671 23.7876 32.153 23.4043 31.7955L19.4233 28.0785L16.0091 24.8609L16.0091 24.8609L19.4233 21.6484L23.4043 17.9315C23.7876 17.574 23.9845 17.0818 23.9845 16.6155C23.9845 15.59 23.2643 14.818 22.2594 14.818C21.7413 14.818 21.3579 15.0355 20.9799 15.4189L13.2262 23.4467C12.7393 23.9335 12.5788 24.3687 12.5788 24.8609C12.5788 25.353 12.7393 25.7881 13.2262 26.275L20.9799 34.3339C21.3579 34.6914 21.7413 34.909 22.2594 34.909Z" fill="black"/>
 </g>
</svg>
