<?xml version="1.0" encoding="UTF-8"?>
<!--Generator: Apple Native CoreSVG 341-->
<!DOCTYPE svg
PUBLIC "-//W3C//DTD SVG 1.1//EN"
       "http://www.w3.org/Graphics/SVG/1.1/DTD/svg11.dtd">
<svg version="1.1" xmlns="http://www.w3.org/2000/svg" xmlns:xlink="http://www.w3.org/1999/xlink" viewBox="0 0 50.689 51.5857">
 <g>
  <rect height="51.5857" opacity="0" width="50.689" x="0" y="0"/>
  <path d="M34.1284 17.6689C34.4811 17.6689 34.761 17.4408 34.8439 17.0727C35.9136 11.5801 36.6322 10.3815 42.3149 9.54993C42.7141 9.49288 42.937 9.20772 42.937 8.86558C42.937 8.46636 42.7141 8.18121 42.3149 8.12421C36.6322 7.3032 35.6549 5.97994 34.8439 0.658444C34.761 0.25924 34.4811 0 34.1284 0C33.7704 0 33.4853 0.25924 33.4077 0.632584C32.3326 6.08344 31.6141 7.3032 25.9366 8.12421C25.5115 8.18121 25.2834 8.46636 25.2834 8.86558C25.2834 9.20772 25.5115 9.46702 25.9366 9.54993C31.6141 10.3815 32.5396 11.5748 33.4077 17.0468C33.4594 17.4408 33.7187 17.6689 34.1284 17.6689ZM6.93241 37.6981C7.30575 37.6981 7.53386 37.4441 7.5909 37.0967C8.31168 32.4944 8.31168 32.1555 13.2893 31.3983C13.642 31.3412 13.8907 31.1078 13.8907 30.7657C13.8907 30.3976 13.642 30.1642 13.2893 30.1072C8.31168 29.3553 8.31168 29.0111 7.5909 24.4088C7.53386 24.0614 7.30575 23.8074 6.93241 23.8074C6.58497 23.8074 6.35687 24.0614 6.29982 24.4088C5.58432 29.0111 5.58432 29.3553 0.60145 30.1072C0.248722 30.1642 8.88178e-16 30.3976 8.88178e-16 30.7657C8.88178e-16 31.1078 0.248722 31.3412 0.60145 31.3983C5.58432 32.1555 5.58432 32.4944 6.29982 37.0967C6.35687 37.4441 6.58497 37.6981 6.93241 37.6981ZM15.0896 44.5604C15.3641 44.5604 15.5817 44.3687 15.6387 44.0629C16.1055 41.3431 15.9661 41.2371 19.0617 40.6659C19.3675 40.6088 19.5333 40.3654 19.5333 40.1114C19.5333 39.8315 19.3675 39.5934 19.0617 39.5363C15.9919 38.965 16.1573 38.9108 15.6387 36.1133C15.5817 35.8594 15.3383 35.6417 15.0896 35.6417C14.7838 35.6417 14.5974 35.8594 14.5145 36.1651C13.9442 38.9108 14.1613 39.0426 11.1121 39.5363C10.8116 39.5934 10.6147 39.8056 10.6147 40.1114C10.6147 40.3654 10.8116 40.6088 11.1121 40.6659C14.1613 41.2371 13.9442 41.3431 14.5145 44.0629C14.5974 44.3687 14.7838 44.5604 15.0896 44.5604Z" fill="#ef5379"/>
  <path d="M43.2013 47.2923C44.2901 48.407 46.047 48.3964 47.0682 47.2923C48.1101 46.1934 48.1259 44.5453 47.0424 43.4306L15.8654 12.223C14.7871 11.1241 12.9939 11.1294 11.9726 12.223C10.9255 13.3272 10.9255 14.9858 11.9985 16.09ZM22.07 23.5185L13.6619 15.0946C13.3197 14.7471 13.3144 14.2545 13.6619 13.907C13.9988 13.5648 14.5226 13.5596 14.87 13.907L23.2834 22.331Z" fill="black"/>
 </g>
</svg>
