<?xml version="1.0" encoding="UTF-8"?>
<!--Generator: Apple Native CoreSVG 341-->
<!DOCTYPE svg
PUBLIC "-//W3C//DTD SVG 1.1//EN"
       "http://www.w3.org/Graphics/SVG/1.1/DTD/svg11.dtd">
<svg version="1.1" xmlns="http://www.w3.org/2000/svg" xmlns:xlink="http://www.w3.org/1999/xlink" viewBox="0 0 49.7996 49.8046">
 <g>
  <rect height="49.8046" opacity="0" width="49.7996" x="0" y="0"/>
  <path d="M24.8867 49.7734C38.6382 49.7734 49.7993 38.6382 49.7993 24.8867C49.7993 11.1352 38.6382 0 24.8867 0C11.1611 0 8.88178e-16 11.1352 8.88178e-16 24.8867C8.88178e-16 38.6382 11.1611 49.7734 24.8867 49.7734ZM24.8867 45.6397C13.4144 45.6397 4.15433 36.3591 4.15433 24.8867C4.15433 13.4144 13.4144 4.13375 24.8867 4.13375C36.359 4.13375 45.6397 13.4144 45.6397 24.8867C45.6397 36.3591 36.359 45.6397 24.8867 45.6397Z" fill="black" fill-opacity="0.5"/>
  <path d="M14.4592 26.7983L28.595 26.7931L33.0461 26.6378C33.9992 26.586 34.7972 25.8399 34.7972 24.8609C34.7972 23.8818 33.9992 23.1356 33.0461 23.1098L28.595 22.9286L14.4592 22.9234C13.449 22.9234 12.5788 23.8248 12.5788 24.8609C12.5788 25.9228 13.449 26.7983 14.4592 26.7983ZM27.5055 34.909C28.0235 34.909 28.4069 34.6914 28.7903 34.3339L36.5387 26.275C37.0256 25.7881 37.1914 25.353 37.1914 24.8609C37.1914 24.3687 37.0256 23.9335 36.5387 23.4467L28.7903 15.4189C28.4069 15.0355 28.0235 14.818 27.5055 14.818C26.5006 14.818 25.7803 15.59 25.7803 16.6155C25.7803 17.0818 25.9773 17.574 26.3607 17.9315L30.3416 21.6484L33.7611 24.8609L33.7611 24.8609L30.3416 28.0785L26.3607 31.7955C25.9773 32.153 25.7803 32.671 25.7803 33.1373C25.7803 34.1681 26.5006 34.909 27.5055 34.909Z" fill="black"/>
 </g>
</svg>
