<?xml version="1.0" encoding="UTF-8"?>
<!--Generator: Apple Native CoreSVG 341-->
<!DOCTYPE svg
PUBLIC "-//W3C//DTD SVG 1.1//EN"
       "http://www.w3.org/Graphics/SVG/1.1/DTD/svg11.dtd">
<svg version="1.1" xmlns="http://www.w3.org/2000/svg" xmlns:xlink="http://www.w3.org/1999/xlink" viewBox="0 0 53.0091 45.4283">
 <g>
  <rect height="45.4283" opacity="0" width="53.0091" x="0" y="0"/>
  <path d="M49.6545 40.1632C49.6545 41.251 48.7584 42.1525 47.6965 42.1525L12.4527 42.1525L16.4241 38.1998L47.6965 38.1998C48.7584 38.1998 49.6545 39.1013 49.6545 40.1632Z" fill="black" fill-opacity="0.5"/>
  <path d="M10.0174 39.8932L36.6728 13.2896L32.3956 9.00712L5.735 35.6002L3.41866 41.033C3.17999 41.6033 3.81259 42.2771 4.40348 42.0696ZM38.7997 11.1991L41.2788 8.77173C42.5239 7.51131 42.6015 6.17854 41.481 5.05804L40.6371 4.24535C39.5325 3.10953 38.1892 3.22886 36.9652 4.45814L34.4861 6.88022Z" fill="black"/>
 </g>
</svg>
