<?xml version="1.0" encoding="UTF-8"?>
<!--Generator: Apple Native CoreSVG 341-->
<!DOCTYPE svg
PUBLIC "-//W3C//DTD SVG 1.1//EN"
       "http://www.w3.org/Graphics/SVG/1.1/DTD/svg11.dtd">
<svg version="1.1" xmlns="http://www.w3.org/2000/svg" xmlns:xlink="http://www.w3.org/1999/xlink" viewBox="0 0 59.5445 49.8046">
 <g>
  <rect height="49.8046" opacity="0" width="59.5445" x="0" y="0"/>
  <path d="M1.73469 20.8157C-0.0274342 20.8157-0.463064 22.0182 0.501154 23.3869L5.96186 31.1523C6.76027 32.2929 7.93679 32.267 8.70929 31.1523L14.1648 23.361C15.1084 22.0182 14.6416 20.8157 12.9106 20.8157ZM29.7617 4.13375C35.8485 4.13375 41.3698 6.76686 45.1872 10.9797C46.1815 12.0881 47.254 12.0264 48.0208 11.4666C48.9481 10.7827 49.2898 9.37911 48.2901 8.24479C43.7165 3.16172 37.0969 0 29.7617 0C16.0308 0 4.90092 11.1093 4.87504 24.9126C4.90092 26.0263 5.82293 26.9536 6.94192 26.9536C8.08151 26.9536 9.02936 26.0004 9.02936 24.8867C9.02936 13.4144 18.2894 4.13375 29.7617 4.13375ZM57.8147 28.9576C59.5457 28.9576 60.0124 27.7552 59.043 26.3866L53.5875 18.6211C52.7891 17.4805 51.6073 17.5064 50.84 18.6211L45.3793 26.4124C44.4357 27.7552 44.8766 28.9576 46.6076 28.9576ZM29.7617 45.6397C23.6697 45.6397 18.1796 43.0066 14.3569 38.7937C13.3626 37.6853 12.2953 37.7471 11.4975 38.3068C10.6013 38.9907 10.2337 40.3943 11.254 41.5286C15.8018 46.6117 22.4472 49.7734 29.7617 49.7734C43.5133 49.7734 54.6485 38.6641 54.6744 24.8609C54.6485 23.7471 53.7212 22.8199 52.6075 22.8199C51.4679 22.8199 50.5147 23.773 50.5147 24.8867C50.5147 36.3591 41.2341 45.6397 29.7617 45.6397Z" fill="black"/>
 </g>
</svg>
