<?xml version="1.0" encoding="UTF-8"?>
<!--Generator: Apple Native CoreSVG 341-->
<!DOCTYPE svg
PUBLIC "-//W3C//DTD SVG 1.1//EN"
       "http://www.w3.org/Graphics/SVG/1.1/DTD/svg11.dtd">
<svg version="1.1" xmlns="http://www.w3.org/2000/svg" xmlns:xlink="http://www.w3.org/1999/xlink" viewBox="0 0 54.8828 44.5068">
 <g>
  <rect height="44.5068" opacity="0" width="54.8828" x="0" y="0"/>
  <path d="M38.1836 44.5068C46.1914 44.5068 51.9775 40.5273 54.1504 34.5459C54.3945 33.8135 54.541 33.0811 54.541 32.3242C54.5654 31.0547 53.7109 30.1758 52.3926 30.1758C51.123 30.1758 50.4883 30.8838 50.0732 32.1533C48.7305 36.9873 44.0918 40.2344 38.1836 40.2344C29.834 40.2344 24.4141 33.2764 24.4141 22.168C24.4141 11.2305 29.8584 4.37012 38.1836 4.37012C43.75 4.37012 48.3887 7.8125 49.7559 12.6221C50.1953 14.0381 50.8057 14.5996 52.0752 14.5996C53.3936 14.5996 54.248 13.7207 54.2236 12.4268C54.1992 11.6943 54.1016 11.0107 53.833 10.3271C51.6113 4.15039 45.4834 0.0976562 38.1836 0.0976562C26.9043 0.0976562 19.5068 8.66699 19.5068 22.168C19.5068 35.8398 26.8555 44.5068 38.1836 44.5068ZM7.44629 17.4316C11.6455 17.4316 14.917 14.1602 14.917 9.96094C14.917 5.76172 11.6455 2.49023 7.44629 2.49023C3.27148 2.49023 0 5.76172 0 9.96094C0 14.1602 3.27148 17.4316 7.44629 17.4316ZM7.44629 13.9893C5.2002 13.9893 3.44238 12.2314 3.44238 9.96094C3.44238 7.71484 5.2002 5.93262 7.44629 5.93262C9.7168 5.93262 11.4746 7.71484 11.4746 9.96094C11.4746 12.2314 9.7168 13.9893 7.44629 13.9893Z" fill="black" fill-opacity="0.85"/>
 </g>
</svg>
