<?xml version="1.0" encoding="UTF-8"?>
<!--Generator: Apple Native CoreSVG 341-->
<!DOCTYPE svg
PUBLIC "-//W3C//DTD SVG 1.1//EN"
       "http://www.w3.org/Graphics/SVG/1.1/DTD/svg11.dtd">
<svg version="1.1" xmlns="http://www.w3.org/2000/svg" xmlns:xlink="http://www.w3.org/1999/xlink" viewBox="0 0 63.0859 52.71">
 <g>
  <rect height="52.71" opacity="0" width="63.0859" x="0" y="0"/>
  <path d="M35.3027 39.0379C29.5967 41.7653 24.5159 46.0205 17.1387 46.0205C14.0137 46.0205 11.1572 45.2637 8.39844 43.6523C7.05566 42.8955 7.00684 41.5527 7.59277 40.6738C8.08105 39.917 9.08203 39.5264 10.1074 40.1123C12.5977 41.5527 14.7217 42.0898 17.1387 42.0898C24.464 42.0898 29.5472 37.219 36.0277 34.5659C35.5922 35.98 35.3028 37.4872 35.3027 39.0379Z" fill="black" fill-opacity="0.85"/>
  <path d="M41.125 23.9982C32.6498 25.5046 26.9114 32.9346 17.1631 32.9346C14.0381 32.9346 11.1816 32.1533 8.42285 30.5664C7.08008 29.7852 7.03125 28.4668 7.61719 27.5879C8.10547 26.8311 9.10645 26.4404 10.1318 27.0264C12.6221 28.4424 14.7461 29.0039 17.1631 29.0039C27.001 29.0039 32.7949 20.2186 43.357 19.8157Z" fill="black" fill-opacity="0.85"/>
  <path d="M52.8564 9.0332C54.2236 9.83887 54.2725 11.1572 53.6621 12.0361C53.1494 12.7686 52.1729 13.1592 51.1475 12.5732C48.6572 11.1572 46.5088 10.6201 44.1162 10.6201C33.8867 10.6201 28.0029 19.8242 17.1387 19.8242C14.0137 19.8242 11.1572 19.0674 8.39844 17.4805C7.05566 16.6992 7.00684 15.3809 7.59277 14.502C8.08105 13.7451 9.08203 13.3545 10.1074 13.9404C12.5977 15.3564 14.7217 15.8936 17.1387 15.8936C27.2217 15.8936 33.0566 6.68945 44.1162 6.68945C47.2412 6.68945 50.0977 7.44629 52.8564 9.0332Z" fill="black" fill-opacity="0.85"/>
  <path d="M49.1943 49.3652C55.0781 49.3652 59.7656 44.7754 59.7656 39.0381C59.7656 35.8643 58.1787 32.7637 56.8359 30.249L51.3916 20.1172C50.8057 19.0186 50.2686 18.5547 49.1943 18.5547C48.0957 18.5547 47.583 19.0186 46.9971 20.1172L41.5771 30.249C40.2344 32.7637 38.6475 35.8643 38.6475 39.0381C38.6475 44.7754 43.335 49.3652 49.1943 49.3652Z" fill="black" fill-opacity="0.85"/>
 </g>
</svg>
