<?xml version="1.0" encoding="UTF-8"?>
<!--Generator: Apple Native CoreSVG 341-->
<!DOCTYPE svg
PUBLIC "-//W3C//DTD SVG 1.1//EN"
       "http://www.w3.org/Graphics/SVG/1.1/DTD/svg11.dtd">
<svg version="1.1" xmlns="http://www.w3.org/2000/svg" xmlns:xlink="http://www.w3.org/1999/xlink" viewBox="0 0 57.0312 54.6631">
 <g>
<path d="M47.6318 28.3936C48.0957 28.3936 48.4131 28.0762 48.4619 27.5879C49.2676 21.0693 49.585 20.8984 56.2012 19.8242C56.7139 19.751 57.0312 19.4824 57.0312 19.0186C57.0312 18.5547 56.7139 18.2617 56.2988 18.1885C49.6338 16.9189 49.2676 16.9434 48.4619 10.4248C48.4131 9.93652 48.0957 9.61914 47.6318 9.61914C47.1924 9.61914 46.875 9.93652 46.8018 10.4004C45.9717 17.0166 45.7275 17.2363 38.9648 18.1885C38.5498 18.2373 38.2324 18.5547 38.2324 19.0186C38.2324 19.458 38.5498 19.751 38.9648 19.8242C45.7275 21.1182 45.9473 21.1182 46.8018 27.6367C46.875 28.0762 47.1924 28.3936 47.6318 28.3936ZM35.9619 11.8652C36.2549 11.8652 36.4014 11.6943 36.4502 11.4258C37.207 7.34863 37.1826 7.25098 41.4307 6.44531C41.6992 6.39648 41.8945 6.22559 41.8945 5.93262C41.8945 5.63965 41.6992 5.46875 41.4307 5.41992C37.1826 4.56543 37.3291 4.46777 36.4502 0.439453C36.4014 0.170898 36.2549 0 35.9619 0C35.6689 0 35.498 0.170898 35.4492 0.439453C34.5947 4.46777 34.7412 4.56543 30.4932 5.41992C30.2002 5.46875 30.0293 5.63965 30.0293 5.93262C30.0293 6.22559 30.2002 6.39648 30.4932 6.44531C34.7412 7.2998 34.6924 7.34863 35.4492 11.4258C35.498 11.6943 35.6689 11.8652 35.9619 11.8652Z" fill="white"/>
  <path d="M29.248 50.708C38.0127 50.708 45.1172 45.4102 48.2422 38.6963C48.9258 37.2559 48.0469 36.3281 46.7041 36.7432C45.2148 37.2559 42.749 37.7197 40.4785 37.7197C28.418 37.7197 21.5088 30.8105 21.5088 18.7256C21.5088 16.4795 22.0215 13.8916 22.7295 12.1094C23.3398 10.5713 22.29 9.69238 20.8496 10.3271C13.6475 13.4521 8.17871 20.8496 8.17871 29.6387C8.17871 41.2842 17.6025 50.708 29.248 50.708Z" fill="white"/>
 </g>
</svg>
