<?xml version="1.0" encoding="UTF-8"?>
<!--Generator: Apple Native CoreSVG 341-->
<!DOCTYPE svg
PUBLIC "-//W3C//DTD SVG 1.1//EN"
       "http://www.w3.org/Graphics/SVG/1.1/DTD/svg11.dtd">
<svg version="1.1" xmlns="http://www.w3.org/2000/svg" xmlns:xlink="http://www.w3.org/1999/xlink" viewBox="0 0 62.0117 58.7158">
 <g>
<path d="M23.877 5.78613C23.2178 7.39746 22.7539 9.7168 22.7539 11.7432C22.7539 22.6074 28.9551 28.833 39.8438 28.833C41.8701 28.833 44.0918 28.3936 45.4102 27.9297C46.6064 27.5879 47.4365 28.3936 46.7773 29.6631C46.2361 30.8452 45.5583 31.9775 44.7558 33.0322L14.6631 33.0322C12.212 29.8566 10.7666 25.8737 10.7666 21.5576C10.7666 13.6475 15.6982 6.98242 22.168 4.1748C23.4619 3.61328 24.4141 4.39453 23.877 5.78613Z" fill="white"/>
  <path d="M8.17871 46.875C8.88672 46.875 9.44824 46.3135 9.44824 45.6299C9.44824 44.9219 8.88672 44.3604 8.17871 44.3604C7.49512 44.3604 6.93359 44.9219 6.93359 45.6299C6.93359 46.3135 7.49512 46.875 8.17871 46.875ZM18.5059 46.875C19.1895 46.875 19.751 46.3135 19.751 45.6299C19.751 44.9219 19.1895 44.3604 18.5059 44.3604C17.7979 44.3604 17.2607 44.9219 17.2607 45.6299C17.2607 46.3135 17.7979 46.875 18.5059 46.875ZM28.8086 46.875C29.5166 46.875 30.0781 46.3135 30.0781 45.6299C30.0781 44.9219 29.5166 44.3604 28.8086 44.3604C28.125 44.3604 27.5635 44.9219 27.5635 45.6299C27.5635 46.3135 28.125 46.875 28.8086 46.875ZM39.1357 46.875C39.8193 46.875 40.3809 46.3135 40.3809 45.6299C40.3809 44.9219 39.8193 44.3604 39.1357 44.3604C38.4277 44.3604 37.8662 44.9219 37.8662 45.6299C37.8662 46.3135 38.4277 46.875 39.1357 46.875ZM49.4385 46.875C50.1465 46.875 50.708 46.3135 50.708 45.6299C50.708 44.9219 50.1465 44.3604 49.4385 44.3604C48.7549 44.3604 48.1934 44.9219 48.1934 45.6299C48.1934 46.3135 48.7549 46.875 49.4385 46.875ZM5.07812 52.7832C5.76172 52.7832 6.32324 52.2461 6.32324 51.5381C6.32324 50.8301 5.76172 50.293 5.07812 50.293C4.37012 50.293 3.80859 50.8301 3.80859 51.5381C3.80859 52.2461 4.37012 52.7832 5.07812 52.7832ZM15.3809 52.7832C16.0889 52.7832 16.626 52.2461 16.626 51.5381C16.626 50.8301 16.0889 50.293 15.3809 50.293C14.6729 50.293 14.1357 50.8301 14.1357 51.5381C14.1357 52.2461 14.6729 52.7832 15.3809 52.7832ZM25.708 52.7832C26.3916 52.7832 26.9531 52.2461 26.9531 51.5381C26.9531 50.8301 26.3916 50.293 25.708 50.293C25 50.293 24.4385 50.8301 24.4385 51.5381C24.4385 52.2461 25 52.7832 25.708 52.7832ZM36.0107 52.7832C36.7188 52.7832 37.2559 52.2461 37.2559 51.5381C37.2559 50.8301 36.7188 50.293 36.0107 50.293C35.3027 50.293 34.7656 50.8301 34.7656 51.5381C34.7656 52.2461 35.3027 52.7832 36.0107 52.7832ZM46.3379 52.7832C47.0215 52.7832 47.583 52.2461 47.583 51.5381C47.583 50.8301 47.0215 50.293 46.3379 50.293C45.6299 50.293 45.0684 50.8301 45.0684 51.5381C45.0684 52.2461 45.6299 52.7832 46.3379 52.7832ZM56.6406 52.7832C57.3486 52.7832 57.8857 52.2461 57.8857 51.5381C57.8857 50.8301 57.3486 50.293 56.6406 50.293C55.9326 50.293 55.3955 50.8301 55.3955 51.5381C55.3955 52.2461 55.9326 52.7832 56.6406 52.7832ZM12.2803 58.7158C12.9639 58.7158 13.5254 58.1543 13.5254 57.4707C13.5254 56.7627 12.9639 56.2012 12.2803 56.2012C11.5723 56.2012 11.0107 56.7627 11.0107 57.4707C11.0107 58.1543 11.5723 58.7158 12.2803 58.7158ZM22.583 58.7158C23.291 58.7158 23.8281 58.1543 23.8281 57.4707C23.8281 56.7627 23.291 56.2012 22.583 56.2012C21.875 56.2012 21.3379 56.7627 21.3379 57.4707C21.3379 58.1543 21.875 58.7158 22.583 58.7158ZM32.8857 58.7158C33.5938 58.7158 34.1553 58.1543 34.1553 57.4707C34.1553 56.7627 33.5938 56.2012 32.8857 56.2012C32.2021 56.2012 31.6406 56.7627 31.6406 57.4707C31.6406 58.1543 32.2021 58.7158 32.8857 58.7158ZM43.2129 58.7158C43.9209 58.7158 44.458 58.1543 44.458 57.4707C44.458 56.7627 43.9209 56.2012 43.2129 56.2012C42.5049 56.2012 41.9678 56.7627 41.9678 57.4707C41.9678 58.1543 42.5049 58.7158 43.2129 58.7158ZM53.5156 58.7158C54.2236 58.7158 54.7852 58.1543 54.7852 57.4707C54.7852 56.7627 54.2236 56.2012 53.5156 56.2012C52.832 56.2012 52.2705 56.7627 52.2705 57.4707C52.2705 58.1543 52.832 58.7158 53.5156 58.7158ZM6.00586 38.9648L55.5908 38.9648C56.4453 38.9648 57.1289 38.3057 57.1289 37.4268C57.1289 36.5479 56.4453 35.8887 55.5908 35.8887L6.00586 35.8887C5.12695 35.8887 4.46777 36.5479 4.46777 37.4268C4.46777 38.3057 5.12695 38.9648 6.00586 38.9648Z" fill="white"/>
 </g>
</svg>
