<?xml version="1.0" encoding="UTF-8"?>
<!--Generator: Apple Native CoreSVG 341-->
<!DOCTYPE svg
PUBLIC "-//W3C//DTD SVG 1.1//EN"
       "http://www.w3.org/Graphics/SVG/1.1/DTD/svg11.dtd">
<svg version="1.1" xmlns="http://www.w3.org/2000/svg" xmlns:xlink="http://www.w3.org/1999/xlink" viewBox="0 0 65.1367 56.7627">
 <g>
<path d="M27.3193 4.78516C26.6602 6.39648 26.1963 8.71582 26.1963 10.7666C26.1963 21.6064 32.3975 27.832 43.2861 27.832C45.3369 27.832 47.5342 27.417 48.8525 26.9531C50.0732 26.5869 50.8789 27.417 50.2441 28.6865C49.6978 29.8696 49.0154 31.0018 48.209 32.0557L18.1196 32.0557C15.6613 28.8834 14.209 24.9012 14.209 20.5811C14.209 12.6709 19.1406 6.00586 25.6104 3.19824C26.9043 2.63672 27.8564 3.41797 27.3193 4.78516Z" fill="white"/>
  <path d="M5.76172 47.3877L55.3467 47.3877C56.2256 47.3877 56.8848 46.7041 56.8848 45.8252C56.8848 44.9463 56.2256 44.2871 55.3467 44.2871L5.76172 44.2871C4.90723 44.2871 4.22363 44.9463 4.22363 45.8252C4.22363 46.7041 4.90723 47.3877 5.76172 47.3877ZM9.44824 56.7627L59.0332 56.7627C59.8877 56.7627 60.5713 56.1035 60.5713 55.2246C60.5713 54.3213 59.8877 53.6621 59.0332 53.6621L9.44824 53.6621C8.59375 53.6621 7.91016 54.3213 7.91016 55.2246C7.91016 56.1035 8.59375 56.7627 9.44824 56.7627ZM9.44824 37.9883L59.0332 37.9883C59.8877 37.9883 60.5713 37.3291 60.5713 36.4502C60.5713 35.5713 59.8877 34.9121 59.0332 34.9121L9.44824 34.9121C8.59375 34.9121 7.91016 35.5713 7.91016 36.4502C7.91016 37.3291 8.59375 37.9883 9.44824 37.9883Z" fill="white"/>
 </g>
</svg>
