<?xml version="1.0" encoding="UTF-8"?>
<!--Generator: Apple Native CoreSVG 341-->
<!DOCTYPE svg
PUBLIC "-//W3C//DTD SVG 1.1//EN"
       "http://www.w3.org/Graphics/SVG/1.1/DTD/svg11.dtd">
<svg version="1.1" xmlns="http://www.w3.org/2000/svg" xmlns:xlink="http://www.w3.org/1999/xlink" viewBox="0 0 71.7041 37.3291">
 <g>
  <rect height="37.3291" opacity="0" width="71.7041" x="0" y="0"/>
  <path d="M35.6689 0C15.918 0 0 15.9424 0 35.6934C0 36.5967 0.708008 37.3047 1.58691 37.3047C2.49023 37.3047 3.19824 36.5967 3.19824 35.6934C3.19824 17.7734 17.7246 3.19824 35.6689 3.19824C53.6133 3.19824 68.1641 17.7734 68.1641 35.6934C68.1641 36.5967 68.8721 37.3047 69.7754 37.3047C70.6543 37.3047 71.3623 36.5967 71.3623 35.6934C71.3623 15.9424 55.4199 0 35.6689 0Z" fill="#ff383c"/>
  <path d="M35.6689 5.34668C18.8721 5.34668 5.34668 18.8965 5.34668 35.6934C5.34668 36.5967 6.03027 37.3047 6.90918 37.3047C7.8125 37.3047 8.54492 36.5967 8.54492 35.6934C8.54492 20.7275 20.6787 8.54492 35.6689 8.54492C50.6592 8.54492 62.8418 20.7275 62.8418 35.6934C62.8418 36.5967 63.5254 37.3047 64.4287 37.3047C65.3076 37.3047 66.04 36.5967 66.04 35.6934C66.04 18.8965 52.4902 5.34668 35.6689 5.34668Z" fill="#ffab2c"/>
  <path d="M35.6689 10.6689C21.8262 10.6689 10.6934 21.8506 10.6934 35.6934C10.6934 36.5967 11.377 37.3047 12.2559 37.3047C13.1592 37.3047 13.8916 36.5967 13.8916 35.6934C13.8916 23.6816 23.6328 13.8672 35.6689 13.8672C47.7295 13.8672 57.4951 23.6816 57.4951 35.6934C57.4951 36.5967 58.1787 37.3047 59.082 37.3047C59.9609 37.3047 60.6934 36.5967 60.6934 35.6934C60.6934 21.8506 49.5117 10.6689 35.6689 10.6689Z" fill="#baeb00"/>
  <path d="M35.6689 16.0156C24.7559 16.0156 16.0156 24.7803 16.0156 35.6934C16.0156 36.5967 16.7236 37.3047 17.6025 37.3047C18.5059 37.3047 19.2139 36.5967 19.2139 35.6934C19.2139 26.6113 26.5869 19.2139 35.6689 19.2139C44.751 19.2139 52.1484 26.6113 52.1484 35.6934C52.1484 36.5967 52.832 37.3047 53.7598 37.3047C54.6387 37.3047 55.3467 36.5967 55.3467 35.6934C55.3467 24.7803 46.582 16.0156 35.6689 16.0156Z" fill="#00c0e8"/>
  <path d="M35.6689 21.3623C27.7344 21.3623 21.3623 27.7588 21.3623 35.6934C21.3623 36.5967 22.0459 37.3047 22.9492 37.3047C23.8525 37.3047 24.5605 36.5967 24.5605 35.6934C24.5605 29.5654 29.5166 24.5605 35.6689 24.5605C41.8213 24.5605 46.8018 29.5654 46.8018 35.6934C46.8018 36.5967 47.5098 37.3047 48.4131 37.3047C49.292 37.3047 50 36.5967 50 35.6934C50 27.7588 43.6279 21.3623 35.6689 21.3623Z" fill="#cb30e0"/>
 </g>
</svg>
