<?xml version="1.0" encoding="UTF-8"?>
<!--Generator: Apple Native CoreSVG 341-->
<!DOCTYPE svg
PUBLIC "-//W3C//DTD SVG 1.1//EN"
       "http://www.w3.org/Graphics/SVG/1.1/DTD/svg11.dtd">
<svg version="1.1" xmlns="http://www.w3.org/2000/svg" xmlns:xlink="http://www.w3.org/1999/xlink" viewBox="0 0 65.7471 49.1943">
 <g>
  <rect height="49.1943" opacity="0" width="65.7471" x="0" y="0"/>
  <path d="M31.8115 8.37402C32.8613 8.03223 33.8135 7.86133 34.9121 7.86133C38.2172 7.86133 41.1097 9.5606 42.7619 12.1675C38.6077 12.2588 34.9112 14.0457 32.2998 16.8945C31.6895 16.7969 31.1279 16.748 30.4932 16.748C25.0244 16.748 20.3857 20.166 18.6279 25.0732C14.4813 26.0864 11.1566 29.1905 9.84804 33.1589C5.65244 31.8735 3.00293 28.2171 3.00293 23.8281C3.00293 19.0186 6.4209 15.0391 11.0107 14.1113C11.3525 8.1543 16.2354 3.2959 22.3145 3.2959C26.2695 3.2959 29.7119 5.27344 31.8115 8.37402Z" fill="white"/>
  <path d="M21.7773 45.874L52.124 45.874C58.252 45.874 62.4023 41.5039 62.4023 36.0352C62.4023 31.2256 58.9844 27.2217 54.4189 26.2939C54.0527 20.3369 49.1943 15.5029 43.1152 15.5029C39.1357 15.5029 35.6934 17.4805 33.5938 20.5811C32.5439 20.2393 31.5918 20.0684 30.4932 20.0684C25.8057 20.0684 21.9727 23.4863 21.2646 28.0518C16.4062 28.1982 12.5732 32.1533 12.5732 36.9385C12.5732 41.9189 16.2598 45.874 21.7773 45.874Z" fill="white"/>
 </g>
</svg>
