<?xml version="1.0" encoding="UTF-8"?>
<!--Generator: Apple Native CoreSVG 341-->
<!DOCTYPE svg
PUBLIC "-//W3C//DTD SVG 1.1//EN"
       "http://www.w3.org/Graphics/SVG/1.1/DTD/svg11.dtd">
<svg version="1.1" xmlns="http://www.w3.org/2000/svg" xmlns:xlink="http://www.w3.org/1999/xlink" viewBox="0 0 43.6393 49.3421">
 <g>
  <rect height="49.3421" opacity="0" width="43.6393" x="0" y="0"/>
  <path d="M20.5249 25.277L20.4363 26.7401L13.0916 31.6168L10.4317 33.1529L10.4549 39.8932C10.4549 40.8209 9.77131 41.5534 8.81916 41.529C7.89143 41.5534 7.23225 40.8209 7.25666 39.8932L7.22213 35.0063L2.69123 37.6227C1.73909 38.1598 0.786938 37.9157 0.274243 36.9635C-0.262867 36.0358 0.00568805 35.1325 0.933422 34.5709L5.46325 31.9658L1.22639 29.4928C0.445141 29.0534 0.152172 28.1256 0.61604 27.32C1.05549 26.4655 2.08088 26.2702 2.83772 26.734L8.67732 30.1173L11.3338 28.5895L19.237 24.6379ZM36.0164 9.40005L36.0511 14.3254L40.6063 11.695C41.5096 11.1579 42.4617 11.3776 42.9744 12.3053C43.5604 13.2331 43.2918 14.1852 42.3397 14.7223L37.8071 17.3503L42.0467 19.8249C42.828 20.2643 43.1209 21.192 42.6815 21.9733C42.2176 22.8278 41.2166 23.0475 40.4354 22.5836L34.6177 19.1996L31.9393 20.7526L24.0753 24.6453L22.731 23.9732L22.8225 22.5703L30.2059 17.7008L32.8415 16.1789L32.8182 9.40005C32.8182 8.49673 33.5018 7.7643 34.4783 7.78872C35.3817 7.7643 36.0408 8.49673 36.0164 9.40005Z" fill="black" fill-opacity="0.85"/>
  <path d="M31.9637 28.5895L34.5954 30.1066L40.4354 26.7096C41.2166 26.2458 42.2176 26.4411 42.6815 27.2956C43.1209 28.1012 42.828 29.029 42.0467 29.4684L37.7941 31.9505L42.3397 34.5709C43.2674 35.1081 43.5604 36.0358 43.0233 36.9391C42.5106 37.9157 41.534 38.1354 40.6063 37.6227L36.0509 34.9983L36.0164 39.8688C36.0408 40.7965 35.3817 41.529 34.4783 41.5045C33.5018 41.529 32.8182 40.7965 32.8182 39.8688L32.8414 33.1492L30.1815 31.6168L22.82 26.7092L22.6864 24.6588L22.731 23.9732ZM10.4549 9.42446L10.4318 16.1536L13.0672 17.6764L20.4342 22.5418L20.5623 24.6588L20.5249 25.277L11.3582 20.7282L8.71826 19.2011L2.83772 22.6081C2.08088 23.0719 1.05549 22.8522 0.61604 21.9977C0.152172 21.2165 0.445141 20.2887 1.22639 19.8493L5.51327 17.3471L0.933422 14.6979C-0.018726 14.1852-0.262867 13.2086 0.298657 12.3053C0.86018 11.3776 1.7635 11.1579 2.71565 11.695L7.22234 14.2991L7.25666 9.42446C7.23225 8.52114 7.89143 7.78872 8.81916 7.81313C9.77131 7.78872 10.4549 8.52114 10.4549 9.42446Z" fill="black" fill-opacity="0.85"/>
  <path d="M21.6121 49.317C22.6864 49.3415 23.3944 48.6579 23.3944 47.5348L23.3944 35.5231L22.6864 24.6588L23.3944 13.7946L23.3944 1.75845C23.3944 0.659813 22.6864-0.0237812 21.6121 0.000632908C20.5623 0.000632908 19.9031 0.684227 19.9031 1.75845L19.9031 13.7702L20.5623 24.6588L19.9031 35.5475L19.9031 47.5348C19.9031 48.6334 20.5623 49.317 21.6121 49.317ZM29.8397 5.10317C29.3758 4.29751 28.4237 4.1022 27.6424 4.56606L21.6365 8.00845L15.6307 4.56606C14.8494 4.1022 13.8973 4.29751 13.4334 5.10317C12.9207 5.93325 13.2625 6.8854 14.0194 7.34927L20.1961 10.8649C20.6356 11.109 21.1239 11.2311 21.6365 11.2311C22.1248 11.2311 22.6619 11.109 23.077 10.8649L29.2537 7.34927C30.035 6.8854 30.3524 5.93325 29.8397 5.10317ZM13.4334 44.2145C13.8973 45.0202 14.8494 45.1911 15.6307 44.7516L21.6365 41.3092L27.6424 44.7516C28.4237 45.1911 29.3758 45.0202 29.8397 44.2145C30.3524 43.3844 30.035 42.4323 29.2537 41.9684L23.077 38.4528C22.6375 38.2086 22.1492 38.0866 21.6365 38.0866C21.1483 38.0866 20.6112 38.2086 20.1961 38.4528L14.0194 41.9684C13.2625 42.4323 12.9207 43.3844 13.4334 44.2145Z" fill="black" fill-opacity="0.85"/>
 </g>
</svg>
