<?xml version="1.0" encoding="UTF-8"?>
<!--Generator: Apple Native CoreSVG 341-->
<!DOCTYPE svg
PUBLIC "-//W3C//DTD SVG 1.1//EN"
       "http://www.w3.org/Graphics/SVG/1.1/DTD/svg11.dtd">
<svg version="1.1" xmlns="http://www.w3.org/2000/svg" xmlns:xlink="http://www.w3.org/1999/xlink" viewBox="0 0 53.1494 53.0029">
 <g>
<path d="M26.416 9.49707C27.5635 9.49707 28.5156 8.54492 28.5156 7.37305L28.5156 2.12402C28.5156 0.952148 27.5635 0 26.416 0C25.2441 0 24.292 0.952148 24.292 2.12402L24.292 7.37305C24.292 8.54492 25.2441 9.49707 26.416 9.49707ZM38.3789 14.502C39.209 15.3076 40.5518 15.332 41.3818 14.502L45.1172 10.7666C45.9229 9.96094 45.9229 8.59375 45.1172 7.76367C44.3115 6.95801 42.9443 6.95801 42.1387 7.76367L38.3789 11.5234C37.5732 12.3291 37.5732 13.6963 38.3789 14.502ZM43.335 26.4893C43.335 27.6367 44.3115 28.5889 45.459 28.5889L50.708 28.5889C51.8555 28.5889 52.8076 27.6367 52.8076 26.4893C52.8076 25.3418 51.8555 24.3652 50.708 24.3652L45.459 24.3652C44.3115 24.3652 43.335 25.3418 43.335 26.4893ZM38.3789 38.4766C37.5732 39.3066 37.5732 40.6494 38.3789 41.4551L42.1387 45.2393C42.9443 46.0449 44.3115 45.9961 45.1172 45.2148C45.9229 44.3848 45.9229 43.042 45.1172 42.2363L41.3574 38.4766C40.5518 37.6709 39.209 37.6953 38.3789 38.4766ZM26.416 43.4814C25.2441 43.4814 24.292 44.4336 24.292 45.5811L24.292 50.8545C24.292 52.002 25.2441 52.9541 26.416 52.9541C27.5635 52.9541 28.5156 52.002 28.5156 50.8545L28.5156 45.5811C28.5156 44.4336 27.5635 43.4814 26.416 43.4814ZM14.4287 38.4766C13.5986 37.6953 12.2314 37.6709 11.4258 38.4766L7.69043 42.2119C6.88477 43.0176 6.88477 44.3604 7.66602 45.1904C8.47168 45.9717 9.86328 46.0205 10.6689 45.2148L14.4043 41.4551C15.21 40.6494 15.21 39.3066 14.4287 38.4766ZM9.47266 26.4893C9.47266 25.3418 8.49609 24.3652 7.34863 24.3652L2.09961 24.3652C0.952148 24.3652 0 25.3418 0 26.4893C0 27.6367 0.952148 28.5889 2.09961 28.5889L7.34863 28.5889C8.49609 28.5889 9.47266 27.6367 9.47266 26.4893ZM14.4043 14.502C15.21 13.7207 15.21 12.3047 14.4287 11.5234L10.6934 7.76367C9.91211 6.98242 8.52051 6.95801 7.71484 7.76367C6.90918 8.59375 6.90918 9.96094 7.69043 10.7422L11.4258 14.502C12.2314 15.3076 13.5742 15.3076 14.4043 14.502Z" fill="#ffcc00"/>
  <path d="M26.3916 38.916C33.252 38.916 38.8184 33.3496 38.8184 26.4893C38.8184 19.6289 33.252 14.0381 26.3916 14.0381C19.5312 14.0381 13.9648 19.6289 13.9648 26.4893C13.9648 33.3496 19.5312 38.916 26.3916 38.916Z" fill="#ffcc00"/>
 </g>
</svg>
