<?xml version="1.0" encoding="UTF-8"?>
<!--Generator: Apple Native CoreSVG 341-->
<!DOCTYPE svg
PUBLIC "-//W3C//DTD SVG 1.1//EN"
       "http://www.w3.org/Graphics/SVG/1.1/DTD/svg11.dtd">
<svg version="1.1" xmlns="http://www.w3.org/2000/svg" xmlns:xlink="http://www.w3.org/1999/xlink" viewBox="0 0 48.6572 48.3643">
 <g>
<path d="M24.1699 5.07812C25.5615 5.07812 26.709 3.95508 26.709 2.53906C26.709 1.12305 25.5615 0 24.1699 0C22.7539 0 21.6309 1.12305 21.6309 2.53906C21.6309 3.95508 22.7539 5.07812 24.1699 5.07812ZM39.4775 11.4014C40.8691 11.4014 41.9922 10.2783 41.9922 8.8623C41.9922 7.44629 40.8691 6.32324 39.4775 6.32324C38.0615 6.32324 36.9385 7.44629 36.9385 8.8623C36.9385 10.2783 38.0615 11.4014 39.4775 11.4014ZM45.8008 26.709C47.1924 26.709 48.3154 25.5859 48.3154 24.1699C48.3154 22.7539 47.1924 21.6309 45.8008 21.6309C44.3848 21.6309 43.2617 22.7539 43.2617 24.1699C43.2617 25.5859 44.3848 26.709 45.8008 26.709ZM39.4775 42.0166C40.8691 42.0166 41.9922 40.8936 41.9922 39.4775C41.9922 38.0615 40.8691 36.9385 39.4775 36.9385C38.0615 36.9385 36.9385 38.0615 36.9385 39.4775C36.9385 40.8936 38.0615 42.0166 39.4775 42.0166ZM24.1699 48.3398C25.5615 48.3398 26.709 47.2168 26.709 45.8008C26.709 44.3848 25.5615 43.2617 24.1699 43.2617C22.7539 43.2617 21.6309 44.3848 21.6309 45.8008C21.6309 47.2168 22.7539 48.3398 24.1699 48.3398ZM8.8623 42.0166C10.2783 42.0166 11.4014 40.8936 11.4014 39.4775C11.4014 38.0615 10.2783 36.9385 8.8623 36.9385C7.44629 36.9385 6.32324 38.0615 6.32324 39.4775C6.32324 40.8936 7.44629 42.0166 8.8623 42.0166ZM2.53906 26.709C3.95508 26.709 5.07812 25.5859 5.07812 24.1699C5.07812 22.7539 3.95508 21.6309 2.53906 21.6309C1.12305 21.6309 0 22.7539 0 24.1699C0 25.5859 1.12305 26.709 2.53906 26.709ZM8.8623 11.4014C10.2783 11.4014 11.4014 10.2783 11.4014 8.8623C11.4014 7.44629 10.2783 6.32324 8.8623 6.32324C7.44629 6.32324 6.32324 7.44629 6.32324 8.8623C6.32324 10.2783 7.44629 11.4014 8.8623 11.4014Z" fill="#ffcc00"/>
  <path d="M24.1699 36.5967C31.0303 36.5967 36.5967 31.0303 36.5967 24.1699C36.5967 17.3096 31.0303 11.7188 24.1699 11.7188C17.3096 11.7188 11.7188 17.3096 11.7188 24.1699C11.7188 31.0303 17.3096 36.5967 24.1699 36.5967Z" fill="#ffcc00"/>
 </g>
</svg>
