<?xml version="1.0" encoding="UTF-8"?>
<!--Generator: Apple Native CoreSVG 341-->
<!DOCTYPE svg
PUBLIC "-//W3C//DTD SVG 1.1//EN"
       "http://www.w3.org/Graphics/SVG/1.1/DTD/svg11.dtd">
<svg version="1.1" xmlns="http://www.w3.org/2000/svg" xmlns:xlink="http://www.w3.org/1999/xlink" viewBox="0 0 62.0117 61.9385">
 <g>
<path d="M44.0674 29.7119C44.0674 31.4484 43.7206 33.1158 43.0859 34.6436L18.5841 34.6436C17.9493 33.1158 17.6025 31.4484 17.6025 29.7119C17.6025 22.5098 23.6084 16.4795 30.835 16.4795C38.0615 16.4795 44.0674 22.5098 44.0674 29.7119ZM13.0371 29.126C13.0615 30.2246 12.1094 31.1035 10.8398 31.1035L4.83398 31.1035C3.58887 31.1035 2.66113 30.2246 2.66113 29.126C2.66113 28.0273 3.58887 27.1484 4.83398 27.1484L10.8398 27.1484C12.1094 27.1484 13.0127 28.0518 13.0371 29.126ZM59.0088 29.126C59.0088 30.2246 58.1055 31.1279 56.8359 31.1035L50.8301 31.1035C49.585 31.1035 48.6572 30.2246 48.6328 29.126C48.6084 28.0273 49.585 27.1484 50.8301 27.1484L56.8359 27.1484C58.1055 27.1484 59.0088 28.0518 59.0088 29.126ZM13.8672 9.96094L18.1152 14.209C18.9941 15.1123 18.9941 16.3818 18.2617 17.1631C17.5049 17.9443 16.1865 17.9199 15.2832 17.0166L11.0352 12.7686C10.1318 11.8652 10.1318 10.5957 10.9375 9.83887C11.6943 9.08203 12.9639 9.05762 13.8672 9.96094ZM50.7568 9.83887C51.5137 10.6201 51.5381 11.8652 50.6348 12.7686L46.3867 17.0166C45.4834 17.9199 44.2139 17.9199 43.4326 17.1631C42.6514 16.4062 42.6758 15.1123 43.5791 14.209L47.8271 9.96094C48.7305 9.05762 50 9.05762 50.7568 9.83887ZM32.8125 3.75977L32.8125 9.76562C32.8125 11.0107 31.9336 11.9385 30.835 11.9629C29.7363 11.9873 28.8574 11.0107 28.8574 9.76562L28.8574 3.75977C28.8574 2.49023 29.7363 1.58691 30.835 1.58691C31.9336 1.58691 32.8125 2.49023 32.8125 3.75977Z" fill="#ffcc00"/>
  <path d="M17.3096 52.7832C17.7734 52.7832 18.0908 52.3682 18.0664 51.9043L17.8955 49.585L19.8486 50.9033C20.1904 51.1475 20.7275 51.0498 20.9717 50.6836C21.2158 50.3174 21.0693 49.7314 20.6055 49.5361L18.5059 48.5107L20.6299 47.4609C21.0693 47.2412 21.1914 46.7041 20.9961 46.3379C20.7764 45.9473 20.1904 45.874 19.8486 46.1182L17.8955 47.4609L18.0908 45.1172C18.1396 44.6289 17.7734 44.2383 17.3096 44.2383C16.8213 44.2383 16.5039 44.6289 16.5283 45.1172L16.6992 47.4609L14.7217 46.1182C14.3799 45.874 13.8428 45.9229 13.623 46.3379C13.4033 46.7041 13.501 47.2168 13.9648 47.4609L16.0645 48.5107L13.9648 49.5361C13.4766 49.7559 13.3789 50.293 13.5742 50.6836C13.7939 51.0742 14.3799 51.1475 14.7217 50.9033L16.6992 49.585L16.5527 51.9043C16.5283 52.3682 16.8213 52.7832 17.3096 52.7832ZM30.835 52.7832C31.2988 52.7832 31.5918 52.3682 31.5674 51.9043L31.4209 49.585L33.374 50.9033C33.7158 51.1475 34.2529 51.0498 34.4971 50.6836C34.7412 50.3174 34.5947 49.7314 34.1309 49.5361L32.0312 48.5107L34.1553 47.4609C34.5947 47.2412 34.7168 46.7041 34.5215 46.3379C34.3018 45.9473 33.7158 45.874 33.374 46.1182L31.4209 47.4609L31.5918 45.1172C31.6406 44.6289 31.2988 44.2383 30.835 44.2383C30.3467 44.2383 30.0293 44.6289 30.0537 45.1172L30.2246 47.4609L28.2471 46.1182C27.9053 45.874 27.3682 45.9229 27.1484 46.3379C26.9287 46.7041 27.0264 47.2168 27.4902 47.4609L29.5898 48.5107L27.4902 49.5361C27.002 49.7559 26.9043 50.293 27.0996 50.6836C27.3193 51.0742 27.9053 51.1475 28.2471 50.9033L30.2246 49.585L30.0781 51.9043C30.0537 52.3682 30.3467 52.7832 30.835 52.7832ZM44.3604 52.7832C44.8242 52.7832 45.1172 52.3682 45.0928 51.9043L44.9463 49.585L46.8994 50.9033C47.2412 51.1475 47.7783 51.0498 48.0225 50.6836C48.2666 50.3174 48.1201 49.7314 47.6562 49.5361L45.5566 48.5107L47.6807 47.4609C48.1201 47.2412 48.2422 46.7041 48.0469 46.3379C47.8271 45.9473 47.2412 45.874 46.8994 46.1182L44.9463 47.4609L45.1172 45.1172C45.166 44.6289 44.8242 44.2383 44.3604 44.2383C43.8721 44.2383 43.5547 44.6289 43.5791 45.1172L43.75 47.4609L41.7725 46.1182C41.4307 45.874 40.8936 45.9229 40.6738 46.3379C40.4541 46.7041 40.5518 47.2168 41.0156 47.4609L43.1152 48.5107L41.0156 49.5361C40.5273 49.7559 40.4297 50.293 40.625 50.6836C40.8447 51.0742 41.4307 51.1475 41.7725 50.9033L43.75 49.585L43.6035 51.9043C43.5791 52.3682 43.8721 52.7832 44.3604 52.7832ZM12.0117 61.9385C12.4756 61.9385 12.793 61.5234 12.7686 61.0596L12.5977 58.7402L14.5508 60.0586C14.8926 60.3027 15.4297 60.2051 15.6738 59.8389C15.918 59.4727 15.7715 58.9111 15.3076 58.6914L13.208 57.666L15.332 56.6162C15.7715 56.3965 15.8936 55.8594 15.6982 55.4932C15.4785 55.1025 14.8926 55.0293 14.5508 55.2734L12.5977 56.6162L12.793 54.2725C12.8418 53.7842 12.4756 53.3936 12.0117 53.3936C11.5234 53.3936 11.2061 53.7842 11.2305 54.2725L11.4014 56.6162L9.42383 55.2734C9.08203 55.0293 8.54492 55.0781 8.3252 55.4932C8.10547 55.8594 8.20312 56.3721 8.66699 56.6162L10.7666 57.666L8.66699 58.6914C8.17871 58.9111 8.08105 59.4482 8.27637 59.8389C8.49609 60.2295 9.08203 60.3027 9.42383 60.0586L11.4014 58.7402L11.2549 61.0596C11.2305 61.5234 11.5234 61.9385 12.0117 61.9385ZM25.5371 61.9385C26.001 61.9385 26.2939 61.5234 26.2695 61.0596L26.123 58.7402L28.0762 60.0586C28.418 60.3027 28.9551 60.2051 29.1992 59.8389C29.4434 59.4727 29.2969 58.9111 28.833 58.6914L26.7334 57.666L28.8574 56.6162C29.2969 56.3965 29.4189 55.8594 29.2236 55.4932C29.0039 55.1025 28.418 55.0293 28.0762 55.2734L26.123 56.6162L26.2939 54.2725C26.3428 53.7842 26.001 53.3936 25.5371 53.3936C25.0488 53.3936 24.7314 53.7842 24.7559 54.2725L24.9268 56.6162L22.9492 55.2734C22.6074 55.0293 22.0703 55.0781 21.8506 55.4932C21.6309 55.8594 21.7285 56.3721 22.1924 56.6162L24.292 57.666L22.1924 58.6914C21.7041 58.9111 21.6064 59.4482 21.8018 59.8389C22.0215 60.2295 22.6074 60.3027 22.9492 60.0586L24.9268 58.7402L24.7803 61.0596C24.7559 61.5234 25.0488 61.9385 25.5371 61.9385ZM39.0625 61.9385C39.5264 61.9385 39.8193 61.5234 39.7949 61.0596L39.6484 58.7402L41.6016 60.0586C41.9434 60.3027 42.4805 60.2051 42.7246 59.8389C42.9688 59.4727 42.8223 58.9111 42.3584 58.6914L40.2588 57.666L42.3828 56.6162C42.8223 56.3965 42.9443 55.8594 42.749 55.4932C42.5293 55.1025 41.9434 55.0293 41.6016 55.2734L39.6484 56.6162L39.8193 54.2725C39.8682 53.7842 39.5264 53.3936 39.0625 53.3936C38.5742 53.3936 38.2568 53.7842 38.2812 54.2725L38.4521 56.6162L36.4746 55.2734C36.1328 55.0293 35.5957 55.0781 35.376 55.4932C35.1562 55.8594 35.2539 56.3721 35.7178 56.6162L37.8174 57.666L35.7178 58.6914C35.2295 58.9111 35.1318 59.4482 35.3271 59.8389C35.5469 60.2295 36.1328 60.3027 36.4746 60.0586L38.4521 58.7402L38.3057 61.0596C38.2812 61.5234 38.5742 61.9385 39.0625 61.9385ZM6.00586 40.5762L55.5908 40.5762C56.4453 40.5762 57.1289 39.917 57.1289 39.0381C57.1289 38.1592 56.4453 37.5 55.5908 37.5L6.00586 37.5C5.12695 37.5 4.46777 38.1592 4.46777 39.0381C4.46777 39.917 5.12695 40.5762 6.00586 40.5762Z" fill="white"/>
 </g>
</svg>
