<?xml version="1.0" encoding="UTF-8"?>
<!--Generator: Apple Native CoreSVG 341-->
<!DOCTYPE svg
PUBLIC "-//W3C//DTD SVG 1.1//EN"
       "http://www.w3.org/Graphics/SVG/1.1/DTD/svg11.dtd">
<svg version="1.1" xmlns="http://www.w3.org/2000/svg" xmlns:xlink="http://www.w3.org/1999/xlink" viewBox="0 0 62.915 43.7256">
 <g>
<path d="M44.5068 28.125C44.5068 20.8984 38.5254 14.8682 31.2988 14.8682C24.0479 14.8682 18.0664 20.8984 18.0664 28.125C18.0664 29.9072 18.4326 31.5918 19.1162 33.1299L43.457 33.1299C44.1406 31.5918 44.5068 29.9072 44.5068 28.125ZM5.29785 29.5166L11.3037 29.5166C12.5732 29.5166 13.5254 28.6377 13.501 27.5391C13.4766 26.4404 12.5488 25.5615 11.3037 25.5615L5.29785 25.5615C4.02832 25.5615 3.125 26.4404 3.125 27.5391C3.125 28.6377 4.02832 29.5166 5.29785 29.5166ZM15.7471 15.4297C16.626 16.333 17.9443 16.3574 18.7012 15.5762C19.458 14.7949 19.458 13.501 18.5547 12.6221L14.3066 8.37402C13.4033 7.44629 12.1582 7.49512 11.377 8.25195C10.5957 9.00879 10.5713 10.2783 11.499 11.1816ZM43.8721 15.5762C44.6533 16.333 45.9473 16.333 46.8262 15.4297L51.0742 11.1816C52.002 10.2783 51.9531 9.0332 51.1963 8.25195C50.4395 7.4707 49.1699 7.44629 48.2666 8.37402L44.0186 12.6221C43.1152 13.501 43.0908 14.8193 43.8721 15.5762ZM51.2695 29.5166L57.2754 29.5166C58.5449 29.5166 59.4482 28.6377 59.4482 27.5391C59.4482 26.4404 58.5449 25.5615 57.2754 25.5615L51.2695 25.5615C50.0244 25.5615 49.0479 26.4404 49.0723 27.5391C49.0967 28.6377 50.0244 29.5166 51.2695 29.5166ZM31.2988 10.376C32.373 10.3516 33.2764 9.42383 33.2764 8.17871L33.2764 2.17285C33.2764 0.90332 32.373 0 31.2988 0C30.2002 0 29.2969 0.90332 29.2969 2.17285L29.2969 8.17871C29.2969 9.42383 30.2002 10.4004 31.2988 10.376Z" fill="#ffcc00"/>
  <path d="M2.12402 39.8926L60.4492 39.8926C61.5967 39.8926 62.5732 39.0137 62.5732 37.9395C62.5732 36.8652 61.5967 35.9863 60.4492 35.9863L2.12402 35.9863C0.976562 35.9863 0 36.8652 0 37.9395C0 39.0137 0.976562 39.8926 2.12402 39.8926Z" fill="white"/>
 </g>
</svg>
