<?xml version="1.0" encoding="UTF-8"?>
<!--Generator: Apple Native CoreSVG 341-->
<!DOCTYPE svg
PUBLIC "-//W3C//DTD SVG 1.1//EN"
       "http://www.w3.org/Graphics/SVG/1.1/DTD/svg11.dtd">
<svg version="1.1" xmlns="http://www.w3.org/2000/svg" xmlns:xlink="http://www.w3.org/1999/xlink" viewBox="0 0 62.0117 58.7646">
 <g>
<path d="M44.0674 28.125C44.0674 29.8615 43.7206 31.5289 43.0859 33.0566L18.5841 33.0566C17.9493 31.5289 17.6025 29.8615 17.6025 28.125C17.6025 20.9229 23.6084 14.8926 30.835 14.8926C38.0615 14.8926 44.0674 20.9229 44.0674 28.125ZM13.0371 27.5391C13.0615 28.6377 12.1094 29.5166 10.8398 29.5166L4.83398 29.5166C3.58887 29.5166 2.66113 28.6377 2.66113 27.5391C2.66113 26.4404 3.58887 25.5615 4.83398 25.5615L10.8398 25.5615C12.1094 25.5615 13.0127 26.4648 13.0371 27.5391ZM59.0088 27.5391C59.0088 28.6377 58.1055 29.541 56.8359 29.5166L50.8301 29.5166C49.585 29.5166 48.6572 28.6377 48.6328 27.5391C48.6084 26.4404 49.585 25.5615 50.8301 25.5615L56.8359 25.5615C58.1055 25.5615 59.0088 26.4648 59.0088 27.5391ZM13.8672 8.37402L18.1152 12.6221C18.9941 13.5254 18.9941 14.7949 18.2617 15.5762C17.5049 16.3574 16.1865 16.333 15.2832 15.4297L11.0352 11.1816C10.1318 10.2783 10.1318 9.00879 10.9375 8.25195C11.6943 7.49512 12.9639 7.4707 13.8672 8.37402ZM50.7568 8.25195C51.5137 9.0332 51.5381 10.2783 50.6348 11.1816L46.3867 15.4297C45.4834 16.333 44.2139 16.333 43.4326 15.5762C42.6514 14.8193 42.6758 13.5254 43.5791 12.6221L47.8271 8.37402C48.7305 7.4707 50 7.4707 50.7568 8.25195ZM32.8125 2.17285L32.8125 8.17871C32.8125 9.42383 31.9336 10.3516 30.835 10.376C29.7363 10.4004 28.8574 9.42383 28.8574 8.17871L28.8574 2.17285C28.8574 0.90332 29.7363 0 30.835 0C31.9336 0 32.8125 0.90332 32.8125 2.17285Z" fill="#ffcc00"/>
  <path d="M15.9668 50.415L19.1406 44.9219C19.6045 44.165 19.3604 43.3105 18.6279 42.8711C17.8955 42.4561 17.0654 42.7002 16.6016 43.4326L13.4033 48.999C12.9883 49.707 13.208 50.5615 13.9648 50.9766C14.6729 51.3916 15.5518 51.1475 15.9668 50.415ZM21.6553 57.373L28.8574 44.873C29.2725 44.165 29.0771 43.335 28.3691 42.8955C27.6611 42.4805 26.7578 42.7002 26.3428 43.4326L19.1895 55.8838C18.7744 56.6406 18.9697 57.4951 19.7021 57.9102C20.4102 58.3252 21.2402 58.1055 21.6553 57.373ZM35.4004 50.3906L38.5742 44.8975C39.0137 44.1406 38.7695 43.2861 38.0615 42.8467C37.3047 42.4316 36.4746 42.6758 36.0352 43.4082L32.8369 48.9746C32.4219 49.6826 32.6172 50.5371 33.374 50.9521C34.1064 51.3672 34.9854 51.123 35.4004 50.3906ZM41.0645 57.3486L48.291 44.8486C48.7061 44.1406 48.4863 43.3105 47.7783 42.8711C47.0947 42.4561 46.2158 42.6758 45.7764 43.4082L38.5986 55.8594C38.1836 56.6162 38.4033 57.4707 39.1113 57.8857C39.8193 58.3008 40.6494 58.0811 41.0645 57.3486Z" fill="#00c0e8"/>
  <path d="M6.00586 38.9893L55.5908 38.9893C56.4453 38.9893 57.1289 38.3301 57.1289 37.4512C57.1289 36.5723 56.4453 35.9131 55.5908 35.9131L6.00586 35.9131C5.12695 35.9131 4.46777 36.5723 4.46777 37.4512C4.46777 38.3301 5.12695 38.9893 6.00586 38.9893Z" fill="white"/>
 </g>
</svg>
