<?xml version="1.0" encoding="UTF-8"?>
<!--Generator: Apple Native CoreSVG 341-->
<!DOCTYPE svg
PUBLIC "-//W3C//DTD SVG 1.1//EN"
       "http://www.w3.org/Graphics/SVG/1.1/DTD/svg11.dtd">
<svg version="1.1" xmlns="http://www.w3.org/2000/svg" xmlns:xlink="http://www.w3.org/1999/xlink" viewBox="0 0 65.1367 58.7646">
 <g>
<path d="M45.6299 28.125C45.6299 29.8615 45.2831 31.5289 44.6484 33.0566L20.1466 33.0566C19.5118 31.5289 19.165 29.8615 19.165 28.125C19.165 20.9229 25.1709 14.8926 32.3975 14.8926C39.624 14.8926 45.6299 20.9229 45.6299 28.125ZM14.5996 27.5391C14.624 28.6377 13.6719 29.5166 12.4023 29.5166L6.39648 29.5166C5.15137 29.5166 4.22363 28.6377 4.22363 27.5391C4.22363 26.4404 5.15137 25.5615 6.39648 25.5615L12.4023 25.5615C13.6719 25.5615 14.5752 26.4648 14.5996 27.5391ZM60.5713 27.5391C60.5713 28.6377 59.668 29.541 58.3984 29.5166L52.3926 29.5166C51.123 29.5166 50.2197 28.6377 50.1953 27.5391C50.1709 26.4404 51.123 25.5615 52.3926 25.5615L58.3984 25.5615C59.668 25.5615 60.5713 26.4648 60.5713 27.5391ZM15.4297 8.37402L19.6777 12.6221C20.5566 13.5254 20.5566 14.7949 19.7998 15.5762C19.0674 16.3574 17.749 16.333 16.8457 15.4297L12.5977 11.1816C11.6943 10.2783 11.6943 9.00879 12.5 8.25195C13.2568 7.49512 14.502 7.4707 15.4297 8.37402ZM52.3193 8.25195C53.0762 9.0332 53.1006 10.2783 52.1973 11.1816L47.9492 15.4297C47.0459 16.333 45.7764 16.333 44.9951 15.5762C44.2139 14.8193 44.2383 13.5254 45.1416 12.6221L49.3896 8.37402C50.293 7.4707 51.5625 7.4707 52.3193 8.25195ZM34.375 2.17285L34.375 8.17871C34.375 9.42383 33.4961 10.3516 32.3975 10.376C31.2988 10.4004 30.4199 9.42383 30.4199 8.17871L30.4199 2.17285C30.4199 0.90332 31.2988 0 32.3975 0C33.4961 0 34.375 0.90332 34.375 2.17285Z" fill="#ffcc00"/>
  <path d="M5.76172 48.3887L55.3467 48.3887C56.2256 48.3887 56.8848 47.7051 56.8848 46.8262C56.8848 45.9473 56.2256 45.2881 55.3467 45.2881L5.76172 45.2881C4.90723 45.2881 4.22363 45.9473 4.22363 46.8262C4.22363 47.7051 4.90723 48.3887 5.76172 48.3887ZM9.44824 57.7637L59.0332 57.7637C59.8877 57.7637 60.5713 57.1045 60.5713 56.2256C60.5713 55.3223 59.8877 54.6631 59.0332 54.6631L9.44824 54.6631C8.59375 54.6631 7.91016 55.3223 7.91016 56.2256C7.91016 57.1045 8.59375 57.7637 9.44824 57.7637ZM9.44824 38.9893L59.0332 38.9893C59.8877 38.9893 60.5713 38.3301 60.5713 37.4512C60.5713 36.5723 59.8877 35.9131 59.0332 35.9131L9.44824 35.9131C8.59375 35.9131 7.91016 36.5723 7.91016 37.4512C7.91016 38.3301 8.59375 38.9893 9.44824 38.9893Z" fill="white"/>
 </g>
</svg>
