<?xml version="1.0" encoding="UTF-8"?>
<!--Generator: Apple Native CoreSVG 341-->
<!DOCTYPE svg
PUBLIC "-//W3C//DTD SVG 1.1//EN"
       "http://www.w3.org/Graphics/SVG/1.1/DTD/svg11.dtd">
<svg version="1.1" xmlns="http://www.w3.org/2000/svg" xmlns:xlink="http://www.w3.org/1999/xlink" viewBox="0 0 62.0117 58.7646">
 <g>
<path d="M44.0674 28.125C44.0674 29.8615 43.7206 31.5289 43.0859 33.0566L18.5841 33.0566C17.9493 31.5289 17.6025 29.8615 17.6025 28.125C17.6025 20.9229 23.6084 14.8926 30.835 14.8926C38.0615 14.8926 44.0674 20.9229 44.0674 28.125ZM13.0371 27.5391C13.0615 28.6377 12.1094 29.5166 10.8398 29.5166L4.83398 29.5166C3.58887 29.5166 2.66113 28.6377 2.66113 27.5391C2.66113 26.4404 3.58887 25.5615 4.83398 25.5615L10.8398 25.5615C12.1094 25.5615 13.0127 26.4648 13.0371 27.5391ZM59.0088 27.5391C59.0088 28.6377 58.1055 29.541 56.8359 29.5166L50.8301 29.5166C49.585 29.5166 48.6572 28.6377 48.6328 27.5391C48.6084 26.4404 49.585 25.5615 50.8301 25.5615L56.8359 25.5615C58.1055 25.5615 59.0088 26.4648 59.0088 27.5391ZM13.8672 8.37402L18.1152 12.6221C18.9941 13.5254 18.9941 14.7949 18.2617 15.5762C17.5049 16.3574 16.1865 16.333 15.2832 15.4297L11.0352 11.1816C10.1318 10.2783 10.1318 9.00879 10.9375 8.25195C11.6943 7.49512 12.9639 7.4707 13.8672 8.37402ZM50.7568 8.25195C51.5137 9.0332 51.5381 10.2783 50.6348 11.1816L46.3867 15.4297C45.4834 16.333 44.2139 16.333 43.4326 15.5762C42.6514 14.8193 42.6758 13.5254 43.5791 12.6221L47.8271 8.37402C48.7305 7.4707 50 7.4707 50.7568 8.25195ZM32.8125 2.17285L32.8125 8.17871C32.8125 9.42383 31.9336 10.3516 30.835 10.376C29.7363 10.4004 28.8574 9.42383 28.8574 8.17871L28.8574 2.17285C28.8574 0.90332 29.7363 0 30.835 0C31.9336 0 32.8125 0.90332 32.8125 2.17285Z" fill="#ffcc00"/>
  <path d="M6.00586 38.9893L55.5908 38.9893C56.4453 38.9893 57.1289 38.3301 57.1289 37.4512C57.1289 36.5723 56.4453 35.9131 55.5908 35.9131L6.00586 35.9131C5.12695 35.9131 4.46777 36.5723 4.46777 37.4512C4.46777 38.3301 5.12695 38.9893 6.00586 38.9893ZM8.17871 46.8994C8.88672 46.8994 9.44824 46.3379 9.44824 45.6543C9.44824 44.9463 8.88672 44.3848 8.17871 44.3848C7.49512 44.3848 6.93359 44.9463 6.93359 45.6543C6.93359 46.3379 7.49512 46.8994 8.17871 46.8994ZM18.5059 46.8994C19.1895 46.8994 19.751 46.3379 19.751 45.6543C19.751 44.9463 19.1895 44.3848 18.5059 44.3848C17.7979 44.3848 17.2607 44.9463 17.2607 45.6543C17.2607 46.3379 17.7979 46.8994 18.5059 46.8994ZM28.8086 46.8994C29.5166 46.8994 30.0781 46.3379 30.0781 45.6543C30.0781 44.9463 29.5166 44.3848 28.8086 44.3848C28.125 44.3848 27.5635 44.9463 27.5635 45.6543C27.5635 46.3379 28.125 46.8994 28.8086 46.8994ZM39.1357 46.8994C39.8193 46.8994 40.3809 46.3379 40.3809 45.6543C40.3809 44.9463 39.8193 44.3848 39.1357 44.3848C38.4277 44.3848 37.8662 44.9463 37.8662 45.6543C37.8662 46.3379 38.4277 46.8994 39.1357 46.8994ZM49.4385 46.8994C50.1465 46.8994 50.708 46.3379 50.708 45.6543C50.708 44.9463 50.1465 44.3848 49.4385 44.3848C48.7549 44.3848 48.1934 44.9463 48.1934 45.6543C48.1934 46.3379 48.7549 46.8994 49.4385 46.8994ZM5.07812 52.8076C5.76172 52.8076 6.32324 52.2705 6.32324 51.5625C6.32324 50.8545 5.76172 50.3174 5.07812 50.3174C4.37012 50.3174 3.80859 50.8545 3.80859 51.5625C3.80859 52.2705 4.37012 52.8076 5.07812 52.8076ZM15.3809 52.8076C16.0889 52.8076 16.626 52.2705 16.626 51.5625C16.626 50.8545 16.0889 50.3174 15.3809 50.3174C14.6729 50.3174 14.1357 50.8545 14.1357 51.5625C14.1357 52.2705 14.6729 52.8076 15.3809 52.8076ZM25.708 52.8076C26.3916 52.8076 26.9531 52.2705 26.9531 51.5625C26.9531 50.8545 26.3916 50.3174 25.708 50.3174C25 50.3174 24.4385 50.8545 24.4385 51.5625C24.4385 52.2705 25 52.8076 25.708 52.8076ZM36.0107 52.8076C36.7188 52.8076 37.2559 52.2705 37.2559 51.5625C37.2559 50.8545 36.7188 50.3174 36.0107 50.3174C35.3027 50.3174 34.7656 50.8545 34.7656 51.5625C34.7656 52.2705 35.3027 52.8076 36.0107 52.8076ZM46.3379 52.8076C47.0215 52.8076 47.583 52.2705 47.583 51.5625C47.583 50.8545 47.0215 50.3174 46.3379 50.3174C45.6299 50.3174 45.0684 50.8545 45.0684 51.5625C45.0684 52.2705 45.6299 52.8076 46.3379 52.8076ZM56.6406 52.8076C57.3486 52.8076 57.8857 52.2705 57.8857 51.5625C57.8857 50.8545 57.3486 50.3174 56.6406 50.3174C55.9326 50.3174 55.3955 50.8545 55.3955 51.5625C55.3955 52.2705 55.9326 52.8076 56.6406 52.8076ZM12.2803 58.7402C12.9639 58.7402 13.5254 58.1787 13.5254 57.4951C13.5254 56.7871 12.9639 56.2256 12.2803 56.2256C11.5723 56.2256 11.0107 56.7871 11.0107 57.4951C11.0107 58.1787 11.5723 58.7402 12.2803 58.7402ZM22.583 58.7402C23.291 58.7402 23.8281 58.1787 23.8281 57.4951C23.8281 56.7871 23.291 56.2256 22.583 56.2256C21.875 56.2256 21.3379 56.7871 21.3379 57.4951C21.3379 58.1787 21.875 58.7402 22.583 58.7402ZM32.8857 58.7402C33.5938 58.7402 34.1553 58.1787 34.1553 57.4951C34.1553 56.7871 33.5938 56.2256 32.8857 56.2256C32.2021 56.2256 31.6406 56.7871 31.6406 57.4951C31.6406 58.1787 32.2021 58.7402 32.8857 58.7402ZM43.2129 58.7402C43.9209 58.7402 44.458 58.1787 44.458 57.4951C44.458 56.7871 43.9209 56.2256 43.2129 56.2256C42.5049 56.2256 41.9678 56.7871 41.9678 57.4951C41.9678 58.1787 42.5049 58.7402 43.2129 58.7402ZM53.5156 58.7402C54.2236 58.7402 54.7852 58.1787 54.7852 57.4951C54.7852 56.7871 54.2236 56.2256 53.5156 56.2256C52.832 56.2256 52.2705 56.7871 52.2705 57.4951C52.2705 58.1787 52.832 58.7402 53.5156 58.7402Z" fill="white"/>
 </g>
</svg>
