<?xml version="1.0" encoding="UTF-8"?>
<!--Generator: Apple Native CoreSVG 341-->
<!DOCTYPE svg
PUBLIC "-//W3C//DTD SVG 1.1//EN"
       "http://www.w3.org/Graphics/SVG/1.1/DTD/svg11.dtd">
<svg version="1.1" xmlns="http://www.w3.org/2000/svg" xmlns:xlink="http://www.w3.org/1999/xlink" viewBox="0 0 69.5801 58.9111">
 <g>
<path d="M47.8516 43.1396C47.8516 44.9034 47.4938 46.5959 46.8429 48.1445L22.3954 48.1445C21.7445 46.5959 21.3867 44.9034 21.3867 43.1396C21.3867 35.9375 27.3926 29.9072 34.6191 29.9072C41.8457 29.9072 47.8516 35.9375 47.8516 43.1396ZM16.8213 42.5537C16.8457 43.6523 15.8936 44.5312 14.624 44.5312L8.61816 44.5312C7.37305 44.5312 6.44531 43.6523 6.44531 42.5537C6.44531 41.4551 7.37305 40.5762 8.61816 40.5762L14.624 40.5762C15.8936 40.5762 16.7969 41.4551 16.8213 42.5537ZM62.793 42.5537C62.793 43.6523 61.8896 44.5312 60.6201 44.5312L54.6143 44.5312C53.3447 44.5312 52.4414 43.6523 52.417 42.5537C52.3926 41.4551 53.3447 40.5762 54.6143 40.5762L60.6201 40.5762C61.8896 40.5762 62.793 41.4551 62.793 42.5537ZM17.6514 23.3887L21.8994 27.6367C22.7783 28.5156 22.7783 29.8096 22.0215 30.5908C21.2646 31.3721 19.9707 31.3477 19.0674 30.4443L14.8193 26.1963C13.916 25.293 13.916 24.0234 14.6973 23.2666C15.4785 22.5098 16.7236 22.4854 17.6514 23.3887ZM54.541 23.2666C55.2979 24.0479 55.3223 25.293 54.4189 26.1963L50.1709 30.4443C49.2676 31.3477 47.998 31.3477 47.2168 30.5908C46.4355 29.834 46.46 28.5156 47.3389 27.6367L51.6113 23.3887C52.5146 22.4854 53.7842 22.4854 54.541 23.2666Z" fill="#ffcc00"/>
  <path d="M5.46875 54.9072L63.7939 54.9072C64.9414 54.9072 65.918 54.0283 65.918 52.9541C65.918 51.8799 64.9414 51.001 63.7939 51.001L5.46875 51.001C4.29688 51.001 3.34473 51.8799 3.34473 52.9541C3.34473 54.0283 4.29688 54.9072 5.46875 54.9072Z" fill="white"/>
  <path d="M34.6191 6.81152L38.1348 10.9619L41.2109 14.0625C41.5527 14.4043 42.0166 14.624 42.5049 14.624C43.4814 14.624 44.165 13.9404 44.165 12.9883C44.165 12.4756 43.9941 12.085 43.5791 11.6943L35.9619 4.58984C35.4492 4.12598 35.083 3.95508 34.6436 3.95508C34.2041 3.95508 33.8379 4.12598 33.3252 4.58984L25.708 11.6943C25.293 12.085 25.1221 12.4756 25.1221 12.9883C25.1221 13.9404 25.8057 14.624 26.7822 14.624C27.2705 14.624 27.7344 14.4043 28.0762 14.0625L31.3965 10.7178ZM36.2793 7.71484C36.2061 6.81152 35.5469 6.05469 34.6191 6.05469C33.7158 6.05469 33.0322 6.81152 32.959 7.71484L32.6416 12.5732L32.6416 21.7285C32.6416 22.9248 33.5449 23.877 34.6191 23.877C35.6934 23.877 36.6211 22.9248 36.6211 21.7285L36.6211 12.5732Z" fill="white"/>
 </g>
</svg>
