<?xml version="1.0" encoding="UTF-8"?>
<!--Generator: Apple Native CoreSVG 341-->
<!DOCTYPE svg
PUBLIC "-//W3C//DTD SVG 1.1//EN"
       "http://www.w3.org/Graphics/SVG/1.1/DTD/svg11.dtd">
<svg version="1.1" xmlns="http://www.w3.org/2000/svg" xmlns:xlink="http://www.w3.org/1999/xlink" viewBox="0 0 69.5801 58.9111">
 <g>
<path d="M47.8516 43.1396C47.8516 44.9034 47.4938 46.5959 46.8429 48.1445L22.3954 48.1445C21.7445 46.5959 21.3867 44.9034 21.3867 43.1396C21.3867 35.9375 27.3926 29.9072 34.6191 29.9072C41.8457 29.9072 47.8516 35.9375 47.8516 43.1396ZM16.8213 42.5537C16.8457 43.6523 15.8936 44.5312 14.624 44.5312L8.61816 44.5312C7.37305 44.5312 6.44531 43.6523 6.44531 42.5537C6.44531 41.4551 7.37305 40.5762 8.61816 40.5762L14.624 40.5762C15.8936 40.5762 16.7969 41.4551 16.8213 42.5537ZM62.793 42.5537C62.793 43.6523 61.8896 44.5312 60.6201 44.5312L54.6143 44.5312C53.3447 44.5312 52.4414 43.6523 52.417 42.5537C52.3926 41.4551 53.3447 40.5762 54.6143 40.5762L60.6201 40.5762C61.8896 40.5762 62.793 41.4551 62.793 42.5537ZM17.6514 23.3887L21.8994 27.6367C22.7783 28.5156 22.7783 29.8096 22.0215 30.5908C21.2646 31.3721 19.9707 31.3477 19.0674 30.4443L14.8193 26.1963C13.916 25.293 13.916 24.0234 14.6973 23.2666C15.4785 22.5098 16.7236 22.4854 17.6514 23.3887ZM54.541 23.2666C55.2979 24.0479 55.3223 25.293 54.4189 26.1963L50.1709 30.4443C49.2676 31.3477 47.998 31.3477 47.2168 30.5908C46.4355 29.834 46.46 28.5156 47.3389 27.6367L51.6113 23.3887C52.5146 22.4854 53.7842 22.4854 54.541 23.2666Z" fill="#ffcc00"/>
  <path d="M5.46875 54.9072L63.7939 54.9072C64.9414 54.9072 65.918 54.0283 65.918 52.9541C65.918 51.8799 64.9414 51.001 63.7939 51.001L5.46875 51.001C4.29688 51.001 3.34473 51.8799 3.34473 52.9541C3.34473 54.0283 4.29688 54.9072 5.46875 54.9072Z" fill="white"/>
  <path d="M34.6191 21.0449L31.3965 17.1143L28.0762 13.7939C27.7344 13.4277 27.2705 13.2324 26.7822 13.2324C25.8057 13.2324 25.1221 13.8916 25.1221 14.8682C25.1221 15.3809 25.293 15.7715 25.708 16.1377L33.3252 23.2422C33.8379 23.7061 34.2041 23.877 34.6436 23.877C35.083 23.877 35.4492 23.7061 35.9619 23.2422L43.5791 16.1377C43.9941 15.7715 44.165 15.3809 44.165 14.8682C44.165 13.8916 43.4814 13.2324 42.5049 13.2324C42.0166 13.2324 41.5527 13.4277 41.2109 13.7939L38.1348 16.8701ZM36.2793 20.1172L36.6211 15.2588L36.6211 6.12793C36.6211 4.93164 35.6934 3.95508 34.6191 3.95508C33.5449 3.95508 32.6416 4.93164 32.6416 6.12793L32.6416 15.2588L32.959 20.1172C33.0322 21.0449 33.7158 21.7773 34.6191 21.7773C35.5469 21.7773 36.2061 21.0449 36.2793 20.1172Z" fill="white"/>
 </g>
</svg>
