<?xml version="1.0" encoding="UTF-8"?>
<!--Generator: Apple Native CoreSVG 341-->
<!DOCTYPE svg
PUBLIC "-//W3C//DTD SVG 1.1//EN"
       "http://www.w3.org/Graphics/SVG/1.1/DTD/svg11.dtd">
<svg version="1.1" xmlns="http://www.w3.org/2000/svg" xmlns:xlink="http://www.w3.org/1999/xlink" viewBox="0 0 59.7412 71.5576">
 <g>
  <rect height="71.5576" opacity="0" width="59.7412" x="0" y="0"/>
  <path d="M48.6328 36.6211L52.3926 40.3809C53.1982 41.1377 53.1738 42.4316 52.3926 43.2129C51.6357 43.9941 50.3662 44.0186 49.5605 43.2373L45.8008 39.4775C45.0195 38.6963 45.0195 37.4023 45.8008 36.6211C46.582 35.8398 47.8516 35.8643 48.6328 36.6211ZM46.582 25.3174C46.582 32.0312 41.2354 37.4023 34.5215 37.4023C34.1426 37.4023 33.7681 37.3852 33.4 37.3464L33.4229 16.9922C33.4229 15.6879 33.2466 14.4566 32.9075 13.3261C33.4322 13.2439 33.9724 13.208 34.5215 13.208C41.2354 13.208 46.582 18.5791 46.582 25.3174ZM59.7412 25.3174C59.7412 26.416 58.8379 27.3438 57.7393 27.3438L52.4658 27.3438C51.3672 27.3438 50.4395 26.416 50.4395 25.3174C50.4395 24.1943 51.3672 23.291 52.4658 23.291L57.7393 23.291C58.8379 23.291 59.7412 24.1943 59.7412 25.3174ZM52.3926 7.42188C53.1738 8.20312 53.1982 9.49707 52.3926 10.2783L48.6816 14.0381C47.876 14.8438 46.5576 14.8193 45.8008 14.0381C45.0439 13.2568 45.0195 11.9873 45.8008 11.2061L49.5605 7.42188C50.3662 6.64062 51.6357 6.64062 52.3926 7.42188ZM36.5479 2.02637L36.5479 7.2998C36.5479 8.39844 35.6445 9.32617 34.5215 9.32617C33.3984 9.32617 32.4951 8.39844 32.4951 7.2998L32.4951 2.02637C32.4951 0.90332 33.3984 0 34.5215 0C35.6445 0 36.5479 0.90332 36.5479 2.02637Z" fill="#ffcc00"/>
  <path d="M22.9004 62.8906C29.9316 62.8906 35.6201 57.1777 35.6201 50.1465C35.6201 46.4355 34.1064 43.1885 31.1768 40.5518C30.6641 40.0635 30.542 39.7949 30.542 39.0625L30.5664 16.9922C30.5664 12.0361 27.4414 8.64258 22.9004 8.64258C18.3105 8.64258 15.1611 12.0361 15.1611 16.9922L15.1855 39.0625C15.1855 39.7949 15.0879 40.0635 14.5508 40.5518C11.6455 43.1885 10.1074 46.4355 10.1074 50.1465C10.1074 57.1777 15.8203 62.8906 22.9004 62.8906ZM22.9004 59.3506C17.7979 59.3506 13.6963 55.2002 13.6963 50.1465C13.6963 47.0947 15.1367 44.3359 17.7246 42.6025C18.4814 42.0898 18.7744 41.626 18.7744 40.625L18.7744 17.1387C18.7744 14.209 20.459 12.2314 22.9004 12.2314C25.293 12.2314 26.9775 14.209 26.9775 17.1387L26.9775 40.625C26.9775 41.626 27.2705 42.0898 28.0273 42.6025C30.6152 44.3359 32.0557 47.0947 32.0557 50.1465C32.0557 55.2002 27.9297 59.3506 22.9004 59.3506Z" fill="white"/>
  <path d="M22.876 56.0547C26.1475 56.0547 28.7842 53.3936 28.7842 50.1221C28.7842 47.8271 27.4902 45.9473 25.6104 44.9219C24.8291 44.5068 24.5605 44.2139 24.5605 43.0176L24.5605 19.2139C24.5605 18.042 23.8037 17.2852 22.876 17.2852C21.9238 17.2852 21.1914 18.042 21.1914 19.2139L21.1914 43.0176C21.1914 44.2139 20.9229 44.5068 20.1416 44.9219C18.2617 45.9473 16.9678 47.8271 16.9678 50.1221C16.9678 53.418 19.6045 56.0547 22.876 56.0547Z" fill="#ff383c"/>
 </g>
</svg>
