<?xml version="1.0" encoding="UTF-8"?>
<!--Generator: Apple Native CoreSVG 341-->
<!DOCTYPE svg
PUBLIC "-//W3C//DTD SVG 1.1//EN"
       "http://www.w3.org/Graphics/SVG/1.1/DTD/svg11.dtd">
<svg version="1.1" xmlns="http://www.w3.org/2000/svg" xmlns:xlink="http://www.w3.org/1999/xlink" viewBox="0 0 37.6465 54.3213">
 <g>
  <rect height="54.3213" opacity="0" width="37.6465" x="0" y="0"/>
  <path d="M30.9082 8.95996L36.2061 8.95996C37.0605 8.95996 37.6465 8.30078 37.6465 7.54395C37.6465 6.78711 37.0605 6.12793 36.2061 6.12793L30.9082 6.12793C30.0537 6.12793 29.4678 6.78711 29.4678 7.54395C29.4678 8.30078 30.0537 8.95996 30.9082 8.95996ZM30.9082 15.8203L36.2061 15.8203C37.0605 15.8203 37.6465 15.1611 37.6465 14.4043C37.6465 13.6475 37.0605 12.9883 36.2061 12.9883L30.9082 12.9883C30.0537 12.9883 29.4678 13.6475 29.4678 14.4043C29.4678 15.1611 30.0537 15.8203 30.9082 15.8203ZM30.9082 22.6807L36.2061 22.6807C37.0605 22.6807 37.6465 22.0215 37.6465 21.2646C37.6465 20.5078 37.0605 19.8242 36.2061 19.8242L30.9082 19.8242C30.0537 19.8242 29.4678 20.5078 29.4678 21.2646C29.4678 22.0215 30.0537 22.6807 30.9082 22.6807ZM30.9082 29.541L36.2061 29.541C37.0605 29.541 37.6465 28.8818 37.6465 28.125C37.6465 27.3438 37.0605 26.6846 36.2061 26.6846L30.9082 26.6846C30.0537 26.6846 29.4678 27.3438 29.4678 28.125C29.4678 28.8818 30.0537 29.541 30.9082 29.541Z" fill="white"/>
  <path d="M18.6768 54.248C25.708 54.248 31.3965 48.5352 31.3965 41.5039C31.3965 37.793 29.8828 34.5459 26.9531 31.9092C26.4404 31.4453 26.3184 31.1523 26.3184 30.4199L26.3184 8.34961C26.3184 3.39355 23.2178 0 18.6768 0C14.0869 0 10.9619 3.39355 10.9619 8.34961L10.9619 30.4199C10.9619 31.1523 10.8643 31.4453 10.3271 31.9092C7.42188 34.5459 5.88379 37.793 5.88379 41.5039C5.88379 48.5352 11.5967 54.248 18.6768 54.248ZM18.6768 50.708C13.5742 50.708 9.47266 46.5576 9.47266 41.5039C9.47266 38.4521 10.9131 35.6934 13.501 33.96C14.2578 33.4473 14.5508 32.9834 14.5508 31.9824L14.5508 8.49609C14.5508 5.56641 16.2354 3.58887 18.6768 3.58887C21.0693 3.58887 22.7539 5.56641 22.7539 8.49609L22.7539 31.9824C22.7539 32.9834 23.0469 33.4473 23.8037 33.96C26.3916 35.6934 27.832 38.4521 27.832 41.5039C27.832 46.5576 23.7061 50.708 18.6768 50.708Z" fill="white"/>
  <path d="M18.6523 47.4121C21.9238 47.4121 24.5605 44.7754 24.5605 41.4795C24.5605 39.1846 23.2666 37.3047 21.3867 36.2793C20.6055 35.8643 20.3369 35.5713 20.3369 34.375L20.3369 29.8584C20.3369 28.6865 19.5801 27.9297 18.6523 27.9297C17.7002 27.9297 16.9678 28.6865 16.9678 29.8584L16.9678 34.375C16.9678 35.5713 16.6992 35.8643 15.918 36.2793C14.0381 37.3047 12.7441 39.1846 12.7441 41.4795C12.7441 44.7754 15.3809 47.4121 18.6523 47.4121Z" fill="#00c0e8"/>
 </g>
</svg>
