<?xml version="1.0" encoding="UTF-8"?>
<!--Generator: Apple Native CoreSVG 341-->
<!DOCTYPE svg
PUBLIC "-//W3C//DTD SVG 1.1//EN"
       "http://www.w3.org/Graphics/SVG/1.1/DTD/svg11.dtd">
<svg version="1.1" xmlns="http://www.w3.org/2000/svg" xmlns:xlink="http://www.w3.org/1999/xlink" viewBox="0 0 25.8545 54.3213">
 <g>
  <rect height="54.3213" opacity="0" width="25.8545" x="0" y="0"/>
  <path d="M12.793 54.248C19.7998 54.248 25.5127 48.5352 25.5127 41.5039C25.5127 37.793 23.999 34.5459 21.0693 31.9092C20.5322 31.4453 20.4346 31.1523 20.4346 30.4199L20.4346 8.34961C20.4346 3.39355 17.334 0 12.793 0C8.20312 0 5.07812 3.39355 5.07812 8.34961L5.07812 30.4199C5.07812 31.1523 4.98047 31.4453 4.44336 31.9092C1.51367 34.5459 0 37.793 0 41.5039C0 48.5352 5.71289 54.248 12.793 54.248ZM12.793 50.708C7.69043 50.708 3.56445 46.5576 3.56445 41.5039C3.56445 38.4521 5.0293 35.6934 7.61719 33.96C8.37402 33.4473 8.66699 32.9834 8.66699 31.9824L8.66699 8.49609C8.66699 5.56641 10.3271 3.58887 12.793 3.58887C15.1855 3.58887 16.8457 5.56641 16.8457 8.49609L16.8457 31.9824C16.8457 32.9834 17.1387 33.4473 17.8955 33.96C20.4834 35.6934 21.9482 38.4521 21.9482 41.5039C21.9482 46.5576 17.8223 50.708 12.793 50.708Z" fill="white"/>
  <path d="M12.7686 47.4121C16.0156 47.4121 18.6523 44.7754 18.6523 41.4795C18.6523 39.1846 17.3828 37.3047 15.5029 36.2793C14.6973 35.8643 14.4287 35.5713 14.4287 34.375L14.4287 25.9521C14.4287 25.0244 13.6719 24.2676 12.7686 24.2676C11.8408 24.2676 11.084 25.0244 11.084 25.9521L11.084 34.375C11.084 35.5713 10.8154 35.8643 10.0098 36.2793C8.12988 37.3047 6.86035 39.1846 6.86035 41.4795C6.86035 44.7754 9.49707 47.4121 12.7686 47.4121ZM12.7686 21.8262C13.6719 21.8262 14.4287 21.0693 14.4287 20.1416C14.4287 19.2139 13.6719 18.457 12.7686 18.457C11.8408 18.457 11.084 19.2139 11.084 20.1416C11.084 21.0693 11.8408 21.8262 12.7686 21.8262ZM12.7686 15.9912C13.6719 15.9912 14.4287 15.2344 14.4287 14.3066C14.4287 13.3789 13.6719 12.6221 12.7686 12.6221C11.8408 12.6221 11.084 13.3789 11.084 14.3066C11.084 15.2344 11.8408 15.9912 12.7686 15.9912ZM12.7686 10.1807C13.6719 10.1807 14.4287 9.42383 14.4287 8.49609C14.4287 7.56836 13.6719 6.81152 12.7686 6.81152C11.8408 6.81152 11.084 7.56836 11.084 8.49609C11.084 9.42383 11.8408 10.1807 12.7686 10.1807Z" fill="white"/>
 </g>
</svg>
