<?xml version="1.0" encoding="UTF-8"?>
<!--Generator: Apple Native CoreSVG 341-->
<!DOCTYPE svg
PUBLIC "-//W3C//DTD SVG 1.1//EN"
       "http://www.w3.org/Graphics/SVG/1.1/DTD/svg11.dtd">
<svg version="1.1" xmlns="http://www.w3.org/2000/svg" xmlns:xlink="http://www.w3.org/1999/xlink" viewBox="0 0 49.4169 59.9854">
 <g>
  <rect height="59.9854" opacity="0" width="49.4169" x="0" y="0"/>
  <path d="M40.8584 22.4121L42.8259 23.5461L47.2304 20.9961C47.792 20.6299 48.5976 20.7764 48.9638 21.46C49.3056 22.0703 49.0859 22.7539 48.4756 23.1201L45.2956 24.9694L48.6953 26.9287C49.4033 27.3438 49.623 28.0518 49.208 28.7598C48.8174 29.4922 48.0849 29.6631 47.3525 29.248L43.976 27.3081L43.959 30.957C43.959 31.6406 43.4707 32.2266 42.7383 32.2266C42.0058 32.2266 41.4687 31.6406 41.4687 30.957L41.4918 25.8809L39.4912 24.7314L34.0044 21.0671L33.9324 19.9699L34.9501 19.4678ZM32.1122 17.82L32.1847 18.9837L31.2274 19.4592L27.3015 17.5158L27.3047 14.6207Z" fill="white"/>
  <path d="M32.2158 19.4824L32.1146 21.101L27.2939 24.3033L27.2971 21.4113L32.1847 18.9837ZM43.959 7.9834L43.9761 11.6244L47.3525 9.66797C48.0605 9.25293 48.7929 9.42383 49.1836 10.1318C49.623 10.8643 49.4277 11.5967 48.6953 12.0117L45.3404 13.9557L48.4756 15.7959C49.0859 16.1377 49.3056 16.8457 48.9638 17.4805C48.5976 18.1396 47.792 18.2861 47.2304 17.9443L42.8616 15.392L40.8584 16.5527L33.9324 19.9699L33.9004 19.4824L34.0069 17.8553L39.5156 14.209L41.4919 13.0638L41.4687 7.9834C41.4687 7.27539 42.0058 6.68945 42.7383 6.71387C43.4707 6.68945 43.959 7.27539 43.959 7.9834Z" fill="white"/>
  <path d="M34.4375 2.22168L34.4375 6.1014L37.5869 4.29688C38.1972 3.95508 38.9297 4.10156 39.2715 4.71191C39.6621 5.37109 39.4179 6.0791 38.832 6.44531L34.4375 8.96639L34.4375 11.2793L33.9004 19.4824L34.4375 27.6611L34.4375 29.974L38.832 32.4951C39.4179 32.8369 39.6621 33.5693 39.2715 34.2041C38.9297 34.8389 38.1972 34.9854 37.5869 34.6436L34.4375 32.839L34.4375 36.7188C34.4375 37.5732 33.876 38.1104 33.0459 38.1104C32.2402 38.1104 31.7031 37.5488 31.7031 36.7188L31.7031 32.839L28.7491 34.5316C28.312 33.984 27.8183 33.4617 27.2842 32.959L27.2846 32.5252C27.2998 32.5142 27.3162 32.5045 27.333 32.4951L31.7031 29.988L31.7031 27.6855L32.2158 19.4824L31.7031 11.2549L31.7031 8.95238L27.333 6.44531C26.7226 6.0791 26.4785 5.37109 26.8691 4.71191C27.2109 4.10156 27.9433 3.95508 28.5537 4.29688L31.7031 6.1014L31.7031 2.22168C31.7031 1.3916 32.2402 0.854492 33.0459 0.854492C33.876 0.830078 34.4375 1.3916 34.4375 2.22168Z" fill="white"/>
  <path d="M16.7861 57.0801C23.8174 57.0801 29.5302 51.3672 29.5302 44.3359C29.5302 40.625 27.9922 37.3779 25.0869 34.7412C24.5498 34.2773 24.4521 33.9844 24.4521 33.252L24.4765 11.1816C24.4765 6.22559 21.3515 2.83203 16.7861 2.83203C12.2207 2.83203 9.07127 6.22559 9.07127 11.1816L9.09568 33.252C9.09568 33.9844 8.97361 34.2773 8.46091 34.7412C5.53123 37.3779 4.01755 40.625 4.01755 44.3359C4.01755 51.3672 9.70603 57.0801 16.7861 57.0801ZM16.7861 53.54C11.708 53.54 7.58201 49.3896 7.58201 44.3359C7.58201 41.2842 9.02244 38.5254 11.6103 36.792C12.3672 36.2793 12.6601 35.8154 12.6601 34.8145L12.6601 11.3281C12.6601 8.39844 14.3447 6.4209 16.7861 6.4209C19.1787 6.4209 20.8633 8.39844 20.8633 11.3281L20.8633 34.8145C20.8633 35.8154 21.1562 36.2793 21.9131 36.792C24.501 38.5254 25.9414 41.2842 25.9414 44.3359C25.9414 49.3896 21.8398 53.54 16.7861 53.54Z" fill="white"/>
  <path d="M16.7617 50.2441C20.0332 50.2441 22.6699 47.6074 22.6699 44.3115C22.6699 42.0166 21.376 40.1367 19.4961 39.1113C18.7148 38.6963 18.4463 38.4033 18.4463 37.207L18.4463 32.3242C18.4463 31.1523 17.7138 30.3955 16.7617 30.3955C15.834 30.3955 15.0771 31.1523 15.0771 32.3242L15.0771 37.207C15.0771 38.4033 14.8086 38.6963 14.0273 39.1113C12.1474 40.1367 10.8535 42.0166 10.8535 44.3115C10.8535 47.6074 13.4902 50.2441 16.7617 50.2441Z" fill="#00c0e8"/>
 </g>
</svg>
