<?xml version="1.0" encoding="UTF-8"?>
<!--Generator: Apple Native CoreSVG 341-->
<!DOCTYPE svg
PUBLIC "-//W3C//DTD SVG 1.1//EN"
       "http://www.w3.org/Graphics/SVG/1.1/DTD/svg11.dtd">
<svg version="1.1" xmlns="http://www.w3.org/2000/svg" xmlns:xlink="http://www.w3.org/1999/xlink" viewBox="0 0 51.3184 43.335">
 <g>
  <rect height="43.335" opacity="0" width="51.3184" x="0" y="0"/>
  <path d="M26.0986 43.335C29.8584 43.335 32.7637 40.5518 32.7637 36.5723C32.7637 30.8105 26.8799 27.5879 16.04 27.5879C11.499 27.5879 6.5918 28.4668 2.44141 29.8828C1.44043 30.249 1.02539 31.1035 1.26953 31.9336C1.51367 32.7881 2.34375 33.3008 3.41797 32.9346C7.2998 31.543 11.6455 30.7861 16.04 30.7861C24.9023 30.7861 29.5898 33.0078 29.5898 36.5723C29.5898 38.7939 28.0273 40.1611 26.0986 40.1611C24.1699 40.1611 22.998 38.8672 22.6562 36.8164C22.5098 35.9131 21.8506 35.1562 20.8008 35.2295C19.7021 35.3027 19.2627 36.2305 19.4092 37.2314C19.8486 40.625 22.3633 43.335 26.0986 43.335Z" fill="black" fill-opacity="0.85"/>
  <path d="M41.6016 26.123C47.29 26.123 51.3184 22.5098 51.3184 17.4561C51.3184 12.4756 47.4854 8.8623 42.7246 8.8623C38.3057 8.8623 35.0342 11.9385 34.4482 15.9668C34.3018 16.9922 34.8633 17.7979 35.7422 17.9199C36.6455 18.042 37.4268 17.4805 37.6221 16.333C38.0371 13.7695 40.1611 12.0361 42.7246 12.0361C45.7031 12.0361 48.1201 14.2578 48.1201 17.4561C48.1201 20.7031 45.5566 22.9492 41.6016 22.9492C34.1553 22.9492 26.123 18.7012 16.3574 18.7012C11.3281 18.7012 6.73828 19.5068 2.44141 21.0205C1.44043 21.3867 1.02539 22.2412 1.26953 23.0713C1.51367 23.9258 2.34375 24.4385 3.41797 24.0723C7.39746 22.5586 11.5479 21.8994 16.3574 21.8994C26.0986 21.8994 33.374 26.123 41.6016 26.123Z" fill="black" fill-opacity="0.85"/>
  <path d="M3.41797 14.6973C6.93359 13.5742 10.5713 12.9883 14.0381 12.9883C18.5303 12.9883 21.8262 13.7207 26.0742 13.7207C30.4688 13.7207 33.2031 10.7422 33.2031 6.86035C33.2031 2.88086 30.1514 0.0244141 26.3916 0.0244141C23.6084 0.0244141 21.167 1.78223 20.1416 4.10156C19.751 4.90723 19.8975 5.83496 20.752 6.27441C21.5332 6.66504 22.4854 6.4209 22.998 5.44434C23.5352 4.19922 24.8535 3.22266 26.3916 3.22266C28.418 3.22266 30.0049 4.63867 30.0049 6.86035C30.0049 9.08203 28.4668 10.5469 26.0742 10.5469C22.0215 10.5469 18.6768 9.81445 14.0381 9.81445C10.0586 9.81445 6.03027 10.5225 2.44141 11.6699C1.41602 11.9629 1.02539 12.8418 1.26953 13.6719C1.51367 14.5264 2.31934 15.0146 3.41797 14.6973Z" fill="black" fill-opacity="0.85"/>
 </g>
</svg>
