<?xml version="1.0" encoding="UTF-8"?>
<!--Generator: Apple Native CoreSVG 341-->
<!DOCTYPE svg
PUBLIC "-//W3C//DTD SVG 1.1//EN"
       "http://www.w3.org/Graphics/SVG/1.1/DTD/svg11.dtd">
<svg version="1.1" xmlns="http://www.w3.org/2000/svg" xmlns:xlink="http://www.w3.org/1999/xlink" viewBox="0 0 51.3184 51.5869">
 <g>
  <rect height="51.5869" opacity="0" width="51.3184" x="0" y="0"/>
  <path d="M43.7256 8.83789C44.2383 8.83789 44.6533 8.37402 44.6045 7.8125L44.458 5.78613L46.167 6.93359C46.5576 7.20215 47.1924 7.10449 47.4854 6.66504C47.8027 6.20117 47.583 5.54199 47.0459 5.32227L45.2393 4.41895L47.0947 3.49121C47.5586 3.24707 47.7783 2.66113 47.5098 2.17285C47.2656 1.7334 46.582 1.58691 46.1426 1.9043L44.458 3.05176L44.6289 1.0498C44.6777 0.488281 44.2627 0 43.7256 0C43.1396 0 42.7246 0.439453 42.7734 1.02539L42.9199 3.07617L41.1865 1.9043C40.7471 1.61133 40.1367 1.70898 39.8926 2.17285C39.5996 2.66113 39.7949 3.24707 40.2832 3.49121L42.1143 4.41895L40.3076 5.32227C39.7949 5.54199 39.5752 6.15234 39.8682 6.66504C40.1123 7.10449 40.7471 7.22656 41.1865 6.93359L42.9199 5.78613L42.7979 7.8125C42.7734 8.39844 43.1641 8.83789 43.7256 8.83789Z" fill="white"/>
  <path d="M43.7256 43.8477C44.2383 43.8477 44.6533 43.3838 44.6045 42.8467L44.458 40.8203L46.167 41.9678C46.5576 42.2363 47.1924 42.1387 47.4854 41.6748C47.8027 41.2109 47.583 40.5518 47.0459 40.3564L45.2393 39.4287L47.0947 38.501C47.5586 38.2812 47.7783 37.6953 47.5098 37.1826C47.2656 36.7432 46.582 36.5967 46.1426 36.9141L44.458 38.0615L44.6289 36.0596C44.6777 35.5225 44.2627 35.0342 43.7256 35.0342C43.1396 35.0342 42.7246 35.4736 42.7734 36.0352L42.9199 38.0859L41.1865 36.9141C40.7471 36.6211 40.1367 36.7188 39.8926 37.1826C39.5996 37.6953 39.7949 38.2568 40.2832 38.501L42.1143 39.4287L40.3076 40.332C39.7949 40.5518 39.5752 41.1621 39.8682 41.6748C40.1123 42.1143 40.7471 42.2363 41.1865 41.9434L42.9199 40.7959L42.7979 42.8467C42.7734 43.4082 43.1641 43.8477 43.7256 43.8477Z" fill="white"/>
  <path d="M26.0986 47.4609C29.8584 47.4609 32.7637 44.6777 32.7637 40.6982C32.7637 34.9365 26.8799 31.7139 16.04 31.7139C11.499 31.7139 6.5918 32.5928 2.44141 34.0088C1.44043 34.375 1.02539 35.2295 1.26953 36.0596C1.51367 36.9141 2.34375 37.4268 3.41797 37.0605C7.2998 35.6689 11.6455 34.9121 16.04 34.9121C24.9023 34.9121 29.5898 37.1338 29.5898 40.6982C29.5898 42.9199 28.0273 44.2871 26.0986 44.2871C24.1699 44.2871 22.998 42.9932 22.6562 40.9424C22.5098 40.0391 21.8506 39.2822 20.8008 39.3555C19.7021 39.4287 19.2627 40.3564 19.4092 41.3574C19.8486 44.751 22.3633 47.4609 26.0986 47.4609Z" fill="white"/>
  <path d="M41.6016 30.249C47.29 30.249 51.3184 26.6357 51.3184 21.582C51.3184 16.6016 47.4854 12.9883 42.7246 12.9883C38.3057 12.9883 35.0342 16.0645 34.4482 20.0928C34.3018 21.1182 34.8633 21.9238 35.7422 22.0459C36.6455 22.168 37.4268 21.6064 37.6221 20.459C38.0371 17.8955 40.1611 16.1621 42.7246 16.1621C45.7031 16.1621 48.1201 18.3838 48.1201 21.582C48.1201 24.8291 45.5566 27.0752 41.6016 27.0752C34.1553 27.0752 26.123 22.8271 16.3574 22.8271C11.3281 22.8271 6.73828 23.6328 2.44141 25.1465C1.44043 25.5127 1.02539 26.3672 1.26953 27.1973C1.51367 28.0518 2.34375 28.5645 3.41797 28.1982C7.39746 26.6846 11.5479 26.0254 16.3574 26.0254C26.0986 26.0254 33.374 30.249 41.6016 30.249Z" fill="white"/>
  <path d="M3.41797 18.8232C6.93359 17.7002 10.5713 17.1143 14.0381 17.1143C18.5303 17.1143 21.8262 17.8467 26.0742 17.8467C30.4688 17.8467 33.2031 14.8682 33.2031 10.9863C33.2031 7.00684 30.1514 4.15039 26.3916 4.15039C23.6084 4.15039 21.167 5.9082 20.1416 8.22754C19.751 9.0332 19.8975 9.96094 20.752 10.4004C21.5332 10.791 22.4854 10.5469 22.998 9.57031C23.5352 8.3252 24.8535 7.34863 26.3916 7.34863C28.418 7.34863 30.0049 8.76465 30.0049 10.9863C30.0049 13.208 28.4668 14.6729 26.0742 14.6729C22.0215 14.6729 18.6768 13.9404 14.0381 13.9404C10.0586 13.9404 6.03027 14.6484 2.44141 15.7959C1.41602 16.0889 1.02539 16.9678 1.26953 17.7979C1.51367 18.6523 2.31934 19.1406 3.41797 18.8232Z" fill="white"/>
 </g>
</svg>
